<?xml version="1.0" encoding="utf-8"?>
<svg viewBox="0 0 273.6 144" xmlns="http://www.w3.org/2000/svg">
  <defs>
    <clipPath id="pb488feb850">
      <rect x="44.7" y="30.836" width="227.1" height="71.90668"/>
    </clipPath>
    <style type="text/css">*{stroke-linejoin: round; stroke-linecap: butt}</style>
  </defs>
  <g id="figure_1">
    <g id="patch_1">
      <path d="M 0 144 L 273.6 144 L 273.6 0 L 0 0 L 0 144 z " style="fill: none"/>
    </g>
    <g id="axes_1">
      <g id="patch_2">
        <path d="M 44.7 102.74268 L 271.8 102.74268 L 271.8 30.836 L 44.7 30.836 z " style="fill: rgba(255, 255, 255, 0);"/>
      </g>
      <g id="patch_3">
        <path d="M 54.007377 102.74268 L 61.453279 102.74268 L 61.453279 49.139382 L 54.007377 49.139382 z " clip-path="url(#pb488feb850)" style="opacity: 0.99; fill: rgb(231, 150, 19);"/>
      </g>
      <g id="patch_4">
        <path d="M 91.236885 102.74268 L 98.682787 102.74268 L 98.682787 41.774837 L 91.236885 41.774837 z " clip-path="url(#pb488feb850)" style="opacity: 0.99; fill: rgb(231, 150, 19);"/>
      </g>
      <g id="patch_5">
        <path d="M 128.466393 102.74268 L 135.912295 102.74268 L 135.912295 39.585018 L 128.466393 39.585018 z " clip-path="url(#pb488feb850)" style="opacity: 0.99; fill: rgb(231, 150, 19);"/>
      </g>
      <g id="patch_6">
        <path d="M 165.695902 102.74268 L 173.141803 102.74268 L 173.141803 39.315256 L 165.695902 39.315256 z " clip-path="url(#pb488feb850)" style="opacity: 0.99; fill: rgb(231, 150, 19);"/>
      </g>
      <g id="patch_7">
        <path d="M 202.92541 102.74268 L 210.371311 102.74268 L 210.371311 78.691728 L 202.92541 78.691728 z " clip-path="url(#pb488feb850)" style="opacity: 0.99; fill: rgb(231, 150, 19);"/>
      </g>
      <g id="patch_8">
        <path d="M 240.154918 102.74268 L 247.60082 102.74268 L 247.60082 79.861496 L 240.154918 79.861496 z " clip-path="url(#pb488feb850)" style="opacity: 0.99; fill: rgb(231, 150, 19);"/>
      </g>
      <g id="patch_9">
        <path d="M 61.453279 102.74268 L 68.89918 102.74268 L 68.89918 47.956996 L 61.453279 47.956996 z " clip-path="url(#pb488feb850)" style="opacity: 0.99; fill: rgb(235, 188, 0);"/>
      </g>
      <g id="patch_10">
        <path d="M 98.682787 102.74268 L 106.128689 102.74268 L 106.128689 48.998235 L 98.682787 48.998235 z " clip-path="url(#pb488feb850)" style="opacity: 0.99; fill: rgb(235, 188, 0);"/>
      </g>
      <g id="patch_11">
        <path d="M 135.912295 102.74268 L 143.358197 102.74268 L 143.358197 51.238255 L 135.912295 51.238255 z " clip-path="url(#pb488feb850)" style="opacity: 0.99; fill: rgb(235, 188, 0);"/>
      </g>
      <g id="patch_12">
        <path d="M 173.141803 102.74268 L 180.587705 102.74268 L 180.587705 52.090664 L 173.141803 52.090664 z " clip-path="url(#pb488feb850)" style="opacity: 0.99; fill: rgb(235, 188, 0);"/>
      </g>
      <g id="patch_13">
        <path d="M 210.371311 102.74268 L 217.817213 102.74268 L 217.817213 57.931719 L 210.371311 57.931719 z " clip-path="url(#pb488feb850)" style="opacity: 0.99; fill: rgb(235, 188, 0);"/>
      </g>
      <g id="patch_14">
        <path d="M 247.60082 102.74268 L 255.046721 102.74268 L 255.046721 39.312512 L 247.60082 39.312512 z " clip-path="url(#pb488feb850)" style="opacity: 0.99; fill: rgb(235, 188, 0);"/>
      </g>
      <g id="patch_15">
        <path d="M 68.89918 102.74268 L 76.345082 102.74268 L 76.345082 65.343813 L 68.89918 65.343813 z " clip-path="url(#pb488feb850)" style="opacity: 0.99; fill: rgb(247, 233, 109);"/>
      </g>
      <g id="patch_16">
        <path d="M 106.128689 102.74268 L 113.57459 102.74268 L 113.57459 55.382367 L 106.128689 55.382367 z " clip-path="url(#pb488feb850)" style="opacity: 0.99; fill: rgb(247, 233, 109);"/>
      </g>
      <g id="patch_17">
        <path d="M 143.358197 102.74268 L 150.804098 102.74268 L 150.804098 54.644593 L 143.358197 54.644593 z " clip-path="url(#pb488feb850)" style="opacity: 0.99; fill: rgb(247, 233, 109);"/>
      </g>
      <g id="patch_18">
        <path d="M 180.587705 102.74268 L 188.033607 102.74268 L 188.033607 52.961333 L 180.587705 52.961333 z " clip-path="url(#pb488feb850)" style="opacity: 0.99; fill: rgb(247, 233, 109);"/>
      </g>
      <g id="patch_19">
        <path d="M 217.817213 102.74268 L 225.263115 102.74268 L 225.263115 86.189049 L 217.817213 86.189049 z " clip-path="url(#pb488feb850)" style="opacity: 0.99; fill: rgb(247, 233, 109);"/>
      </g>
      <g id="patch_20">
        <path d="M 255.046721 102.74268 L 262.492623 102.74268 L 262.492623 80.906062 L 255.046721 80.906062 z " clip-path="url(#pb488feb850)" style="opacity: 0.99; fill: rgb(247, 233, 109);"/>
      </g>
      <g id="matplotlib.axis_1">
        <g id="xtick_1">
          <g id="line2d_1">
            <defs>
              <path id="m1c7f2232e4" d="M 0 0 L 0 3.5 " style="stroke: #000000; stroke-width: 0.8"/>
            </defs>
            <g>
              <path d="M 0 0 L 0 3.5 " style="stroke-width: 0.8; stroke: rgb(255, 255, 255);" transform="matrix(1, 0, 0, 1, 65.17623138427734, 102.74268341064453)"/>
            </g>
          </g>
          <g id="text_1">
            <path d="M 14.417 115.681 L 14.417 109.283 L 16.205 109.283 Q 16.992 109.283 17.616 109.641 Q 18.24 109.999 18.589 110.667 Q 18.938 111.335 18.938 112.187 L 18.938 112.776 Q 18.938 113.633 18.591 114.297 Q 18.244 114.96 17.614 115.321 Q 16.983 115.681 16.166 115.681 Z M 14.957 109.744 L 14.957 115.224 L 16.17 115.224 Q 17.181 115.224 17.792 114.554 Q 18.402 113.884 18.402 112.741 L 18.402 112.179 Q 18.402 111.076 17.8 110.412 Q 17.198 109.748 16.214 109.744 Z" transform="matrix(0.906308, -0.422618, 0.422618, 0.906308, -42.522789, 39.55321)" style="fill: rgb(255, 255, 255); line-height: normal; white-space: pre;"/>
            <path d="M 22.018 115.769 Q 21.411 115.769 20.921 115.47 Q 20.431 115.171 20.159 114.637 Q 19.886 114.103 19.886 113.44 L 19.886 113.251 Q 19.886 112.565 20.152 112.016 Q 20.418 111.467 20.893 111.152 Q 21.367 110.838 21.921 110.838 Q 22.787 110.838 23.294 111.429 Q 23.802 112.02 23.802 113.044 L 23.802 113.339 L 20.409 113.339 L 20.409 113.44 Q 20.409 114.248 20.873 114.787 Q 21.337 115.325 22.04 115.325 Q 22.462 115.325 22.785 115.171 Q 23.108 115.017 23.371 114.679 L 23.701 114.93 Q 23.121 115.769 22.018 115.769 Z M 21.921 111.286 Q 21.328 111.286 20.921 111.722 Q 20.515 112.157 20.427 112.89 L 23.279 112.89 L 23.279 112.833 Q 23.257 112.148 22.888 111.717 Q 22.519 111.286 21.921 111.286 Z" transform="matrix(0.906308, -0.422618, 0.422618, 0.906308, -42.522789, 39.55321)" style="fill: rgb(255, 255, 255); line-height: normal; white-space: pre;"/>
            <path d="M 26.666 115.769 Q 26.06 115.769 25.57 115.47 Q 25.08 115.171 24.807 114.637 Q 24.535 114.103 24.535 113.44 L 24.535 113.251 Q 24.535 112.565 24.801 112.016 Q 25.067 111.467 25.541 111.152 Q 26.016 110.838 26.57 110.838 Q 27.435 110.838 27.943 111.429 Q 28.45 112.02 28.45 113.044 L 28.45 113.339 L 25.058 113.339 L 25.058 113.44 Q 25.058 114.248 25.521 114.787 Q 25.985 115.325 26.688 115.325 Q 27.11 115.325 27.433 115.171 Q 27.756 115.017 28.02 114.679 L 28.349 114.93 Q 27.769 115.769 26.666 115.769 Z M 26.57 111.286 Q 25.976 111.286 25.57 111.722 Q 25.163 112.157 25.075 112.89 L 27.927 112.89 L 27.927 112.833 Q 27.906 112.148 27.536 111.717 Q 27.167 111.286 26.57 111.286 Z" transform="matrix(0.906308, -0.422618, 0.422618, 0.906308, -42.522789, 39.55321)" style="fill: rgb(255, 255, 255); line-height: normal; white-space: pre;"/>
            <path d="M 33.297 113.352 Q 33.297 114.464 32.805 115.116 Q 32.312 115.769 31.486 115.769 Q 30.511 115.769 29.992 115.083 L 29.992 117.509 L 29.469 117.509 L 29.469 110.926 L 29.957 110.926 L 29.983 111.598 Q 30.497 110.838 31.473 110.838 Q 32.326 110.838 32.811 111.484 Q 33.297 112.13 33.297 113.277 Z M 32.769 113.26 Q 32.769 112.35 32.396 111.823 Q 32.022 111.295 31.354 111.295 Q 30.871 111.295 30.524 111.528 Q 30.177 111.761 29.992 112.205 L 29.992 114.486 Q 30.181 114.894 30.533 115.11 Q 30.884 115.325 31.363 115.325 Q 32.027 115.325 32.398 114.796 Q 32.769 114.266 32.769 113.26 Z" transform="matrix(0.906308, -0.422618, 0.422618, 0.906308, -42.522789, 39.55321)" style="fill: rgb(255, 255, 255); line-height: normal; white-space: pre;"/>
            <path d="M 38.202 114.108 Q 38.202 113.576 37.829 113.266 Q 37.455 112.956 36.462 112.677 Q 35.469 112.398 35.012 112.069 Q 34.361 111.603 34.361 110.847 Q 34.361 110.113 34.966 109.654 Q 35.57 109.195 36.51 109.195 Q 37.147 109.195 37.651 109.441 Q 38.154 109.687 38.431 110.126 Q 38.708 110.566 38.708 111.106 L 38.163 111.106 Q 38.163 110.452 37.714 110.054 Q 37.266 109.656 36.51 109.656 Q 35.776 109.656 35.341 109.983 Q 34.906 110.311 34.906 110.838 Q 34.906 111.326 35.297 111.634 Q 35.688 111.941 36.55 112.176 Q 37.411 112.411 37.855 112.664 Q 38.299 112.917 38.523 113.268 Q 38.747 113.62 38.747 114.099 Q 38.747 114.855 38.143 115.312 Q 37.539 115.769 36.55 115.769 Q 35.873 115.769 35.308 115.527 Q 34.744 115.285 34.451 114.85 Q 34.159 114.415 34.159 113.853 L 34.7 113.853 Q 34.7 114.53 35.205 114.921 Q 35.71 115.312 36.55 115.312 Q 37.297 115.312 37.749 114.982 Q 38.202 114.653 38.202 114.108 Z" transform="matrix(0.906308, -0.422618, 0.422618, 0.906308, -42.522789, 39.55321)" style="fill: rgb(255, 255, 255); line-height: normal; white-space: pre;"/>
            <path d="M 43.609 113.352 Q 43.609 114.464 43.117 115.116 Q 42.625 115.769 41.799 115.769 Q 40.823 115.769 40.305 115.083 L 40.305 117.509 L 39.782 117.509 L 39.782 110.926 L 40.27 110.926 L 40.296 111.598 Q 40.81 110.838 41.786 110.838 Q 42.638 110.838 43.124 111.484 Q 43.609 112.13 43.609 113.277 Z M 43.082 113.26 Q 43.082 112.35 42.709 111.823 Q 42.335 111.295 41.667 111.295 Q 41.184 111.295 40.837 111.528 Q 40.489 111.761 40.305 112.205 L 40.305 114.486 Q 40.494 114.894 40.845 115.11 Q 41.197 115.325 41.676 115.325 Q 42.339 115.325 42.711 114.796 Q 43.082 114.266 43.082 113.26 Z" transform="matrix(0.906308, -0.422618, 0.422618, 0.906308, -42.522789, 39.55321)" style="fill: rgb(255, 255, 255); line-height: normal; white-space: pre;"/>
            <path d="M 46.612 115.769 Q 46.006 115.769 45.516 115.47 Q 45.026 115.171 44.753 114.637 Q 44.481 114.103 44.481 113.44 L 44.481 113.251 Q 44.481 112.565 44.747 112.016 Q 45.012 111.467 45.487 111.152 Q 45.962 110.838 46.515 110.838 Q 47.381 110.838 47.889 111.429 Q 48.396 112.02 48.396 113.044 L 48.396 113.339 L 45.004 113.339 L 45.004 113.44 Q 45.004 114.248 45.467 114.787 Q 45.931 115.325 46.634 115.325 Q 47.056 115.325 47.379 115.171 Q 47.702 115.017 47.966 114.679 L 48.295 114.93 Q 47.715 115.769 46.612 115.769 Z M 46.515 111.286 Q 45.922 111.286 45.516 111.722 Q 45.109 112.157 45.021 112.89 L 47.873 112.89 L 47.873 112.833 Q 47.851 112.148 47.482 111.717 Q 47.113 111.286 46.515 111.286 Z" transform="matrix(0.906308, -0.422618, 0.422618, 0.906308, -42.522789, 39.55321)" style="fill: rgb(255, 255, 255); line-height: normal; white-space: pre;"/>
            <path d="M 51.261 115.769 Q 50.654 115.769 50.164 115.47 Q 49.674 115.171 49.402 114.637 Q 49.129 114.103 49.129 113.44 L 49.129 113.251 Q 49.129 112.565 49.395 112.016 Q 49.661 111.467 50.136 111.152 Q 50.61 110.838 51.164 110.838 Q 52.03 110.838 52.537 111.429 Q 53.045 112.02 53.045 113.044 L 53.045 113.339 L 49.652 113.339 L 49.652 113.44 Q 49.652 114.248 50.116 114.787 Q 50.579 115.325 51.283 115.325 Q 51.704 115.325 52.027 115.171 Q 52.35 115.017 52.614 114.679 L 52.944 114.93 Q 52.364 115.769 51.261 115.769 Z M 51.164 111.286 Q 50.571 111.286 50.164 111.722 Q 49.758 112.157 49.67 112.89 L 52.522 112.89 L 52.522 112.833 Q 52.5 112.148 52.131 111.717 Q 51.762 111.286 51.164 111.286 Z" transform="matrix(0.906308, -0.422618, 0.422618, 0.906308, -42.522789, 39.55321)" style="fill: rgb(255, 255, 255); line-height: normal; white-space: pre;"/>
            <path d="M 55.826 115.325 Q 56.375 115.325 56.746 115.015 Q 57.118 114.705 57.148 114.213 L 57.654 114.213 Q 57.632 114.648 57.381 115.006 Q 57.131 115.365 56.716 115.567 Q 56.3 115.769 55.826 115.769 Q 54.89 115.769 54.342 115.118 Q 53.795 114.468 53.795 113.369 L 53.795 113.211 Q 53.795 112.508 54.041 111.968 Q 54.288 111.427 54.747 111.133 Q 55.206 110.838 55.821 110.838 Q 56.603 110.838 57.111 111.304 Q 57.619 111.77 57.654 112.53 L 57.148 112.53 Q 57.113 111.972 56.746 111.629 Q 56.379 111.286 55.821 111.286 Q 55.109 111.286 54.716 111.801 Q 54.323 112.315 54.323 113.242 L 54.323 113.396 Q 54.323 114.306 54.716 114.815 Q 55.109 115.325 55.826 115.325 Z" transform="matrix(0.906308, -0.422618, 0.422618, 0.906308, -42.522789, 39.55321)" style="fill: rgb(255, 255, 255); line-height: normal; white-space: pre;"/>
            <path d="M 59.224 111.73 Q 59.483 111.304 59.887 111.071 Q 60.292 110.838 60.771 110.838 Q 61.535 110.838 61.909 111.269 Q 62.282 111.7 62.287 112.561 L 62.287 115.681 L 61.764 115.681 L 61.764 112.556 Q 61.759 111.919 61.493 111.607 Q 61.228 111.295 60.643 111.295 Q 60.155 111.295 59.78 111.601 Q 59.404 111.906 59.224 112.425 L 59.224 115.681 L 58.701 115.681 L 58.701 108.931 L 59.224 108.931 Z" transform="matrix(0.906308, -0.422618, 0.422618, 0.906308, -42.522789, 39.55321)" style="fill: rgb(255, 255, 255); line-height: normal; white-space: pre;"/>
            <path d="M 67.563 115.681 L 63.555 115.681 L 63.555 115.277 L 65.748 112.789 Q 66.293 112.161 66.504 111.752 Q 66.715 111.344 66.715 110.957 Q 66.715 110.35 66.359 109.997 Q 66.003 109.643 65.379 109.643 Q 64.733 109.643 64.335 110.056 Q 63.937 110.469 63.937 111.128 L 63.414 111.128 Q 63.414 110.588 63.658 110.144 Q 63.902 109.7 64.352 109.447 Q 64.803 109.195 65.379 109.195 Q 66.257 109.195 66.752 109.656 Q 67.246 110.118 67.246 110.913 Q 67.246 111.361 66.967 111.893 Q 66.688 112.425 65.985 113.22 L 64.201 115.237 L 67.563 115.237 Z" transform="matrix(0.906308, -0.422618, 0.422618, 0.906308, -42.522789, 39.55321)" style="fill: rgb(255, 255, 255); line-height: normal; white-space: pre;"/>
          </g>
        </g>
        <g id="xtick_2">
          <g id="line2d_2">
            <g>
              <path d="M 0 0 L 0 3.5 " style="stroke-width: 0.8; stroke: rgb(255, 255, 255);" transform="matrix(1, 0, 0, 1, 102.4057388305664, 102.74268341064453)"/>
            </g>
          </g>
          <g id="text_2">
            <path d="M 65.11 115.686 L 65.11 109.288 L 66.999 109.288 Q 68.028 109.288 68.559 109.712 Q 69.091 110.136 69.091 110.962 Q 69.091 111.458 68.821 111.825 Q 68.551 112.192 68.08 112.351 Q 68.638 112.474 68.979 112.9 Q 69.32 113.326 69.32 113.884 Q 69.32 114.732 68.772 115.209 Q 68.225 115.686 67.25 115.686 Z M 65.65 112.61 L 65.65 115.229 L 67.272 115.229 Q 67.966 115.229 68.373 114.875 Q 68.779 114.521 68.779 113.893 Q 68.779 113.3 68.39 112.955 Q 68.001 112.61 67.316 112.61 Z M 65.65 112.157 L 67.127 112.157 Q 67.804 112.144 68.175 111.839 Q 68.546 111.533 68.546 110.949 Q 68.546 110.333 68.162 110.041 Q 67.777 109.749 66.999 109.749 L 65.65 109.749 Z" transform="matrix(0.906308, -0.422618, 0.422618, 0.906308, -39.036605, 55.288563)" style="fill: rgb(255, 255, 255); line-height: normal; white-space: pre;"/>
            <path d="M 74.151 112.619 L 71.158 112.619 L 71.158 115.229 L 74.599 115.229 L 74.599 115.686 L 70.618 115.686 L 70.618 109.288 L 74.577 109.288 L 74.577 109.749 L 71.158 109.749 L 71.158 112.162 L 74.151 112.162 Z" transform="matrix(0.906308, -0.422618, 0.422618, 0.906308, -39.036605, 55.288563)" style="fill: rgb(255, 255, 255); line-height: normal; white-space: pre;"/>
            <path d="M 78.126 113.023 L 76.267 113.023 L 76.267 115.686 L 75.722 115.686 L 75.722 109.288 L 77.8 109.288 Q 78.824 109.288 79.4 109.784 Q 79.976 110.281 79.976 111.173 Q 79.976 111.788 79.615 112.258 Q 79.255 112.728 78.648 112.909 L 80.248 115.629 L 80.248 115.686 L 79.672 115.686 Z M 76.267 112.561 L 77.923 112.561 Q 78.605 112.561 79.018 112.175 Q 79.431 111.788 79.431 111.173 Q 79.431 110.496 79 110.123 Q 78.569 109.749 77.792 109.749 L 76.267 109.749 Z" transform="matrix(0.906308, -0.422618, 0.422618, 0.906308, -39.036605, 55.288563)" style="fill: rgb(255, 255, 255); line-height: normal; white-space: pre;"/>
            <path d="M 85.436 109.749 L 83.243 109.749 L 83.243 115.686 L 82.703 115.686 L 82.703 109.749 L 80.514 109.749 L 80.514 109.288 L 85.436 109.288 Z" transform="matrix(0.906308, -0.422618, 0.422618, 0.906308, -39.036605, 55.288563)" style="fill: rgb(255, 255, 255); line-height: normal; white-space: pre;"/>
            <path d="M 88.284 113.102 Q 88.284 112.144 88.53 111.241 Q 88.776 110.338 89.251 109.589 Q 89.725 108.839 90.27 108.514 L 90.398 108.87 Q 90.108 109.077 89.822 109.472 Q 89.536 109.868 89.312 110.413 Q 89.088 110.957 88.95 111.636 Q 88.811 112.315 88.811 113.177 Q 88.811 114.095 89.02 114.943 Q 89.229 115.791 89.594 116.44 Q 89.958 117.088 90.398 117.413 L 90.27 117.751 Q 89.712 117.417 89.238 116.673 Q 88.763 115.928 88.524 115.033 Q 88.284 114.139 88.284 113.102 Z" transform="matrix(0.906308, -0.422618, 0.422618, 0.906308, -39.036605, 55.288563)" style="fill: rgb(255, 255, 255); line-height: normal; white-space: pre;"/>
            <path d="M 96.056 112.834 Q 96.056 113.748 95.733 114.427 Q 95.41 115.106 94.812 115.453 L 95.976 116.468 L 95.603 116.802 L 94.298 115.673 Q 93.937 115.774 93.564 115.774 Q 92.834 115.774 92.265 115.414 Q 91.696 115.053 91.384 114.392 Q 91.072 113.73 91.068 112.865 L 91.068 112.148 Q 91.068 111.274 91.378 110.599 Q 91.687 109.925 92.254 109.562 Q 92.821 109.2 93.555 109.2 Q 94.302 109.2 94.869 109.56 Q 95.436 109.92 95.746 110.593 Q 96.056 111.265 96.056 112.144 Z M 95.515 112.14 Q 95.515 110.984 94.992 110.329 Q 94.469 109.674 93.555 109.674 Q 92.667 109.674 92.138 110.331 Q 91.608 110.988 91.608 112.166 L 91.608 112.834 Q 91.608 113.972 92.133 114.638 Q 92.659 115.304 93.564 115.304 Q 94.478 115.304 94.996 114.649 Q 95.515 113.994 95.515 112.821 Z" transform="matrix(0.906308, -0.422618, 0.422618, 0.906308, -39.036605, 55.288563)" style="fill: rgb(255, 255, 255); line-height: normal; white-space: pre;"/>
            <path d="M 100.885 113.893 L 97.98 113.893 L 97.321 115.686 L 96.754 115.686 L 99.175 109.288 L 99.689 109.288 L 102.111 115.686 L 101.548 115.686 Z M 98.147 113.432 L 100.713 113.432 L 99.43 109.947 Z" transform="matrix(0.906308, -0.422618, 0.422618, 0.906308, -39.036605, 55.288563)" style="fill: rgb(255, 255, 255); line-height: normal; white-space: pre;"/>
            <path d="M 104.498 113.168 Q 104.498 114.135 104.259 115.029 Q 104.019 115.923 103.549 116.666 Q 103.079 117.409 102.512 117.751 L 102.384 117.413 Q 102.815 117.105 103.182 116.459 Q 103.549 115.813 103.76 114.954 Q 103.971 114.095 103.971 113.089 Q 103.971 112.179 103.76 111.333 Q 103.549 110.487 103.178 109.821 Q 102.806 109.156 102.384 108.853 L 102.512 108.514 Q 103.066 108.853 103.536 109.595 Q 104.006 110.338 104.252 111.243 Q 104.498 112.148 104.498 113.168 Z" transform="matrix(0.906308, -0.422618, 0.422618, 0.906308, -39.036605, 55.288563)" style="fill: rgb(255, 255, 255); line-height: normal; white-space: pre;"/>
          </g>
        </g>
        <g id="xtick_3">
          <g id="line2d_3">
            <g>
              <path d="M 0 0 L 0 3.5 " style="stroke-width: 0.8; stroke: rgb(255, 255, 255);" transform="matrix(1, 0, 0, 1, 139.63523864746094, 102.74268341064453)"/>
            </g>
          </g>
          <g id="text_3">
            <path d="M 103.094 115.681 L 103.094 109.283 L 104.984 109.283 Q 106.012 109.283 106.544 109.707 Q 107.076 110.131 107.076 110.957 Q 107.076 111.453 106.806 111.82 Q 106.535 112.187 106.065 112.346 Q 106.623 112.469 106.964 112.895 Q 107.304 113.321 107.304 113.879 Q 107.304 114.727 106.757 115.204 Q 106.21 115.681 105.235 115.681 Z M 103.635 112.605 L 103.635 115.224 L 105.257 115.224 Q 105.951 115.224 106.357 114.87 Q 106.764 114.516 106.764 113.888 Q 106.764 113.295 106.375 112.95 Q 105.986 112.605 105.301 112.605 Z M 103.635 112.152 L 105.112 112.152 Q 105.788 112.139 106.16 111.834 Q 106.531 111.528 106.531 110.944 Q 106.531 110.328 106.146 110.036 Q 105.762 109.744 104.984 109.744 L 103.635 109.744 Z" transform="matrix(0.906308, -0.422618, 0.422618, 0.906308, -35.546558, 71.020953)" style="fill: rgb(255, 255, 255); line-height: normal; white-space: pre;"/>
            <path d="M 112.136 112.614 L 109.143 112.614 L 109.143 115.224 L 112.584 115.224 L 112.584 115.681 L 108.602 115.681 L 108.602 109.283 L 112.562 109.283 L 112.562 109.744 L 109.143 109.744 L 109.143 112.157 L 112.136 112.157 Z" transform="matrix(0.906308, -0.422618, 0.422618, 0.906308, -35.546558, 71.020953)" style="fill: rgb(255, 255, 255); line-height: normal; white-space: pre;"/>
            <path d="M 116.11 113.018 L 114.251 113.018 L 114.251 115.681 L 113.707 115.681 L 113.707 109.283 L 115.785 109.283 Q 116.809 109.283 117.385 109.779 Q 117.96 110.276 117.96 111.168 Q 117.96 111.783 117.6 112.253 Q 117.24 112.723 116.633 112.904 L 118.233 115.624 L 118.233 115.681 L 117.657 115.681 Z M 114.251 112.556 L 115.908 112.556 Q 116.589 112.556 117.002 112.17 Q 117.416 111.783 117.416 111.168 Q 117.416 110.491 116.985 110.118 Q 116.554 109.744 115.776 109.744 L 114.251 109.744 Z" transform="matrix(0.906308, -0.422618, 0.422618, 0.906308, -35.546558, 71.020953)" style="fill: rgb(255, 255, 255); line-height: normal; white-space: pre;"/>
            <path d="M 123.421 109.744 L 121.228 109.744 L 121.228 115.681 L 120.688 115.681 L 120.688 109.744 L 118.499 109.744 L 118.499 109.283 L 123.421 109.283 Z" transform="matrix(0.906308, -0.422618, 0.422618, 0.906308, -35.546558, 71.020953)" style="fill: rgb(255, 255, 255); line-height: normal; white-space: pre;"/>
            <path d="M 126.269 113.097 Q 126.269 112.139 126.515 111.236 Q 126.761 110.333 127.236 109.584 Q 127.71 108.834 128.255 108.509 L 128.383 108.865 Q 128.093 109.072 127.807 109.467 Q 127.521 109.863 127.297 110.408 Q 127.073 110.952 126.935 111.631 Q 126.796 112.31 126.796 113.172 Q 126.796 114.09 127.005 114.938 Q 127.214 115.786 127.578 116.435 Q 127.943 117.083 128.383 117.408 L 128.255 117.746 Q 127.697 117.412 127.222 116.668 Q 126.748 115.923 126.508 115.028 Q 126.269 114.134 126.269 113.097 Z" transform="matrix(0.906308, -0.422618, 0.422618, 0.906308, -35.546558, 71.020953)" style="fill: rgb(255, 255, 255); line-height: normal; white-space: pre;"/>
            <path d="M 132.951 114.108 Q 132.951 113.576 132.577 113.266 Q 132.203 112.956 131.21 112.677 Q 130.217 112.398 129.76 112.069 Q 129.11 111.603 129.11 110.847 Q 129.11 110.113 129.714 109.654 Q 130.318 109.195 131.259 109.195 Q 131.896 109.195 132.399 109.441 Q 132.902 109.687 133.179 110.126 Q 133.456 110.566 133.456 111.106 L 132.911 111.106 Q 132.911 110.452 132.463 110.054 Q 132.015 109.656 131.259 109.656 Q 130.525 109.656 130.09 109.983 Q 129.655 110.311 129.655 110.838 Q 129.655 111.326 130.046 111.634 Q 130.437 111.941 131.298 112.176 Q 132.16 112.411 132.603 112.664 Q 133.047 112.917 133.271 113.268 Q 133.495 113.62 133.495 114.099 Q 133.495 114.855 132.891 115.312 Q 132.287 115.769 131.298 115.769 Q 130.621 115.769 130.057 115.527 Q 129.492 115.285 129.2 114.85 Q 128.908 114.415 128.908 113.853 L 129.448 113.853 Q 129.448 114.53 129.953 114.921 Q 130.459 115.312 131.298 115.312 Q 132.045 115.312 132.498 114.982 Q 132.951 114.653 132.951 114.108 Z" transform="matrix(0.906308, -0.422618, 0.422618, 0.906308, -35.546558, 71.020953)" style="fill: rgb(255, 255, 255); line-height: normal; white-space: pre;"/>
            <path d="M 138.112 113.888 L 135.207 113.888 L 134.548 115.681 L 133.981 115.681 L 136.402 109.283 L 136.917 109.283 L 139.338 115.681 L 138.775 115.681 Z M 135.374 113.427 L 137.94 113.427 L 136.657 109.942 Z" transform="matrix(0.906308, -0.422618, 0.422618, 0.906308, -35.546558, 71.020953)" style="fill: rgb(255, 255, 255); line-height: normal; white-space: pre;"/>
            <path d="M 141.725 113.163 Q 141.725 114.13 141.486 115.024 Q 141.246 115.918 140.776 116.661 Q 140.306 117.404 139.739 117.746 L 139.611 117.408 Q 140.042 117.1 140.409 116.454 Q 140.776 115.808 140.987 114.949 Q 141.198 114.09 141.198 113.084 Q 141.198 112.174 140.987 111.328 Q 140.776 110.482 140.405 109.816 Q 140.033 109.151 139.611 108.848 L 139.739 108.509 Q 140.293 108.848 140.763 109.59 Q 141.233 110.333 141.479 111.238 Q 141.725 112.143 141.725 113.163 Z" transform="matrix(0.906308, -0.422618, 0.422618, 0.906308, -35.546558, 71.020953)" style="fill: rgb(255, 255, 255); line-height: normal; white-space: pre;"/>
          </g>
        </g>
        <g id="xtick_4">
          <g id="line2d_4">
            <g>
              <path d="M 0 0 L 0 3.5 " style="stroke-width: 0.8; stroke: rgb(255, 255, 255);" transform="matrix(1, 0, 0, 1, 176.86476135253906, 102.74268341064453)"/>
            </g>
          </g>
          <g id="text_4">
            <path d="M 141.402 112.918 L 139.544 112.918 L 139.544 115.581 L 138.999 115.581 L 138.999 109.183 L 141.077 109.183 Q 142.101 109.183 142.677 109.679 Q 143.253 110.176 143.253 111.068 Q 143.253 111.683 142.892 112.153 Q 142.532 112.623 141.925 112.804 L 143.525 115.524 L 143.525 115.581 L 142.949 115.581 Z M 139.544 112.456 L 141.2 112.456 Q 141.881 112.456 142.295 112.07 Q 142.708 111.683 142.708 111.068 Q 142.708 110.391 142.277 110.018 Q 141.846 109.644 141.068 109.644 L 139.544 109.644 Z" transform="matrix(0.906308, -0.422618, 0.422618, 0.906308, -32.020773, 86.725918)" style="fill: rgb(255, 255, 255); line-height: normal; white-space: pre;"/>
            <path d="M 146.433 115.669 Q 145.827 115.669 145.337 115.37 Q 144.847 115.071 144.574 114.537 Q 144.302 114.003 144.302 113.34 L 144.302 113.151 Q 144.302 112.465 144.568 111.916 Q 144.834 111.367 145.308 111.052 Q 145.783 110.738 146.337 110.738 Q 147.202 110.738 147.71 111.329 Q 148.218 111.92 148.218 112.944 L 148.218 113.239 L 144.825 113.239 L 144.825 113.34 Q 144.825 114.148 145.289 114.687 Q 145.752 115.225 146.455 115.225 Q 146.877 115.225 147.2 115.071 Q 147.523 114.917 147.787 114.579 L 148.116 114.83 Q 147.536 115.669 146.433 115.669 Z M 146.337 111.186 Q 145.743 111.186 145.337 111.622 Q 144.93 112.057 144.843 112.79 L 147.695 112.79 L 147.695 112.733 Q 147.673 112.048 147.303 111.617 Q 146.934 111.186 146.337 111.186 Z" transform="matrix(0.906308, -0.422618, 0.422618, 0.906308, -32.020773, 86.725918)" style="fill: rgb(255, 255, 255); line-height: normal; white-space: pre;"/>
            <path d="M 152.088 114.373 Q 152.088 113.981 151.774 113.744 Q 151.46 113.507 150.827 113.373 Q 150.194 113.239 149.845 113.065 Q 149.495 112.892 149.326 112.641 Q 149.157 112.391 149.157 112.035 Q 149.157 111.472 149.627 111.105 Q 150.098 110.738 150.831 110.738 Q 151.627 110.738 152.108 111.132 Q 152.589 111.525 152.589 112.158 L 152.062 112.158 Q 152.062 111.74 151.713 111.463 Q 151.363 111.186 150.831 111.186 Q 150.313 111.186 149.999 111.417 Q 149.684 111.648 149.684 112.017 Q 149.684 112.373 149.946 112.569 Q 150.207 112.764 150.9 112.927 Q 151.592 113.089 151.937 113.274 Q 152.282 113.458 152.449 113.718 Q 152.616 113.977 152.616 114.346 Q 152.616 114.948 152.13 115.309 Q 151.644 115.669 150.862 115.669 Q 150.032 115.669 149.515 115.267 Q 148.999 114.865 148.999 114.249 L 149.526 114.249 Q 149.557 114.711 149.915 114.968 Q 150.273 115.225 150.862 115.225 Q 151.411 115.225 151.75 114.983 Q 152.088 114.742 152.088 114.373 Z" transform="matrix(0.906308, -0.422618, 0.422618, 0.906308, -32.020773, 86.725918)" style="fill: rgb(255, 255, 255); line-height: normal; white-space: pre;"/>
            <path d="M 158.682 115.581 L 158.142 115.581 L 154.463 110.105 L 154.463 115.581 L 153.918 115.581 L 153.918 109.183 L 154.463 109.183 L 158.146 114.663 L 158.146 109.183 L 158.682 109.183 Z" transform="matrix(0.906308, -0.422618, 0.422618, 0.906308, -32.020773, 86.725918)" style="fill: rgb(255, 255, 255); line-height: normal; white-space: pre;"/>
            <path d="M 162.027 115.669 Q 161.421 115.669 160.931 115.37 Q 160.441 115.071 160.169 114.537 Q 159.896 114.003 159.896 113.34 L 159.896 113.151 Q 159.896 112.465 160.162 111.916 Q 160.428 111.367 160.902 111.052 Q 161.377 110.738 161.931 110.738 Q 162.797 110.738 163.304 111.329 Q 163.812 111.92 163.812 112.944 L 163.812 113.239 L 160.419 113.239 L 160.419 113.34 Q 160.419 114.148 160.883 114.687 Q 161.346 115.225 162.049 115.225 Q 162.471 115.225 162.794 115.071 Q 163.117 114.917 163.381 114.579 L 163.711 114.83 Q 163.13 115.669 162.027 115.669 Z M 161.931 111.186 Q 161.338 111.186 160.931 111.622 Q 160.525 112.057 160.437 112.79 L 163.289 112.79 L 163.289 112.733 Q 163.267 112.048 162.898 111.617 Q 162.528 111.186 161.931 111.186 Z" transform="matrix(0.906308, -0.422618, 0.422618, 0.906308, -32.020773, 86.725918)" style="fill: rgb(255, 255, 255); line-height: normal; white-space: pre;"/>
            <path d="M 165.644 109.609 L 165.644 110.826 L 166.629 110.826 L 166.629 111.257 L 165.644 111.257 L 165.644 114.425 Q 165.644 114.821 165.787 115.014 Q 165.93 115.207 166.264 115.207 Q 166.396 115.207 166.69 115.164 L 166.712 115.594 Q 166.506 115.669 166.15 115.669 Q 165.609 115.669 165.363 115.355 Q 165.117 115.04 165.117 114.43 L 165.117 111.257 L 164.242 111.257 L 164.242 110.826 L 165.117 110.826 L 165.117 109.609 Z" transform="matrix(0.906308, -0.422618, 0.422618, 0.906308, -32.020773, 86.725918)" style="fill: rgb(255, 255, 255); line-height: normal; white-space: pre;"/>
            <path d="M 169.352 112.979 L 167.247 112.979 L 167.247 112.536 L 169.352 112.536 Z" transform="matrix(0.906308, -0.422618, 0.422618, 0.906308, -32.020773, 86.725918)" style="fill: rgb(255, 255, 255); line-height: normal; white-space: pre;"/>
            <path d="M 170.568 112.303 L 170.88 109.183 L 174.079 109.183 L 174.079 109.67 L 171.333 109.67 L 171.109 111.832 Q 171.623 111.481 172.313 111.481 Q 173.179 111.481 173.693 112.043 Q 174.207 112.606 174.207 113.542 Q 174.207 114.553 173.706 115.111 Q 173.205 115.669 172.295 115.669 Q 171.46 115.669 170.942 115.203 Q 170.423 114.737 170.348 113.898 L 170.854 113.898 Q 170.929 114.553 171.298 114.889 Q 171.667 115.225 172.295 115.225 Q 172.981 115.225 173.33 114.79 Q 173.68 114.355 173.68 113.551 Q 173.68 112.848 173.288 112.404 Q 172.897 111.96 172.221 111.96 Q 171.847 111.96 171.57 112.054 Q 171.293 112.149 170.986 112.421 Z" transform="matrix(0.906308, -0.422618, 0.422618, 0.906308, -32.020773, 86.725918)" style="fill: rgb(255, 255, 255); line-height: normal; white-space: pre;"/>
            <path d="M 179.055 112.914 Q 179.055 114.267 178.559 114.968 Q 178.062 115.669 177.095 115.669 Q 176.146 115.669 175.641 114.981 Q 175.135 114.293 175.122 112.979 L 175.122 111.832 Q 175.122 110.483 175.623 109.789 Q 176.124 109.095 177.086 109.095 Q 178.036 109.095 178.537 109.765 Q 179.038 110.435 179.055 111.74 Z M 178.528 111.767 Q 178.528 110.668 178.17 110.105 Q 177.812 109.543 177.086 109.543 Q 176.374 109.543 176.014 110.092 Q 175.654 110.642 175.645 111.714 L 175.645 112.971 Q 175.645 114.065 176.016 114.645 Q 176.388 115.225 177.095 115.225 Q 177.798 115.225 178.161 114.658 Q 178.523 114.091 178.528 112.997 Z" transform="matrix(0.906308, -0.422618, 0.422618, 0.906308, -32.020773, 86.725918)" style="fill: rgb(255, 255, 255); line-height: normal; white-space: pre;"/>
          </g>
        </g>
        <g id="xtick_5">
          <g id="line2d_5">
            <g>
              <path d="M 0 0 L 0 3.5 " style="stroke-width: 0.8; stroke: rgb(255, 255, 255);" transform="matrix(1, 0, 0, 1, 214.09426879882812, 102.74268341064453)"/>
            </g>
          </g>
          <g id="text_5">
            <path d="M 167.3 114.008 Q 167.3 113.476 166.927 113.166 Q 166.553 112.856 165.56 112.577 Q 164.567 112.298 164.11 111.969 Q 163.459 111.503 163.459 110.747 Q 163.459 110.013 164.064 109.554 Q 164.668 109.095 165.608 109.095 Q 166.245 109.095 166.749 109.341 Q 167.252 109.587 167.529 110.026 Q 167.806 110.466 167.806 111.006 L 167.261 111.006 Q 167.261 110.352 166.812 109.954 Q 166.364 109.556 165.608 109.556 Q 164.874 109.556 164.439 109.883 Q 164.004 110.211 164.004 110.738 Q 164.004 111.226 164.395 111.534 Q 164.786 111.841 165.648 112.076 Q 166.509 112.311 166.953 112.564 Q 167.397 112.817 167.621 113.168 Q 167.845 113.52 167.845 113.999 Q 167.845 114.755 167.241 115.212 Q 166.637 115.669 165.648 115.669 Q 164.971 115.669 164.406 115.427 Q 163.842 115.185 163.549 114.75 Q 163.257 114.315 163.257 113.753 L 163.798 113.753 Q 163.798 114.43 164.303 114.821 Q 164.808 115.212 165.648 115.212 Q 166.395 115.212 166.848 114.882 Q 167.3 114.553 167.3 114.008 Z" transform="matrix(0.906308, -0.422618, 0.422618, 0.906308, -28.532658, 102.459787)" style="fill: rgb(255, 255, 255); line-height: normal; white-space: pre;"/>
            <path d="M 169.399 111.63 Q 169.659 111.204 170.063 110.971 Q 170.467 110.738 170.946 110.738 Q 171.711 110.738 172.084 111.169 Q 172.458 111.6 172.462 112.461 L 172.462 115.581 L 171.939 115.581 L 171.939 112.456 Q 171.935 111.819 171.669 111.507 Q 171.403 111.195 170.819 111.195 Q 170.331 111.195 169.955 111.501 Q 169.58 111.806 169.399 112.325 L 169.399 115.581 L 168.876 115.581 L 168.876 108.831 L 169.399 108.831 Z" transform="matrix(0.906308, -0.422618, 0.422618, 0.906308, -28.532658, 102.459787)" style="fill: rgb(255, 255, 255); line-height: normal; white-space: pre;"/>
            <path d="M 176.873 114.979 Q 176.398 115.669 175.357 115.669 Q 174.596 115.669 174.201 115.227 Q 173.805 114.786 173.796 113.92 L 173.796 110.826 L 174.319 110.826 L 174.319 113.854 Q 174.319 115.212 175.418 115.212 Q 176.561 115.212 176.864 114.267 L 176.864 110.826 L 177.391 110.826 L 177.391 115.581 L 176.881 115.581 Z" transform="matrix(0.906308, -0.422618, 0.422618, 0.906308, -28.532658, 102.459787)" style="fill: rgb(255, 255, 255); line-height: normal; white-space: pre;"/>
            <path d="M 179.137 115.581 L 179.137 111.257 L 178.351 111.257 L 178.351 110.826 L 179.137 110.826 L 179.137 110.25 Q 179.137 109.521 179.509 109.13 Q 179.88 108.739 180.544 108.739 Q 180.842 108.739 181.102 108.813 L 181.062 109.253 Q 180.842 109.2 180.583 109.2 Q 180.148 109.2 179.906 109.47 Q 179.665 109.741 179.665 110.237 L 179.665 110.826 L 181.691 110.826 L 181.691 110.22 Q 181.695 109.503 182.073 109.121 Q 182.451 108.739 183.123 108.739 Q 183.673 108.739 184.767 109.007 L 184.767 115.581 L 184.239 115.581 L 184.239 109.332 Q 183.589 109.2 183.158 109.2 Q 182.706 109.2 182.46 109.47 Q 182.214 109.741 182.214 110.237 L 182.214 110.826 L 183.352 110.826 L 183.352 111.257 L 182.214 111.257 L 182.214 115.581 L 181.691 115.581 L 181.691 111.257 L 179.665 111.257 L 179.665 115.581 Z" transform="matrix(0.906308, -0.422618, 0.422618, 0.906308, -28.532658, 102.459787)" style="fill: rgb(255, 255, 255); line-height: normal; white-space: pre;"/>
            <path d="M 188.046 115.669 Q 187.44 115.669 186.95 115.37 Q 186.46 115.071 186.187 114.537 Q 185.915 114.003 185.915 113.34 L 185.915 113.151 Q 185.915 112.465 186.181 111.916 Q 186.447 111.367 186.921 111.052 Q 187.396 110.738 187.95 110.738 Q 188.815 110.738 189.323 111.329 Q 189.83 111.92 189.83 112.944 L 189.83 113.239 L 186.438 113.239 L 186.438 113.34 Q 186.438 114.148 186.901 114.687 Q 187.365 115.225 188.068 115.225 Q 188.49 115.225 188.813 115.071 Q 189.136 114.917 189.4 114.579 L 189.729 114.83 Q 189.149 115.669 188.046 115.669 Z M 187.95 111.186 Q 187.356 111.186 186.95 111.622 Q 186.543 112.057 186.455 112.79 L 189.307 112.79 L 189.307 112.733 Q 189.286 112.048 188.916 111.617 Q 188.547 111.186 187.95 111.186 Z" transform="matrix(0.906308, -0.422618, 0.422618, 0.906308, -28.532658, 102.459787)" style="fill: rgb(255, 255, 255); line-height: normal; white-space: pre;"/>
            <path d="M 195.732 115.581 L 195.192 115.581 L 191.514 110.105 L 191.514 115.581 L 190.969 115.581 L 190.969 109.183 L 191.514 109.183 L 195.196 114.663 L 195.196 109.183 L 195.732 109.183 Z" transform="matrix(0.906308, -0.422618, 0.422618, 0.906308, -28.532658, 102.459787)" style="fill: rgb(255, 255, 255); line-height: normal; white-space: pre;"/>
            <path d="M 199.078 115.669 Q 198.471 115.669 197.981 115.37 Q 197.491 115.071 197.219 114.537 Q 196.946 114.003 196.946 113.34 L 196.946 113.151 Q 196.946 112.465 197.212 111.916 Q 197.478 111.367 197.953 111.052 Q 198.427 110.738 198.981 110.738 Q 199.847 110.738 200.354 111.329 Q 200.862 111.92 200.862 112.944 L 200.862 113.239 L 197.469 113.239 L 197.469 113.34 Q 197.469 114.148 197.933 114.687 Q 198.397 115.225 199.1 115.225 Q 199.522 115.225 199.845 115.071 Q 200.168 114.917 200.431 114.579 L 200.761 114.83 Q 200.181 115.669 199.078 115.669 Z M 198.981 111.186 Q 198.388 111.186 197.981 111.622 Q 197.575 112.057 197.487 112.79 L 200.339 112.79 L 200.339 112.733 Q 200.317 112.048 199.948 111.617 Q 199.579 111.186 198.981 111.186 Z" transform="matrix(0.906308, -0.422618, 0.422618, 0.906308, -28.532658, 102.459787)" style="fill: rgb(255, 255, 255); line-height: normal; white-space: pre;"/>
            <path d="M 202.702 109.609 L 202.702 110.826 L 203.687 110.826 L 203.687 111.257 L 202.702 111.257 L 202.702 114.425 Q 202.702 114.821 202.845 115.014 Q 202.988 115.207 203.322 115.207 Q 203.454 115.207 203.748 115.164 L 203.77 115.594 Q 203.564 115.669 203.208 115.669 Q 202.667 115.669 202.421 115.355 Q 202.175 115.04 202.175 114.43 L 202.175 111.257 L 201.301 111.257 L 201.301 110.826 L 202.175 110.826 L 202.175 109.609 Z" transform="matrix(0.906308, -0.422618, 0.422618, 0.906308, -28.532658, 102.459787)" style="fill: rgb(255, 255, 255); line-height: normal; white-space: pre;"/>
            <path d="M 209.015 114.79 L 209.051 114.926 L 209.09 114.79 L 211.103 109.183 L 211.696 109.183 L 209.314 115.581 L 208.796 115.581 L 206.414 109.183 L 207.003 109.183 Z" transform="matrix(0.906308, -0.422618, 0.422618, 0.906308, -28.532658, 102.459787)" style="fill: rgb(255, 255, 255); line-height: normal; white-space: pre;"/>
            <path d="M 216.435 115.581 L 212.427 115.581 L 212.427 115.177 L 214.62 112.689 Q 215.165 112.061 215.375 111.652 Q 215.586 111.244 215.586 110.857 Q 215.586 110.25 215.23 109.897 Q 214.875 109.543 214.25 109.543 Q 213.604 109.543 213.207 109.956 Q 212.809 110.369 212.809 111.028 L 212.286 111.028 Q 212.286 110.488 212.53 110.044 Q 212.774 109.6 213.224 109.347 Q 213.675 109.095 214.25 109.095 Q 215.129 109.095 215.624 109.556 Q 216.118 110.018 216.118 110.813 Q 216.118 111.261 215.839 111.793 Q 215.56 112.325 214.857 113.12 L 213.073 115.137 L 216.435 115.137 Z" transform="matrix(0.906308, -0.422618, 0.422618, 0.906308, -28.532658, 102.459787)" style="fill: rgb(255, 255, 255); line-height: normal; white-space: pre;"/>
          </g>
        </g>
        <g id="xtick_6">
          <g id="line2d_6">
            <g>
              <path d="M 0 0 L 0 3.5 " style="stroke-width: 0.8; stroke: rgb(255, 255, 255);" transform="matrix(1, 0, 0, 1, 251.3237762451172, 102.74268341064453)"/>
            </g>
          </g>
          <g id="text_6">
            <path d="M 230.797 115.581 L 230.257 115.581 L 226.579 110.105 L 226.579 115.581 L 226.034 115.581 L 226.034 109.183 L 226.579 109.183 L 230.261 114.663 L 230.261 109.183 L 230.797 109.183 Z" transform="matrix(0.906308, -0.422618, 0.422618, 0.906308, -25.044544, 118.193657)" style="fill: rgb(255, 255, 255); line-height: normal; white-space: pre;"/>
            <path d="M 234.135 115.669 Q 233.528 115.669 233.038 115.37 Q 232.548 115.071 232.276 114.537 Q 232.003 114.003 232.003 113.34 L 232.003 113.151 Q 232.003 112.465 232.269 111.916 Q 232.535 111.367 233.01 111.052 Q 233.484 110.738 234.038 110.738 Q 234.904 110.738 235.411 111.329 Q 235.919 111.92 235.919 112.944 L 235.919 113.239 L 232.526 113.239 L 232.526 113.34 Q 232.526 114.148 232.99 114.687 Q 233.454 115.225 234.157 115.225 Q 234.579 115.225 234.902 115.071 Q 235.225 114.917 235.488 114.579 L 235.818 114.83 Q 235.238 115.669 234.135 115.669 Z M 234.038 111.186 Q 233.445 111.186 233.038 111.622 Q 232.632 112.057 232.544 112.79 L 235.396 112.79 L 235.396 112.733 Q 235.374 112.048 235.005 111.617 Q 234.636 111.186 234.038 111.186 Z" transform="matrix(0.906308, -0.422618, 0.422618, 0.906308, -25.044544, 118.193657)" style="fill: rgb(255, 255, 255); line-height: normal; white-space: pre;"/>
            <path d="M 240.001 114.979 Q 239.526 115.669 238.485 115.669 Q 237.724 115.669 237.329 115.227 Q 236.933 114.786 236.924 113.92 L 236.924 110.826 L 237.447 110.826 L 237.447 113.854 Q 237.447 115.212 238.546 115.212 Q 239.689 115.212 239.992 114.267 L 239.992 110.826 L 240.519 110.826 L 240.519 115.581 L 240.009 115.581 Z" transform="matrix(0.906308, -0.422618, 0.422618, 0.906308, -25.044544, 118.193657)" style="fill: rgb(255, 255, 255); line-height: normal; white-space: pre;"/>
            <path d="M 242.719 109.183 L 245.079 114.83 L 247.448 109.183 L 248.168 109.183 L 248.168 115.581 L 247.628 115.581 L 247.628 112.795 L 247.672 109.938 L 245.29 115.581 L 244.872 115.581 L 242.499 109.96 L 242.543 112.777 L 242.543 115.581 L 242.003 115.581 L 242.003 109.183 Z" transform="matrix(0.906308, -0.422618, 0.422618, 0.906308, -25.044544, 118.193657)" style="fill: rgb(255, 255, 255); line-height: normal; white-space: pre;"/>
            <path d="M 253.309 112.593 L 250.325 112.593 L 250.325 115.581 L 249.784 115.581 L 249.784 109.183 L 253.748 109.183 L 253.748 109.644 L 250.325 109.644 L 250.325 112.131 L 253.309 112.131 Z" transform="matrix(0.906308, -0.422618, 0.422618, 0.906308, -25.044544, 118.193657)" style="fill: rgb(255, 255, 255); line-height: normal; white-space: pre;"/>
          </g>
        </g>
      </g>
      <g id="matplotlib.axis_2">
        <g id="ytick_1">
          <g id="line2d_7">
            <defs>
              <path id="m4c115ca45a" d="M 0 0 L -3.5 0 " style="stroke: #000000; stroke-width: 0.8"/>
            </defs>
            <g>
              <path d="M 0 0 L -3.5 0 " style="stroke-width: 0.8; stroke: rgb(255, 255, 255);" transform="matrix(1, 0, 0, 1, 44.70000076293945, 102.74268341064453)"/>
            </g>
          </g>
          <g id="text_7">
            <path d="M 30.035 103.297 Q 30.035 104.65 29.539 105.351 Q 29.042 106.052 28.075 106.052 Q 27.126 106.052 26.621 105.364 Q 26.115 104.676 26.102 103.362 L 26.102 102.215 Q 26.102 100.866 26.603 100.172 Q 27.104 99.478 28.066 99.478 Q 29.016 99.478 29.517 100.148 Q 30.018 100.818 30.035 102.123 Z M 29.508 102.15 Q 29.508 101.051 29.15 100.488 Q 28.792 99.926 28.066 99.926 Q 27.355 99.926 26.994 100.475 Q 26.634 101.025 26.625 102.097 L 26.625 103.354 Q 26.625 104.448 26.996 105.028 Q 27.368 105.608 28.075 105.608 Q 28.778 105.608 29.141 105.041 Q 29.503 104.474 29.508 103.38 Z" style="fill: rgb(255, 255, 255); line-height: normal; white-space: pre;"/>
            <path d="M 31.196 105.648 Q 31.196 105.494 31.295 105.386 Q 31.394 105.278 31.57 105.278 Q 31.746 105.278 31.847 105.386 Q 31.948 105.494 31.948 105.648 Q 31.948 105.801 31.847 105.9 Q 31.746 105.999 31.57 105.999 Q 31.394 105.999 31.295 105.9 Q 31.196 105.801 31.196 105.648 Z" style="fill: rgb(255, 255, 255); line-height: normal; white-space: pre;"/>
            <path d="M 37.16 103.297 Q 37.16 104.65 36.664 105.351 Q 36.167 106.052 35.2 106.052 Q 34.251 106.052 33.746 105.364 Q 33.24 104.676 33.227 103.362 L 33.227 102.215 Q 33.227 100.866 33.728 100.172 Q 34.229 99.478 35.192 99.478 Q 36.141 99.478 36.642 100.148 Q 37.143 100.818 37.16 102.123 Z M 36.633 102.15 Q 36.633 101.051 36.275 100.488 Q 35.917 99.926 35.192 99.926 Q 34.48 99.926 34.119 100.475 Q 33.759 101.025 33.75 102.097 L 33.75 103.354 Q 33.75 104.448 34.122 105.028 Q 34.493 105.608 35.2 105.608 Q 35.903 105.608 36.266 105.041 Q 36.629 104.474 36.633 103.38 Z" style="fill: rgb(255, 255, 255); line-height: normal; white-space: pre;"/>
          </g>
        </g>
        <g id="ytick_2">
          <g id="line2d_8">
            <g>
              <path d="M 0 0 L -3.5 0 " style="stroke-width: 0.8; stroke: rgb(255, 255, 255);" transform="matrix(1, 0, 0, 1, 44.70000076293945, 89.66873931884766)"/>
            </g>
          </g>
          <g id="text_8">
            <path d="M 30.035 90.222 Q 30.035 91.576 29.539 92.277 Q 29.042 92.978 28.075 92.978 Q 27.126 92.978 26.621 92.29 Q 26.115 91.602 26.102 90.288 L 26.102 89.141 Q 26.102 87.792 26.603 87.098 Q 27.104 86.403 28.066 86.403 Q 29.016 86.403 29.517 87.074 Q 30.018 87.744 30.035 89.049 Z M 29.508 89.075 Q 29.508 87.977 29.15 87.414 Q 28.792 86.852 28.066 86.852 Q 27.355 86.852 26.994 87.401 Q 26.634 87.95 26.625 89.023 L 26.625 90.279 Q 26.625 91.374 26.996 91.954 Q 27.368 92.534 28.075 92.534 Q 28.778 92.534 29.141 91.967 Q 29.503 91.4 29.508 90.306 Z" style="fill: rgb(255, 255, 255); line-height: normal; white-space: pre;"/>
            <path d="M 31.196 92.573 Q 31.196 92.42 31.295 92.312 Q 31.394 92.204 31.57 92.204 Q 31.746 92.204 31.847 92.312 Q 31.948 92.42 31.948 92.573 Q 31.948 92.727 31.847 92.826 Q 31.746 92.925 31.57 92.925 Q 31.394 92.925 31.295 92.826 Q 31.196 92.727 31.196 92.573 Z" style="fill: rgb(255, 255, 255); line-height: normal; white-space: pre;"/>
            <path d="M 37.31 92.89 L 33.302 92.89 L 33.302 92.486 L 35.495 89.998 Q 36.04 89.37 36.251 88.961 Q 36.462 88.552 36.462 88.166 Q 36.462 87.559 36.106 87.205 Q 35.75 86.852 35.126 86.852 Q 34.48 86.852 34.082 87.265 Q 33.684 87.678 33.684 88.337 L 33.161 88.337 Q 33.161 87.797 33.405 87.353 Q 33.649 86.909 34.1 86.656 Q 34.55 86.403 35.126 86.403 Q 36.005 86.403 36.499 86.865 Q 36.993 87.326 36.993 88.122 Q 36.993 88.57 36.714 89.102 Q 36.435 89.633 35.732 90.429 L 33.948 92.446 L 37.31 92.446 Z" style="fill: rgb(255, 255, 255); line-height: normal; white-space: pre;"/>
          </g>
        </g>
        <g id="ytick_3">
          <g id="line2d_9">
            <g>
              <path d="M 0 0 L -3.5 0 " style="stroke-width: 0.8; stroke: rgb(255, 255, 255);" transform="matrix(1, 0, 0, 1, 44.70000076293945, 76.59479522705078)"/>
            </g>
          </g>
          <g id="text_9">
            <path d="M 30.035 77.148 Q 30.035 78.502 29.539 79.203 Q 29.042 79.904 28.075 79.904 Q 27.126 79.904 26.621 79.216 Q 26.115 78.528 26.102 77.214 L 26.102 76.067 Q 26.102 74.718 26.603 74.024 Q 27.104 73.329 28.066 73.329 Q 29.016 73.329 29.517 74 Q 30.018 74.67 30.035 75.975 Z M 29.508 76.001 Q 29.508 74.903 29.15 74.34 Q 28.792 73.778 28.066 73.778 Q 27.355 73.778 26.994 74.327 Q 26.634 74.876 26.625 75.949 L 26.625 77.205 Q 26.625 78.3 26.996 78.88 Q 27.368 79.46 28.075 79.46 Q 28.778 79.46 29.141 78.893 Q 29.503 78.326 29.508 77.232 Z" style="fill: rgb(255, 255, 255); line-height: normal; white-space: pre;"/>
            <path d="M 31.196 79.499 Q 31.196 79.346 31.295 79.238 Q 31.394 79.13 31.57 79.13 Q 31.746 79.13 31.847 79.238 Q 31.948 79.346 31.948 79.499 Q 31.948 79.653 31.847 79.752 Q 31.746 79.851 31.57 79.851 Q 31.394 79.851 31.295 79.752 Q 31.196 79.653 31.196 79.499 Z" style="fill: rgb(255, 255, 255); line-height: normal; white-space: pre;"/>
            <path d="M 36.532 77.755 L 37.529 77.755 L 37.529 78.199 L 36.532 78.199 L 36.532 79.816 L 36.005 79.816 L 36.005 78.199 L 32.994 78.199 L 32.994 77.9 L 35.956 73.417 L 36.532 73.417 Z M 33.64 77.755 L 36.005 77.755 L 36.005 74.099 L 35.772 74.503 Z" style="fill: rgb(255, 255, 255); line-height: normal; white-space: pre;"/>
          </g>
        </g>
        <g id="ytick_4">
          <g id="line2d_10">
            <g>
              <path d="M 0 0 L -3.5 0 " style="stroke-width: 0.8; stroke: rgb(255, 255, 255);" transform="matrix(1, 0, 0, 1, 44.70000076293945, 63.52085494995117)"/>
            </g>
          </g>
          <g id="text_10">
            <path d="M 30.035 64.074 Q 30.035 65.428 29.539 66.129 Q 29.042 66.83 28.075 66.83 Q 27.126 66.83 26.621 66.142 Q 26.115 65.454 26.102 64.14 L 26.102 62.993 Q 26.102 61.644 26.603 60.95 Q 27.104 60.256 28.066 60.256 Q 29.016 60.256 29.517 60.926 Q 30.018 61.596 30.035 62.901 Z M 29.508 62.927 Q 29.508 61.829 29.15 61.266 Q 28.792 60.704 28.066 60.704 Q 27.355 60.704 26.994 61.253 Q 26.634 61.802 26.625 62.875 L 26.625 64.132 Q 26.625 65.226 26.996 65.806 Q 27.368 66.386 28.075 66.386 Q 28.778 66.386 29.141 65.819 Q 29.503 65.252 29.508 64.158 Z" style="fill: rgb(255, 255, 255); line-height: normal; white-space: pre;"/>
            <path d="M 31.196 66.425 Q 31.196 66.272 31.295 66.164 Q 31.394 66.056 31.57 66.056 Q 31.746 66.056 31.847 66.164 Q 31.948 66.272 31.948 66.425 Q 31.948 66.579 31.847 66.678 Q 31.746 66.777 31.57 66.777 Q 31.394 66.777 31.295 66.678 Q 31.196 66.579 31.196 66.425 Z" style="fill: rgb(255, 255, 255); line-height: normal; white-space: pre;"/>
            <path d="M 36.404 60.295 L 36.404 60.757 L 36.343 60.757 Q 35.196 60.757 34.537 61.431 Q 33.878 62.106 33.807 63.305 Q 34.071 62.941 34.48 62.741 Q 34.888 62.541 35.394 62.541 Q 36.237 62.541 36.736 63.123 Q 37.235 63.705 37.235 64.646 Q 37.235 65.27 37.002 65.771 Q 36.769 66.272 36.334 66.551 Q 35.899 66.83 35.341 66.83 Q 34.423 66.83 33.847 66.164 Q 33.271 65.498 33.271 64.444 L 33.271 63.916 Q 33.271 62.198 34.053 61.255 Q 34.836 60.313 36.273 60.295 Z M 35.31 62.993 Q 34.809 62.993 34.376 63.29 Q 33.944 63.587 33.799 64.044 L 33.799 64.492 Q 33.799 65.327 34.227 65.854 Q 34.655 66.382 35.341 66.382 Q 35.956 66.382 36.336 65.894 Q 36.716 65.406 36.716 64.663 Q 36.716 63.907 36.336 63.45 Q 35.956 62.993 35.31 62.993 Z" style="fill: rgb(255, 255, 255); line-height: normal; white-space: pre;"/>
          </g>
        </g>
        <g id="ytick_5">
          <g id="line2d_11">
            <g>
              <path d="M 0 0 L -3.5 0 " style="stroke-width: 0.8; stroke: rgb(255, 255, 255);" transform="matrix(1, 0, 0, 1, 44.70000076293945, 50.44691467285156)"/>
            </g>
          </g>
          <g id="text_11">
            <path d="M 30.035 51 Q 30.035 52.354 29.539 53.055 Q 29.042 53.756 28.075 53.756 Q 27.126 53.756 26.621 53.068 Q 26.115 52.38 26.102 51.066 L 26.102 49.919 Q 26.102 48.57 26.603 47.876 Q 27.104 47.182 28.066 47.182 Q 29.016 47.182 29.517 47.852 Q 30.018 48.522 30.035 49.827 Z M 29.508 49.853 Q 29.508 48.755 29.15 48.192 Q 28.792 47.63 28.066 47.63 Q 27.355 47.63 26.994 48.179 Q 26.634 48.728 26.625 49.801 L 26.625 51.058 Q 26.625 52.152 26.996 52.732 Q 27.368 53.312 28.075 53.312 Q 28.778 53.312 29.141 52.745 Q 29.503 52.178 29.508 51.084 Z" style="fill: rgb(255, 255, 255); line-height: normal; white-space: pre;"/>
            <path d="M 31.196 53.351 Q 31.196 53.198 31.295 53.09 Q 31.394 52.982 31.57 52.982 Q 31.746 52.982 31.847 53.09 Q 31.948 53.198 31.948 53.351 Q 31.948 53.505 31.847 53.604 Q 31.746 53.703 31.57 53.703 Q 31.394 53.703 31.295 53.604 Q 31.196 53.505 31.196 53.351 Z" style="fill: rgb(255, 255, 255); line-height: normal; white-space: pre;"/>
            <path d="M 37.072 48.917 Q 37.072 49.414 36.782 49.807 Q 36.492 50.201 36.018 50.385 Q 36.571 50.574 36.905 50.996 Q 37.239 51.418 37.239 51.972 Q 37.239 52.793 36.681 53.275 Q 36.123 53.756 35.205 53.756 Q 34.278 53.756 33.722 53.277 Q 33.166 52.798 33.166 51.972 Q 33.166 51.427 33.487 51 Q 33.807 50.574 34.365 50.385 Q 33.891 50.201 33.61 49.807 Q 33.328 49.414 33.328 48.917 Q 33.328 48.122 33.84 47.652 Q 34.352 47.182 35.196 47.182 Q 36.04 47.182 36.556 47.656 Q 37.072 48.131 37.072 48.917 Z M 36.712 51.976 Q 36.712 51.378 36.286 50.994 Q 35.86 50.609 35.196 50.609 Q 34.532 50.609 34.111 50.987 Q 33.689 51.365 33.689 51.976 Q 33.689 52.587 34.097 52.949 Q 34.506 53.312 35.205 53.312 Q 35.886 53.312 36.299 52.952 Q 36.712 52.591 36.712 51.976 Z M 36.545 48.913 Q 36.545 48.364 36.165 47.997 Q 35.785 47.63 35.196 47.63 Q 34.598 47.63 34.227 47.984 Q 33.856 48.337 33.856 48.913 Q 33.856 49.476 34.227 49.818 Q 34.598 50.161 35.2 50.161 Q 35.794 50.161 36.169 49.816 Q 36.545 49.471 36.545 48.913 Z" style="fill: rgb(255, 255, 255); line-height: normal; white-space: pre;"/>
          </g>
        </g>
        <g id="ytick_6">
          <g id="line2d_12">
            <g>
              <path d="M 0 0 L -3.5 0 " style="stroke-width: 0.8; stroke: rgb(255, 255, 255);" transform="matrix(1, 0, 0, 1, 44.70000076293945, 37.37297058105469)"/>
            </g>
          </g>
          <g id="text_12">
            <path d="M 28.625 40.594 L 28.097 40.594 L 28.097 34.828 L 26.357 35.474 L 26.357 34.982 L 28.537 34.174 L 28.625 34.174 Z" style="fill: rgb(255, 255, 255); line-height: normal; white-space: pre;"/>
            <path d="M 31.196 40.278 Q 31.196 40.124 31.295 40.016 Q 31.394 39.908 31.57 39.908 Q 31.746 39.908 31.847 40.016 Q 31.948 40.124 31.948 40.278 Q 31.948 40.431 31.847 40.53 Q 31.746 40.629 31.57 40.629 Q 31.394 40.629 31.295 40.53 Q 31.196 40.431 31.196 40.278 Z" style="fill: rgb(255, 255, 255); line-height: normal; white-space: pre;"/>
            <path d="M 37.16 37.927 Q 37.16 39.28 36.664 39.981 Q 36.167 40.682 35.2 40.682 Q 34.251 40.682 33.746 39.994 Q 33.24 39.306 33.227 37.992 L 33.227 36.845 Q 33.227 35.496 33.728 34.802 Q 34.229 34.108 35.192 34.108 Q 36.141 34.108 36.642 34.778 Q 37.143 35.448 37.16 36.753 Z M 36.633 36.78 Q 36.633 35.681 36.275 35.118 Q 35.917 34.556 35.192 34.556 Q 34.48 34.556 34.119 35.105 Q 33.759 35.655 33.75 36.727 L 33.75 37.984 Q 33.75 39.078 34.122 39.658 Q 34.493 40.238 35.2 40.238 Q 35.903 40.238 36.266 39.671 Q 36.629 39.104 36.633 38.01 Z" style="fill: rgb(255, 255, 255); line-height: normal; white-space: pre;"/>
          </g>
        </g>
        <g id="text_13">
          <path d="M 5.572 0 L 5.032 0 L 1.354 -5.476 L 1.354 0 L 0.809 0 L 0.809 -6.398 L 1.354 -6.398 L 5.036 -0.918 L 5.036 -6.398 L 5.572 -6.398 Z" transform="matrix(0, -1, 1, 0, 17.539501, 119.309967)" style="fill: rgb(255, 255, 255); line-height: normal; white-space: pre;"/>
          <path d="M 6.778 -2.448 Q 6.778 -3.133 7.044 -3.683 Q 7.31 -4.232 7.796 -4.537 Q 8.281 -4.843 8.897 -4.843 Q 9.846 -4.843 10.435 -4.177 Q 11.024 -3.511 11.024 -2.413 L 11.024 -2.303 Q 11.024 -1.613 10.758 -1.061 Q 10.492 -0.51 10.008 -0.211 Q 9.525 0.088 8.905 0.088 Q 7.961 0.088 7.37 -0.578 Q 6.778 -1.244 6.778 -2.342 Z M 7.306 -2.303 Q 7.306 -1.45 7.747 -0.903 Q 8.189 -0.356 8.905 -0.356 Q 9.617 -0.356 10.059 -0.903 Q 10.501 -1.45 10.501 -2.347 L 10.501 -2.448 Q 10.501 -2.993 10.298 -3.445 Q 10.096 -3.898 9.732 -4.146 Q 9.367 -4.395 8.897 -4.395 Q 8.194 -4.395 7.75 -3.843 Q 7.306 -3.292 7.306 -2.399 Z" transform="matrix(0, -1, 1, 0, 17.539501, 119.309967)" style="fill: rgb(255, 255, 255); line-height: normal; white-space: pre;"/>
          <path d="M 14.305 -4.307 Q 14.138 -4.337 13.949 -4.337 Q 13.457 -4.337 13.116 -4.063 Q 12.776 -3.788 12.631 -3.265 L 12.631 0 L 12.108 0 L 12.108 -4.755 L 12.622 -4.755 L 12.631 -3.999 Q 13.048 -4.843 13.971 -4.843 Q 14.191 -4.843 14.318 -4.786 Z" transform="matrix(0, -1, 1, 0, 17.539501, 119.309967)" style="fill: rgb(255, 255, 255); line-height: normal; white-space: pre;"/>
          <path d="M 15.61 -4.755 L 15.628 -3.981 Q 15.891 -4.412 16.287 -4.627 Q 16.682 -4.843 17.166 -4.843 Q 18.291 -4.843 18.594 -3.92 Q 18.849 -4.364 19.275 -4.603 Q 19.702 -4.843 20.216 -4.843 Q 21.745 -4.843 21.776 -3.173 L 21.776 0 L 21.248 0 L 21.248 -3.133 Q 21.244 -3.771 20.974 -4.078 Q 20.703 -4.386 20.093 -4.386 Q 19.526 -4.377 19.135 -4.019 Q 18.743 -3.661 18.7 -3.146 L 18.7 0 L 18.172 0 L 18.172 -3.173 Q 18.168 -3.784 17.884 -4.085 Q 17.601 -4.386 17.012 -4.386 Q 16.515 -4.386 16.16 -4.102 Q 15.804 -3.819 15.632 -3.261 L 15.632 0 L 15.105 0 L 15.105 -4.755 Z" transform="matrix(0, -1, 1, 0, 17.539501, 119.309967)" style="fill: rgb(255, 255, 255); line-height: normal; white-space: pre;"/>
          <path d="M 26.102 0 Q 26.022 -0.224 26.001 -0.664 Q 25.724 -0.303 25.295 -0.108 Q 24.867 0.088 24.388 0.088 Q 23.702 0.088 23.278 -0.294 Q 22.854 -0.677 22.854 -1.261 Q 22.854 -1.956 23.432 -2.36 Q 24.01 -2.764 25.043 -2.764 L 25.996 -2.764 L 25.996 -3.305 Q 25.996 -3.814 25.682 -4.107 Q 25.368 -4.399 24.766 -4.399 Q 24.216 -4.399 23.856 -4.118 Q 23.496 -3.836 23.496 -3.441 L 22.968 -3.445 Q 22.968 -4.012 23.496 -4.427 Q 24.023 -4.843 24.792 -4.843 Q 25.587 -4.843 26.047 -4.445 Q 26.506 -4.047 26.519 -3.335 L 26.519 -1.085 Q 26.519 -0.396 26.664 -0.053 L 26.664 0 Z M 24.449 -0.378 Q 24.977 -0.378 25.392 -0.633 Q 25.807 -0.888 25.996 -1.314 L 25.996 -2.36 L 25.056 -2.36 Q 24.269 -2.351 23.825 -2.072 Q 23.381 -1.793 23.381 -1.305 Q 23.381 -0.905 23.678 -0.642 Q 23.975 -0.378 24.449 -0.378 Z" transform="matrix(0, -1, 1, 0, 17.539501, 119.309967)" style="fill: rgb(255, 255, 255); line-height: normal; white-space: pre;"/>
          <path d="M 28.509 0 L 27.982 0 L 27.982 -6.75 L 28.509 -6.75 Z" transform="matrix(0, -1, 1, 0, 17.539501, 119.309967)" style="fill: rgb(255, 255, 255); line-height: normal; white-space: pre;"/>
          <path d="M 30.525 0 L 29.998 0 L 29.998 -4.755 L 30.525 -4.755 Z M 29.905 -6.13 Q 29.905 -6.28 30.002 -6.383 Q 30.099 -6.486 30.266 -6.486 Q 30.433 -6.486 30.532 -6.383 Q 30.631 -6.28 30.631 -6.13 Q 30.631 -5.981 30.532 -5.88 Q 30.433 -5.779 30.266 -5.779 Q 30.099 -5.779 30.002 -5.88 Q 29.905 -5.981 29.905 -6.13 Z" transform="matrix(0, -1, 1, 0, 17.539501, 119.309967)" style="fill: rgb(255, 255, 255); line-height: normal; white-space: pre;"/>
          <path d="M 32.299 -0.444 L 35.388 -0.444 L 35.388 0 L 31.649 0 L 31.649 -0.387 L 34.531 -4.302 L 31.737 -4.302 L 31.737 -4.755 L 35.195 -4.755 L 35.195 -4.364 Z" transform="matrix(0, -1, 1, 0, 17.539501, 119.309967)" style="fill: rgb(255, 255, 255); line-height: normal; white-space: pre;"/>
          <path d="M 38.098 0.088 Q 37.492 0.088 37.002 -0.211 Q 36.512 -0.51 36.239 -1.044 Q 35.967 -1.578 35.967 -2.241 L 35.967 -2.43 Q 35.967 -3.116 36.233 -3.665 Q 36.498 -4.214 36.973 -4.529 Q 37.448 -4.843 38.001 -4.843 Q 38.867 -4.843 39.375 -4.252 Q 39.882 -3.661 39.882 -2.637 L 39.882 -2.342 L 36.49 -2.342 L 36.49 -2.241 Q 36.49 -1.433 36.953 -0.894 Q 37.417 -0.356 38.12 -0.356 Q 38.542 -0.356 38.865 -0.51 Q 39.188 -0.664 39.451 -1.002 L 39.781 -0.751 Q 39.201 0.088 38.098 0.088 Z M 38.001 -4.395 Q 37.408 -4.395 37.002 -3.959 Q 36.595 -3.524 36.507 -2.791 L 39.359 -2.791 L 39.359 -2.848 Q 39.337 -3.533 38.968 -3.964 Q 38.599 -4.395 38.001 -4.395 Z" transform="matrix(0, -1, 1, 0, 17.539501, 119.309967)" style="fill: rgb(255, 255, 255); line-height: normal; white-space: pre;"/>
          <path d="M 40.694 -2.421 Q 40.694 -3.529 41.189 -4.186 Q 41.683 -4.843 42.531 -4.843 Q 43.494 -4.843 43.999 -4.083 L 43.999 -6.75 L 44.522 -6.75 L 44.522 0 L 44.03 0 L 44.008 -0.633 Q 43.502 0.088 42.522 0.088 Q 41.701 0.088 41.197 -0.573 Q 40.694 -1.235 40.694 -2.36 Z M 41.226 -2.329 Q 41.226 -1.419 41.591 -0.894 Q 41.956 -0.369 42.619 -0.369 Q 43.59 -0.369 43.999 -1.226 L 43.999 -3.458 Q 43.59 -4.386 42.628 -4.386 Q 41.964 -4.386 41.595 -3.865 Q 41.226 -3.344 41.226 -2.329 Z" transform="matrix(0, -1, 1, 0, 17.539501, 119.309967)" style="fill: rgb(255, 255, 255); line-height: normal; white-space: pre;"/>
          <path d="M 51.749 -3.067 L 48.756 -3.067 L 48.756 -0.457 L 52.197 -0.457 L 52.197 0 L 48.216 0 L 48.216 -6.398 L 52.175 -6.398 L 52.175 -5.937 L 48.756 -5.937 L 48.756 -3.524 L 51.749 -3.524 Z" transform="matrix(0, -1, 1, 0, 17.539501, 119.309967)" style="fill: rgb(255, 255, 255); line-height: normal; white-space: pre;"/>
          <path d="M 53.711 -4.755 L 53.729 -3.942 Q 53.997 -4.381 54.397 -4.612 Q 54.797 -4.843 55.28 -4.843 Q 56.045 -4.843 56.418 -4.412 Q 56.792 -3.981 56.796 -3.12 L 56.796 0 L 56.273 0 L 56.273 -3.125 Q 56.269 -3.762 56.003 -4.074 Q 55.737 -4.386 55.153 -4.386 Q 54.665 -4.386 54.289 -4.08 Q 53.913 -3.775 53.733 -3.256 L 53.733 0 L 53.21 0 L 53.21 -4.755 Z" transform="matrix(0, -1, 1, 0, 17.539501, 119.309967)" style="fill: rgb(255, 255, 255); line-height: normal; white-space: pre;"/>
          <path d="M 59.989 0.088 Q 59.383 0.088 58.893 -0.211 Q 58.403 -0.51 58.13 -1.044 Q 57.858 -1.578 57.858 -2.241 L 57.858 -2.43 Q 57.858 -3.116 58.124 -3.665 Q 58.389 -4.214 58.864 -4.529 Q 59.339 -4.843 59.892 -4.843 Q 60.758 -4.843 61.266 -4.252 Q 61.773 -3.661 61.773 -2.637 L 61.773 -2.342 L 58.381 -2.342 L 58.381 -2.241 Q 58.381 -1.433 58.844 -0.894 Q 59.308 -0.356 60.011 -0.356 Q 60.433 -0.356 60.756 -0.51 Q 61.079 -0.664 61.343 -1.002 L 61.672 -0.751 Q 61.092 0.088 59.989 0.088 Z M 59.892 -4.395 Q 59.299 -4.395 58.893 -3.959 Q 58.486 -3.524 58.398 -2.791 L 61.25 -2.791 L 61.25 -2.848 Q 61.228 -3.533 60.859 -3.964 Q 60.49 -4.395 59.892 -4.395 Z" transform="matrix(0, -1, 1, 0, 17.539501, 119.309967)" style="fill: rgb(255, 255, 255); line-height: normal; white-space: pre;"/>
          <path d="M 64.994 -4.307 Q 64.827 -4.337 64.638 -4.337 Q 64.145 -4.337 63.805 -4.063 Q 63.464 -3.788 63.319 -3.265 L 63.319 0 L 62.796 0 L 62.796 -4.755 L 63.311 -4.755 L 63.319 -3.999 Q 63.737 -4.843 64.66 -4.843 Q 64.879 -4.843 65.007 -4.786 Z" transform="matrix(0, -1, 1, 0, 17.539501, 119.309967)" style="fill: rgb(255, 255, 255); line-height: normal; white-space: pre;"/>
          <path d="M 65.531 -2.421 Q 65.531 -3.538 66.025 -4.19 Q 66.52 -4.843 67.368 -4.843 Q 68.339 -4.843 68.844 -4.069 L 68.871 -4.755 L 69.363 -4.755 L 69.363 -0.097 Q 69.363 0.822 68.849 1.358 Q 68.334 1.894 67.456 1.894 Q 66.959 1.894 66.509 1.672 Q 66.058 1.45 65.799 1.081 L 66.093 0.765 Q 66.651 1.45 67.42 1.45 Q 68.08 1.45 68.449 1.061 Q 68.818 0.672 68.831 -0.018 L 68.831 -0.615 Q 68.326 0.088 67.359 0.088 Q 66.533 0.088 66.032 -0.571 Q 65.531 -1.23 65.531 -2.351 Z M 66.063 -2.329 Q 66.063 -1.419 66.427 -0.894 Q 66.792 -0.369 67.456 -0.369 Q 68.427 -0.369 68.831 -1.239 L 68.831 -3.45 Q 68.647 -3.907 68.299 -4.146 Q 67.952 -4.386 67.464 -4.386 Q 66.801 -4.386 66.432 -3.865 Q 66.063 -3.344 66.063 -2.329 Z" transform="matrix(0, -1, 1, 0, 17.539501, 119.309967)" style="fill: rgb(255, 255, 255); line-height: normal; white-space: pre;"/>
          <path d="M 72.234 -0.756 L 73.622 -4.755 L 74.189 -4.755 L 72.159 0.809 L 72.053 1.055 Q 71.662 1.92 70.845 1.92 Q 70.656 1.92 70.441 1.859 L 70.436 1.424 L 70.709 1.45 Q 71.095 1.45 71.335 1.259 Q 71.574 1.068 71.741 0.602 L 71.974 -0.04 L 70.181 -4.755 L 70.757 -4.755 Z" transform="matrix(0, -1, 1, 0, 17.539501, 119.309967)" style="fill: rgb(255, 255, 255); line-height: normal; white-space: pre;"/>
          <path d="M 81.718 -6.398 L 81.718 -2.03 Q 81.714 -1.384 81.432 -0.905 Q 81.151 -0.426 80.639 -0.169 Q 80.127 0.088 79.464 0.088 Q 78.453 0.088 77.844 -0.464 Q 77.236 -1.015 77.214 -1.991 L 77.214 -6.398 L 77.75 -6.398 L 77.75 -2.07 Q 77.75 -1.261 78.211 -0.815 Q 78.673 -0.369 79.464 -0.369 Q 80.255 -0.369 80.714 -0.817 Q 81.173 -1.266 81.173 -2.065 L 81.173 -6.398 Z" transform="matrix(0, -1, 1, 0, 17.539501, 119.309967)" style="fill: rgb(255, 255, 255); line-height: normal; white-space: pre;"/>
          <path d="M 85.949 -1.208 Q 85.949 -1.6 85.635 -1.837 Q 85.321 -2.074 84.688 -2.208 Q 84.055 -2.342 83.706 -2.516 Q 83.356 -2.689 83.187 -2.94 Q 83.018 -3.19 83.018 -3.546 Q 83.018 -4.109 83.488 -4.476 Q 83.958 -4.843 84.692 -4.843 Q 85.488 -4.843 85.969 -4.449 Q 86.45 -4.056 86.45 -3.423 L 85.923 -3.423 Q 85.923 -3.841 85.573 -4.118 Q 85.224 -4.395 84.692 -4.395 Q 84.174 -4.395 83.86 -4.164 Q 83.545 -3.933 83.545 -3.564 Q 83.545 -3.208 83.807 -3.012 Q 84.068 -2.817 84.76 -2.654 Q 85.453 -2.492 85.798 -2.307 Q 86.143 -2.123 86.31 -1.863 Q 86.476 -1.604 86.476 -1.235 Q 86.476 -0.633 85.991 -0.272 Q 85.505 0.088 84.723 0.088 Q 83.893 0.088 83.376 -0.314 Q 82.86 -0.716 82.86 -1.332 L 83.387 -1.332 Q 83.418 -0.87 83.776 -0.613 Q 84.134 -0.356 84.723 -0.356 Q 85.272 -0.356 85.611 -0.598 Q 85.949 -0.839 85.949 -1.208 Z" transform="matrix(0, -1, 1, 0, 17.539501, 119.309967)" style="fill: rgb(255, 255, 255); line-height: normal; white-space: pre;"/>
          <path d="M 90.658 0 Q 90.579 -0.224 90.557 -0.664 Q 90.28 -0.303 89.851 -0.108 Q 89.423 0.088 88.944 0.088 Q 88.258 0.088 87.834 -0.294 Q 87.41 -0.677 87.41 -1.261 Q 87.41 -1.956 87.988 -2.36 Q 88.566 -2.764 89.599 -2.764 L 90.552 -2.764 L 90.552 -3.305 Q 90.552 -3.814 90.238 -4.107 Q 89.924 -4.399 89.322 -4.399 Q 88.772 -4.399 88.412 -4.118 Q 88.052 -3.836 88.052 -3.441 L 87.524 -3.445 Q 87.524 -4.012 88.052 -4.427 Q 88.579 -4.843 89.348 -4.843 Q 90.144 -4.843 90.603 -4.445 Q 91.062 -4.047 91.075 -3.335 L 91.075 -1.085 Q 91.075 -0.396 91.22 -0.053 L 91.22 0 Z M 89.005 -0.378 Q 89.533 -0.378 89.948 -0.633 Q 90.363 -0.888 90.552 -1.314 L 90.552 -2.36 L 89.612 -2.36 Q 88.825 -2.351 88.381 -2.072 Q 87.938 -1.793 87.938 -1.305 Q 87.938 -0.905 88.234 -0.642 Q 88.531 -0.378 89.005 -0.378 Z" transform="matrix(0, -1, 1, 0, 17.539501, 119.309967)" style="fill: rgb(255, 255, 255); line-height: normal; white-space: pre;"/>
          <path d="M 92.266 -2.421 Q 92.266 -3.538 92.76 -4.19 Q 93.255 -4.843 94.103 -4.843 Q 95.074 -4.843 95.579 -4.069 L 95.606 -4.755 L 96.098 -4.755 L 96.098 -0.097 Q 96.098 0.822 95.584 1.358 Q 95.069 1.894 94.191 1.894 Q 93.694 1.894 93.244 1.672 Q 92.793 1.45 92.534 1.081 L 92.828 0.765 Q 93.386 1.45 94.155 1.45 Q 94.815 1.45 95.184 1.061 Q 95.553 0.672 95.566 -0.018 L 95.566 -0.615 Q 95.061 0.088 94.094 0.088 Q 93.268 0.088 92.767 -0.571 Q 92.266 -1.23 92.266 -2.351 Z M 92.798 -2.329 Q 92.798 -1.419 93.162 -0.894 Q 93.527 -0.369 94.191 -0.369 Q 95.162 -0.369 95.566 -1.239 L 95.566 -3.45 Q 95.381 -3.907 95.034 -4.146 Q 94.687 -4.386 94.199 -4.386 Q 93.536 -4.386 93.167 -3.865 Q 92.798 -3.344 92.798 -2.329 Z" transform="matrix(0, -1, 1, 0, 17.539501, 119.309967)" style="fill: rgb(255, 255, 255); line-height: normal; white-space: pre;"/>
          <path d="M 99.303 0.088 Q 98.696 0.088 98.206 -0.211 Q 97.716 -0.51 97.444 -1.044 Q 97.171 -1.578 97.171 -2.241 L 97.171 -2.43 Q 97.171 -3.116 97.437 -3.665 Q 97.703 -4.214 98.178 -4.529 Q 98.652 -4.843 99.206 -4.843 Q 100.072 -4.843 100.579 -4.252 Q 101.087 -3.661 101.087 -2.637 L 101.087 -2.342 L 97.694 -2.342 L 97.694 -2.241 Q 97.694 -1.433 98.158 -0.894 Q 98.621 -0.356 99.324 -0.356 Q 99.746 -0.356 100.069 -0.51 Q 100.392 -0.664 100.656 -1.002 L 100.986 -0.751 Q 100.406 0.088 99.303 0.088 Z M 99.206 -4.395 Q 98.613 -4.395 98.206 -3.959 Q 97.8 -3.524 97.712 -2.791 L 100.564 -2.791 L 100.564 -2.848 Q 100.542 -3.533 100.173 -3.964 Q 99.803 -4.395 99.206 -4.395 Z" transform="matrix(0, -1, 1, 0, 17.539501, 119.309967)" style="fill: rgb(255, 255, 255); line-height: normal; white-space: pre;"/>
        </g>
      </g>
      <g id="LineCollection_1">
        <path d="M 46.115 37.373 L 275.803 37.373" clip-path="url(#pb488feb850)" style="fill: none; stroke-dasharray: 1.5, 2.475; stroke-dashoffset: 0; stroke: rgb(255, 255, 255);"/>
      </g>
      <g id="patch_21">
        <path d="M 44.7 102.74268 L 44.7 30.836 " style="fill: none; stroke-width: 0.8; stroke-linejoin: miter; stroke-linecap: square; stroke: rgb(255, 255, 255);"/>
      </g>
      <g id="patch_22">
        <path d="M 271.8 102.74268 L 271.8 30.836 " style="fill: none; stroke-width: 0.8; stroke-linejoin: miter; stroke-linecap: square; stroke: rgb(255, 255, 255);"/>
      </g>
      <g id="patch_23">
        <path d="M 44.7 102.74268 L 271.8 102.74268 " style="fill: none; stroke-width: 0.8; stroke-linejoin: miter; stroke-linecap: square; stroke: rgb(255, 255, 255);"/>
      </g>
      <g id="patch_24">
        <path d="M 44.7 30.836 L 271.8 30.836 " style="fill: none; stroke-width: 0.8; stroke-linejoin: miter; stroke-linecap: square; stroke: rgb(255, 255, 255);"/>
      </g>
      <g id="legend_1">
        <g id="patch_25">
          <path d="M 46.3 27.240666 L 225.00625 27.240666 Q 226.60625 27.240666 226.60625 25.640666 L 226.60625 3.603166 Q 226.60625 2.003166 225.00625 2.003166 L 46.3 2.003166 Q 44.7 2.003166 44.7 3.603166 L 44.7 25.640666 Q 44.7 27.240666 46.3 27.240666 z " style="opacity: 0.8; stroke: rgb(204, 204, 204); stroke-linejoin: miter; fill: rgba(255, 255, 255, 0);"/>
        </g>
        <g id="line2d_13">
          <path d="M 47.9 8.231916 L 63.9 8.231916 " style="fill: none; stroke-dasharray: 1.5, 2.475; stroke-dashoffset: 0; stroke: rgb(255, 255, 255);"/>
        </g>
        <g id="text_14">
          <path d="M 71.019 11.032 L 71.019 5.344 L 72.698 5.344 Q 73.613 5.344 74.085 5.721 Q 74.558 6.098 74.558 6.833 Q 74.558 7.274 74.318 7.6 Q 74.077 7.926 73.659 8.067 Q 74.155 8.176 74.458 8.555 Q 74.761 8.934 74.761 9.43 Q 74.761 10.184 74.275 10.608 Q 73.788 11.032 72.921 11.032 Z M 71.499 8.298 L 71.499 10.626 L 72.941 10.626 Q 73.558 10.626 73.919 10.311 Q 74.28 9.997 74.28 9.438 Q 74.28 8.911 73.935 8.604 Q 73.589 8.298 72.98 8.298 Z M 71.499 7.895 L 72.812 7.895 Q 73.413 7.883 73.743 7.612 Q 74.073 7.34 74.073 6.821 Q 74.073 6.274 73.732 6.014 Q 73.39 5.755 72.698 5.755 L 71.499 5.755 Z" style="fill: rgb(255, 255, 255); line-height: normal; white-space: pre;"/>
          <path d="M 78.476 11.032 Q 78.406 10.833 78.386 10.442 Q 78.14 10.762 77.759 10.936 Q 77.378 11.11 76.952 11.11 Q 76.343 11.11 75.966 10.77 Q 75.589 10.43 75.589 9.911 Q 75.589 9.294 76.103 8.934 Q 76.617 8.575 77.534 8.575 L 78.382 8.575 L 78.382 8.094 Q 78.382 7.641 78.103 7.382 Q 77.824 7.122 77.288 7.122 Q 76.8 7.122 76.48 7.372 Q 76.159 7.622 76.159 7.973 L 75.691 7.969 Q 75.691 7.465 76.159 7.096 Q 76.628 6.727 77.312 6.727 Q 78.019 6.727 78.427 7.081 Q 78.835 7.434 78.847 8.067 L 78.847 10.067 Q 78.847 10.68 78.976 10.985 L 78.976 11.032 Z M 77.007 10.696 Q 77.476 10.696 77.845 10.469 Q 78.214 10.243 78.382 9.864 L 78.382 8.934 L 77.546 8.934 Q 76.847 8.942 76.452 9.19 Q 76.058 9.438 76.058 9.872 Q 76.058 10.227 76.322 10.462 Q 76.585 10.696 77.007 10.696 Z" style="fill: rgb(255, 255, 255); line-height: normal; white-space: pre;"/>
          <path d="M 82.621 9.958 Q 82.621 9.61 82.341 9.399 Q 82.062 9.188 81.499 9.069 Q 80.937 8.95 80.626 8.796 Q 80.316 8.641 80.165 8.419 Q 80.015 8.196 80.015 7.88 Q 80.015 7.38 80.433 7.053 Q 80.851 6.727 81.503 6.727 Q 82.21 6.727 82.638 7.077 Q 83.066 7.426 83.066 7.989 L 82.597 7.989 Q 82.597 7.618 82.287 7.372 Q 81.976 7.126 81.503 7.126 Q 81.042 7.126 80.763 7.331 Q 80.484 7.536 80.484 7.864 Q 80.484 8.18 80.716 8.354 Q 80.949 8.528 81.564 8.673 Q 82.179 8.817 82.486 8.981 Q 82.792 9.145 82.941 9.376 Q 83.089 9.606 83.089 9.934 Q 83.089 10.469 82.658 10.79 Q 82.226 11.11 81.531 11.11 Q 80.792 11.11 80.333 10.753 Q 79.874 10.395 79.874 9.848 L 80.343 9.848 Q 80.371 10.258 80.689 10.487 Q 81.007 10.715 81.531 10.715 Q 82.019 10.715 82.32 10.501 Q 82.621 10.286 82.621 9.958 Z" style="fill: rgb(255, 255, 255); line-height: normal; white-space: pre;"/>
          <path d="M 85.773 11.11 Q 85.234 11.11 84.798 10.844 Q 84.363 10.579 84.121 10.104 Q 83.878 9.63 83.878 9.04 L 83.878 8.872 Q 83.878 8.262 84.115 7.774 Q 84.351 7.286 84.773 7.007 Q 85.195 6.727 85.687 6.727 Q 86.457 6.727 86.908 7.253 Q 87.359 7.778 87.359 8.688 L 87.359 8.95 L 84.343 8.95 L 84.343 9.04 Q 84.343 9.758 84.755 10.237 Q 85.167 10.715 85.792 10.715 Q 86.167 10.715 86.455 10.579 Q 86.742 10.442 86.976 10.141 L 87.269 10.364 Q 86.753 11.11 85.773 11.11 Z M 85.687 7.126 Q 85.16 7.126 84.798 7.512 Q 84.437 7.899 84.359 8.551 L 86.894 8.551 L 86.894 8.501 Q 86.875 7.891 86.546 7.508 Q 86.218 7.126 85.687 7.126 Z" style="fill: rgb(255, 255, 255); line-height: normal; white-space: pre;"/>
          <path d="M 88.793 11.032 L 88.324 11.032 L 88.324 5.032 L 88.793 5.032 Z" style="fill: rgb(255, 255, 255); line-height: normal; white-space: pre;"/>
          <path d="M 90.582 11.032 L 90.113 11.032 L 90.113 6.805 L 90.582 6.805 Z M 90.031 5.583 Q 90.031 5.45 90.117 5.358 Q 90.203 5.266 90.351 5.266 Q 90.5 5.266 90.588 5.358 Q 90.675 5.45 90.675 5.583 Q 90.675 5.715 90.588 5.805 Q 90.5 5.895 90.351 5.895 Q 90.203 5.895 90.117 5.805 Q 90.031 5.715 90.031 5.583 Z" style="fill: rgb(255, 255, 255); line-height: normal; white-space: pre;"/>
          <path d="M 92.293 6.805 L 92.308 7.528 Q 92.547 7.137 92.902 6.932 Q 93.258 6.727 93.687 6.727 Q 94.367 6.727 94.699 7.11 Q 95.031 7.493 95.035 8.258 L 95.035 11.032 L 94.57 11.032 L 94.57 8.255 Q 94.566 7.688 94.33 7.411 Q 94.093 7.133 93.574 7.133 Q 93.14 7.133 92.806 7.405 Q 92.472 7.676 92.312 8.137 L 92.312 11.032 L 91.847 11.032 L 91.847 6.805 Z" style="fill: rgb(255, 255, 255); line-height: normal; white-space: pre;"/>
          <path d="M 97.875 11.11 Q 97.336 11.11 96.9 10.844 Q 96.465 10.579 96.222 10.104 Q 95.98 9.63 95.98 9.04 L 95.98 8.872 Q 95.98 8.262 96.217 7.774 Q 96.453 7.286 96.875 7.007 Q 97.297 6.727 97.789 6.727 Q 98.558 6.727 99.01 7.253 Q 99.461 7.778 99.461 8.688 L 99.461 8.95 L 96.445 8.95 L 96.445 9.04 Q 96.445 9.758 96.857 10.237 Q 97.269 10.715 97.894 10.715 Q 98.269 10.715 98.556 10.579 Q 98.844 10.442 99.078 10.141 L 99.371 10.364 Q 98.855 11.11 97.875 11.11 Z M 97.789 7.126 Q 97.262 7.126 96.9 7.512 Q 96.539 7.899 96.461 8.551 L 98.996 8.551 L 98.996 8.501 Q 98.976 7.891 98.648 7.508 Q 98.32 7.126 97.789 7.126 Z" style="fill: rgb(255, 255, 255); line-height: normal; white-space: pre;"/>
        </g>
        <g id="patch_26">
          <path d="M 47.9 22.450666 L 63.9 22.450666 L 63.9 16.850666 L 47.9 16.850666 z " style="opacity: 0.99; fill: rgb(231, 150, 19);"/>
        </g>
        <g id="text_15">
          <path d="M 71.019 22.451 L 71.019 16.763 L 72.698 16.763 Q 73.613 16.763 74.085 17.14 Q 74.558 17.517 74.558 18.251 Q 74.558 18.693 74.318 19.019 Q 74.077 19.345 73.659 19.486 Q 74.155 19.595 74.458 19.974 Q 74.761 20.353 74.761 20.849 Q 74.761 21.603 74.275 22.027 Q 73.788 22.451 72.921 22.451 Z M 71.499 19.716 L 71.499 22.044 L 72.941 22.044 Q 73.558 22.044 73.919 21.73 Q 74.28 21.416 74.28 20.857 Q 74.28 20.33 73.935 20.023 Q 73.589 19.716 72.98 19.716 Z M 71.499 19.314 L 72.812 19.314 Q 73.413 19.302 73.743 19.031 Q 74.073 18.759 74.073 18.24 Q 74.073 17.693 73.732 17.433 Q 73.39 17.173 72.698 17.173 L 71.499 17.173 Z" style="fill: rgb(255, 255, 255); line-height: normal; white-space: pre;"/>
          <path d="M 77.445 22.529 Q 76.906 22.529 76.47 22.263 Q 76.034 21.998 75.792 21.523 Q 75.55 21.048 75.55 20.459 L 75.55 20.291 Q 75.55 19.681 75.786 19.193 Q 76.023 18.705 76.445 18.425 Q 76.867 18.146 77.359 18.146 Q 78.128 18.146 78.579 18.671 Q 79.031 19.197 79.031 20.107 L 79.031 20.369 L 76.015 20.369 L 76.015 20.459 Q 76.015 21.177 76.427 21.656 Q 76.839 22.134 77.464 22.134 Q 77.839 22.134 78.126 21.998 Q 78.413 21.861 78.648 21.56 L 78.941 21.783 Q 78.425 22.529 77.445 22.529 Z M 77.359 18.544 Q 76.831 18.544 76.47 18.931 Q 76.109 19.318 76.031 19.97 L 78.566 19.97 L 78.566 19.919 Q 78.546 19.31 78.218 18.927 Q 77.89 18.544 77.359 18.544 Z" style="fill: rgb(255, 255, 255); line-height: normal; white-space: pre;"/>
          <path d="M 82.464 21.376 Q 82.464 21.029 82.185 20.818 Q 81.906 20.607 81.343 20.488 Q 80.781 20.369 80.47 20.214 Q 80.16 20.06 80.009 19.837 Q 79.859 19.615 79.859 19.298 Q 79.859 18.798 80.277 18.472 Q 80.695 18.146 81.347 18.146 Q 82.054 18.146 82.482 18.496 Q 82.91 18.845 82.91 19.408 L 82.441 19.408 Q 82.441 19.037 82.13 18.791 Q 81.82 18.544 81.347 18.544 Q 80.886 18.544 80.607 18.75 Q 80.328 18.955 80.328 19.283 Q 80.328 19.599 80.56 19.773 Q 80.792 19.947 81.408 20.091 Q 82.023 20.236 82.33 20.4 Q 82.636 20.564 82.785 20.794 Q 82.933 21.025 82.933 21.353 Q 82.933 21.888 82.501 22.209 Q 82.07 22.529 81.374 22.529 Q 80.636 22.529 80.177 22.171 Q 79.718 21.814 79.718 21.267 L 80.187 21.267 Q 80.214 21.677 80.533 21.906 Q 80.851 22.134 81.374 22.134 Q 81.863 22.134 82.163 21.919 Q 82.464 21.705 82.464 21.376 Z" style="fill: rgb(255, 255, 255); line-height: normal; white-space: pre;"/>
          <path d="M 84.707 17.142 L 84.707 18.224 L 85.582 18.224 L 85.582 18.607 L 84.707 18.607 L 84.707 21.423 Q 84.707 21.775 84.834 21.947 Q 84.96 22.119 85.257 22.119 Q 85.375 22.119 85.636 22.08 L 85.656 22.462 Q 85.472 22.529 85.156 22.529 Q 84.675 22.529 84.457 22.25 Q 84.238 21.97 84.238 21.427 L 84.238 18.607 L 83.46 18.607 L 83.46 18.224 L 84.238 18.224 L 84.238 17.142 Z" style="fill: rgb(255, 255, 255); line-height: normal; white-space: pre;"/>
          <path d="M 91.898 20.38 Q 91.898 21.369 91.461 21.949 Q 91.023 22.529 90.285 22.529 Q 89.402 22.529 88.949 21.873 L 88.929 22.451 L 88.492 22.451 L 88.492 16.451 L 88.957 16.451 L 88.957 18.837 Q 89.402 18.146 90.277 18.146 Q 91.027 18.146 91.463 18.718 Q 91.898 19.291 91.898 20.31 Z M 91.429 20.298 Q 91.429 19.462 91.105 19.007 Q 90.781 18.552 90.191 18.552 Q 89.742 18.552 89.429 18.773 Q 89.117 18.994 88.957 19.419 L 88.957 21.326 Q 89.308 22.123 90.199 22.123 Q 90.777 22.123 91.103 21.666 Q 91.429 21.209 91.429 20.298 Z" style="fill: rgb(255, 255, 255); line-height: normal; white-space: pre;"/>
          <path d="M 95.593 22.451 Q 95.523 22.251 95.504 21.861 Q 95.258 22.181 94.877 22.355 Q 94.496 22.529 94.07 22.529 Q 93.461 22.529 93.084 22.189 Q 92.707 21.849 92.707 21.33 Q 92.707 20.712 93.22 20.353 Q 93.734 19.994 94.652 19.994 L 95.5 19.994 L 95.5 19.513 Q 95.5 19.06 95.22 18.8 Q 94.941 18.541 94.406 18.541 Q 93.918 18.541 93.597 18.791 Q 93.277 19.041 93.277 19.392 L 92.808 19.388 Q 92.808 18.884 93.277 18.515 Q 93.746 18.146 94.429 18.146 Q 95.136 18.146 95.545 18.5 Q 95.953 18.853 95.965 19.486 L 95.965 21.486 Q 95.965 22.099 96.093 22.404 L 96.093 22.451 Z M 94.125 22.115 Q 94.593 22.115 94.963 21.888 Q 95.332 21.662 95.5 21.283 L 95.5 20.353 L 94.664 20.353 Q 93.965 20.361 93.57 20.609 Q 93.176 20.857 93.176 21.291 Q 93.176 21.646 93.439 21.88 Q 93.703 22.115 94.125 22.115 Z" style="fill: rgb(255, 255, 255); line-height: normal; white-space: pre;"/>
          <path d="M 97.933 17.142 L 97.933 18.224 L 98.808 18.224 L 98.808 18.607 L 97.933 18.607 L 97.933 21.423 Q 97.933 21.775 98.06 21.947 Q 98.187 22.119 98.484 22.119 Q 98.601 22.119 98.863 22.08 L 98.883 22.462 Q 98.699 22.529 98.383 22.529 Q 97.902 22.529 97.683 22.25 Q 97.465 21.97 97.465 21.427 L 97.465 18.607 L 96.687 18.607 L 96.687 18.224 L 97.465 18.224 L 97.465 17.142 Z" style="fill: rgb(255, 255, 255); line-height: normal; white-space: pre;"/>
          <path d="M 101.34 22.134 Q 101.828 22.134 102.158 21.859 Q 102.488 21.584 102.516 21.146 L 102.965 21.146 Q 102.945 21.533 102.723 21.851 Q 102.5 22.169 102.131 22.349 Q 101.762 22.529 101.34 22.529 Q 100.508 22.529 100.021 21.951 Q 99.535 21.373 99.535 20.396 L 99.535 20.255 Q 99.535 19.63 99.754 19.15 Q 99.973 18.669 100.381 18.408 Q 100.789 18.146 101.336 18.146 Q 102.031 18.146 102.482 18.56 Q 102.933 18.974 102.965 19.65 L 102.516 19.65 Q 102.484 19.154 102.158 18.849 Q 101.832 18.544 101.336 18.544 Q 100.703 18.544 100.353 19.001 Q 100.004 19.459 100.004 20.283 L 100.004 20.419 Q 100.004 21.228 100.353 21.681 Q 100.703 22.134 101.34 22.134 Z" style="fill: rgb(255, 255, 255); line-height: normal; white-space: pre;"/>
          <path d="M 104.359 18.939 Q 104.59 18.56 104.949 18.353 Q 105.309 18.146 105.734 18.146 Q 106.414 18.146 106.746 18.529 Q 107.078 18.912 107.082 19.677 L 107.082 22.451 L 106.617 22.451 L 106.617 19.673 Q 106.613 19.107 106.377 18.83 Q 106.141 18.552 105.621 18.552 Q 105.187 18.552 104.853 18.824 Q 104.52 19.095 104.359 19.556 L 104.359 22.451 L 103.895 22.451 L 103.895 16.451 L 104.359 16.451 Z" style="fill: rgb(255, 255, 255); line-height: normal; white-space: pre;"/>
          <path d="M 112.762 21.376 Q 112.762 21.029 112.483 20.818 Q 112.203 20.607 111.641 20.488 Q 111.078 20.369 110.768 20.214 Q 110.457 20.06 110.307 19.837 Q 110.156 19.615 110.156 19.298 Q 110.156 18.798 110.574 18.472 Q 110.992 18.146 111.645 18.146 Q 112.352 18.146 112.779 18.496 Q 113.207 18.845 113.207 19.408 L 112.738 19.408 Q 112.738 19.037 112.428 18.791 Q 112.117 18.544 111.645 18.544 Q 111.184 18.544 110.904 18.75 Q 110.625 18.955 110.625 19.283 Q 110.625 19.599 110.858 19.773 Q 111.09 19.947 111.705 20.091 Q 112.32 20.236 112.627 20.4 Q 112.934 20.564 113.082 20.794 Q 113.231 21.025 113.231 21.353 Q 113.231 21.888 112.799 22.209 Q 112.367 22.529 111.672 22.529 Q 110.934 22.529 110.475 22.171 Q 110.016 21.814 110.016 21.267 L 110.484 21.267 Q 110.512 21.677 110.83 21.906 Q 111.149 22.134 111.672 22.134 Q 112.16 22.134 112.461 21.919 Q 112.762 21.705 112.762 21.376 Z" style="fill: rgb(255, 255, 255); line-height: normal; white-space: pre;"/>
          <path d="M 114.801 22.451 L 114.332 22.451 L 114.332 18.224 L 114.801 18.224 Z M 114.25 17.001 Q 114.25 16.869 114.336 16.777 Q 114.422 16.685 114.571 16.685 Q 114.719 16.685 114.807 16.777 Q 114.895 16.869 114.895 17.001 Q 114.895 17.134 114.807 17.224 Q 114.719 17.314 114.571 17.314 Q 114.422 17.314 114.336 17.224 Q 114.25 17.134 114.25 17.001 Z" style="fill: rgb(255, 255, 255); line-height: normal; white-space: pre;"/>
          <path d="M 116.375 22.056 L 119.121 22.056 L 119.121 22.451 L 115.797 22.451 L 115.797 22.107 L 118.36 18.626 L 115.875 18.626 L 115.875 18.224 L 118.949 18.224 L 118.949 18.572 Z" style="fill: rgb(255, 255, 255); line-height: normal; white-space: pre;"/>
          <path d="M 121.532 22.529 Q 120.993 22.529 120.557 22.263 Q 120.121 21.998 119.879 21.523 Q 119.637 21.048 119.637 20.459 L 119.637 20.291 Q 119.637 19.681 119.873 19.193 Q 120.11 18.705 120.532 18.425 Q 120.953 18.146 121.446 18.146 Q 122.215 18.146 122.666 18.671 Q 123.118 19.197 123.118 20.107 L 123.118 20.369 L 120.102 20.369 L 120.102 20.459 Q 120.102 21.177 120.514 21.656 Q 120.926 22.134 121.551 22.134 Q 121.926 22.134 122.213 21.998 Q 122.5 21.861 122.735 21.56 L 123.028 21.783 Q 122.512 22.529 121.532 22.529 Z M 121.446 18.544 Q 120.918 18.544 120.557 18.931 Q 120.196 19.318 120.118 19.97 L 122.653 19.97 L 122.653 19.919 Q 122.633 19.31 122.305 18.927 Q 121.977 18.544 121.446 18.544 Z" style="fill: rgb(255, 255, 255); line-height: normal; white-space: pre;"/>
        </g>
        <g id="patch_27">
          <path d="M 141.88 11.031916 L 157.88 11.031916 L 157.88 5.431916 L 141.88 5.431916 z " style="opacity: 0.99; fill: rgb(235, 188, 0);"/>
        </g>
        <g id="text_16">
          <path d="M 164.999 11.032 L 164.999 5.344 L 166.678 5.344 Q 167.592 5.344 168.065 5.721 Q 168.538 6.098 168.538 6.833 Q 168.538 7.274 168.298 7.6 Q 168.057 7.926 167.639 8.067 Q 168.135 8.176 168.438 8.555 Q 168.741 8.934 168.741 9.43 Q 168.741 10.184 168.255 10.608 Q 167.768 11.032 166.901 11.032 Z M 165.479 8.298 L 165.479 10.626 L 166.921 10.626 Q 167.538 10.626 167.899 10.311 Q 168.26 9.997 168.26 9.438 Q 168.26 8.911 167.915 8.604 Q 167.569 8.298 166.96 8.298 Z M 165.479 7.895 L 166.792 7.895 Q 167.393 7.883 167.723 7.612 Q 168.053 7.34 168.053 6.821 Q 168.053 6.274 167.712 6.014 Q 167.37 5.755 166.678 5.755 L 165.479 5.755 Z" style="fill: rgb(255, 255, 255); line-height: normal; white-space: pre;"/>
          <path d="M 171.425 11.11 Q 170.886 11.11 170.45 10.844 Q 170.014 10.579 169.772 10.104 Q 169.53 9.63 169.53 9.04 L 169.53 8.872 Q 169.53 8.262 169.766 7.774 Q 170.003 7.286 170.425 7.007 Q 170.847 6.727 171.339 6.727 Q 172.108 6.727 172.559 7.253 Q 173.011 7.778 173.011 8.688 L 173.011 8.95 L 169.995 8.95 L 169.995 9.04 Q 169.995 9.758 170.407 10.237 Q 170.819 10.715 171.444 10.715 Q 171.819 10.715 172.106 10.579 Q 172.393 10.442 172.628 10.141 L 172.921 10.364 Q 172.405 11.11 171.425 11.11 Z M 171.339 7.126 Q 170.811 7.126 170.45 7.512 Q 170.089 7.899 170.011 8.551 L 172.546 8.551 L 172.546 8.501 Q 172.526 7.891 172.198 7.508 Q 171.87 7.126 171.339 7.126 Z" style="fill: rgb(255, 255, 255); line-height: normal; white-space: pre;"/>
          <path d="M 176.444 9.958 Q 176.444 9.61 176.165 9.399 Q 175.886 9.188 175.323 9.069 Q 174.761 8.95 174.45 8.796 Q 174.14 8.641 173.989 8.419 Q 173.839 8.196 173.839 7.88 Q 173.839 7.38 174.257 7.053 Q 174.675 6.727 175.327 6.727 Q 176.034 6.727 176.462 7.077 Q 176.89 7.426 176.89 7.989 L 176.421 7.989 Q 176.421 7.618 176.11 7.372 Q 175.8 7.126 175.327 7.126 Q 174.866 7.126 174.587 7.331 Q 174.308 7.536 174.308 7.864 Q 174.308 8.18 174.54 8.354 Q 174.772 8.528 175.388 8.673 Q 176.003 8.817 176.31 8.981 Q 176.616 9.145 176.765 9.376 Q 176.913 9.606 176.913 9.934 Q 176.913 10.469 176.481 10.79 Q 176.05 11.11 175.354 11.11 Q 174.616 11.11 174.157 10.753 Q 173.698 10.395 173.698 9.848 L 174.167 9.848 Q 174.194 10.258 174.513 10.487 Q 174.831 10.715 175.354 10.715 Q 175.843 10.715 176.143 10.501 Q 176.444 10.286 176.444 9.958 Z" style="fill: rgb(255, 255, 255); line-height: normal; white-space: pre;"/>
          <path d="M 178.687 5.723 L 178.687 6.805 L 179.562 6.805 L 179.562 7.188 L 178.687 7.188 L 178.687 10.005 Q 178.687 10.356 178.814 10.528 Q 178.94 10.7 179.237 10.7 Q 179.355 10.7 179.616 10.661 L 179.636 11.044 Q 179.452 11.11 179.136 11.11 Q 178.655 11.11 178.437 10.831 Q 178.218 10.551 178.218 10.008 L 178.218 7.188 L 177.44 7.188 L 177.44 6.805 L 178.218 6.805 L 178.218 5.723 Z" style="fill: rgb(255, 255, 255); line-height: normal; white-space: pre;"/>
          <path d="M 185.874 8.962 Q 185.874 9.95 185.437 10.53 Q 184.999 11.11 184.265 11.11 Q 183.398 11.11 182.937 10.501 L 182.937 12.657 L 182.472 12.657 L 182.472 6.805 L 182.905 6.805 L 182.929 7.403 Q 183.386 6.727 184.253 6.727 Q 185.011 6.727 185.443 7.301 Q 185.874 7.876 185.874 8.895 Z M 185.405 8.88 Q 185.405 8.071 185.073 7.602 Q 184.741 7.133 184.148 7.133 Q 183.718 7.133 183.409 7.34 Q 183.101 7.548 182.937 7.942 L 182.937 9.969 Q 183.105 10.333 183.417 10.524 Q 183.73 10.715 184.155 10.715 Q 184.745 10.715 185.075 10.245 Q 185.405 9.774 185.405 8.88 Z" style="fill: rgb(255, 255, 255); line-height: normal; white-space: pre;"/>
          <path d="M 186.648 8.856 Q 186.648 8.247 186.884 7.758 Q 187.12 7.27 187.552 6.999 Q 187.984 6.727 188.531 6.727 Q 189.374 6.727 189.898 7.319 Q 190.421 7.911 190.421 8.887 L 190.421 8.985 Q 190.421 9.598 190.185 10.089 Q 189.948 10.579 189.519 10.844 Q 189.089 11.11 188.538 11.11 Q 187.698 11.11 187.173 10.518 Q 186.648 9.926 186.648 8.95 Z M 187.116 8.985 Q 187.116 9.743 187.509 10.229 Q 187.902 10.715 188.538 10.715 Q 189.171 10.715 189.564 10.229 Q 189.956 9.743 189.956 8.946 L 189.956 8.856 Q 189.956 8.372 189.777 7.969 Q 189.597 7.567 189.273 7.346 Q 188.948 7.126 188.531 7.126 Q 187.906 7.126 187.511 7.616 Q 187.116 8.106 187.116 8.899 Z" style="fill: rgb(255, 255, 255); line-height: normal; white-space: pre;"/>
          <path d="M 192.394 10.059 L 192.464 10.423 L 192.558 10.04 L 193.574 6.805 L 193.972 6.805 L 194.976 10.012 L 195.085 10.458 L 195.175 10.048 L 196.042 6.805 L 196.527 6.805 L 195.296 11.032 L 194.898 11.032 L 193.812 7.68 L 193.761 7.45 L 193.71 7.684 L 192.644 11.032 L 192.245 11.032 L 191.019 6.805 L 191.499 6.805 Z" style="fill: rgb(255, 255, 255); line-height: normal; white-space: pre;"/>
          <path d="M 199.05 11.11 Q 198.511 11.11 198.076 10.844 Q 197.64 10.579 197.398 10.104 Q 197.156 9.63 197.156 9.04 L 197.156 8.872 Q 197.156 8.262 197.392 7.774 Q 197.628 7.286 198.05 7.007 Q 198.472 6.727 198.964 6.727 Q 199.734 6.727 200.185 7.253 Q 200.636 7.778 200.636 8.688 L 200.636 8.95 L 197.621 8.95 L 197.621 9.04 Q 197.621 9.758 198.033 10.237 Q 198.445 10.715 199.07 10.715 Q 199.445 10.715 199.732 10.579 Q 200.019 10.442 200.253 10.141 L 200.546 10.364 Q 200.031 11.11 199.05 11.11 Z M 198.964 7.126 Q 198.437 7.126 198.076 7.512 Q 197.714 7.899 197.636 8.551 L 200.171 8.551 L 200.171 8.501 Q 200.152 7.891 199.824 7.508 Q 199.496 7.126 198.964 7.126 Z" style="fill: rgb(255, 255, 255); line-height: normal; white-space: pre;"/>
          <path d="M 203.5 7.204 Q 203.351 7.176 203.183 7.176 Q 202.746 7.176 202.443 7.421 Q 202.14 7.665 202.011 8.13 L 202.011 11.032 L 201.546 11.032 L 201.546 6.805 L 202.003 6.805 L 202.011 7.477 Q 202.382 6.727 203.203 6.727 Q 203.398 6.727 203.511 6.778 Z" style="fill: rgb(255, 255, 255); line-height: normal; white-space: pre;"/>
          <path d="M 206.703 11.032 L 206.234 11.032 L 206.234 5.032 L 206.703 5.032 Z" style="fill: rgb(255, 255, 255); line-height: normal; white-space: pre;"/>
          <path d="M 208.492 11.032 L 208.023 11.032 L 208.023 6.805 L 208.492 6.805 Z M 207.941 5.583 Q 207.941 5.45 208.027 5.358 Q 208.113 5.266 208.261 5.266 Q 208.41 5.266 208.498 5.358 Q 208.586 5.45 208.586 5.583 Q 208.586 5.715 208.498 5.805 Q 208.41 5.895 208.261 5.895 Q 208.113 5.895 208.027 5.805 Q 207.941 5.715 207.941 5.583 Z" style="fill: rgb(255, 255, 255); line-height: normal; white-space: pre;"/>
          <path d="M 210.183 6.805 L 210.199 7.493 Q 210.433 7.11 210.785 6.919 Q 211.137 6.727 211.566 6.727 Q 212.566 6.727 212.836 7.548 Q 213.062 7.153 213.441 6.94 Q 213.82 6.727 214.277 6.727 Q 215.637 6.727 215.664 8.212 L 215.664 11.032 L 215.195 11.032 L 215.195 8.247 Q 215.191 7.68 214.951 7.407 Q 214.711 7.133 214.168 7.133 Q 213.664 7.141 213.316 7.46 Q 212.969 7.778 212.929 8.235 L 212.929 11.032 L 212.461 11.032 L 212.461 8.212 Q 212.457 7.669 212.205 7.401 Q 211.953 7.133 211.429 7.133 Q 210.988 7.133 210.672 7.385 Q 210.355 7.637 210.203 8.133 L 210.203 11.032 L 209.734 11.032 L 209.734 6.805 Z" style="fill: rgb(255, 255, 255); line-height: normal; white-space: pre;"/>
          <path d="M 217.367 11.032 L 216.898 11.032 L 216.898 6.805 L 217.367 6.805 Z M 216.816 5.583 Q 216.816 5.45 216.902 5.358 Q 216.988 5.266 217.137 5.266 Q 217.285 5.266 217.373 5.358 Q 217.461 5.45 217.461 5.583 Q 217.461 5.715 217.373 5.805 Q 217.285 5.895 217.137 5.895 Q 216.988 5.895 216.902 5.805 Q 216.816 5.715 216.816 5.583 Z" style="fill: rgb(255, 255, 255); line-height: normal; white-space: pre;"/>
          <path d="M 219.367 5.723 L 219.367 6.805 L 220.242 6.805 L 220.242 7.188 L 219.367 7.188 L 219.367 10.005 Q 219.367 10.356 219.494 10.528 Q 219.621 10.7 219.918 10.7 Q 220.035 10.7 220.297 10.661 L 220.316 11.044 Q 220.133 11.11 219.816 11.11 Q 219.336 11.11 219.117 10.831 Q 218.898 10.551 218.898 10.008 L 218.898 7.188 L 218.121 7.188 L 218.121 6.805 L 218.898 6.805 L 218.898 5.723 Z" style="fill: rgb(255, 255, 255); line-height: normal; white-space: pre;"/>
        </g>
        <g id="patch_28">
          <path d="M 141.88 22.450666 L 157.88 22.450666 L 157.88 16.850666 L 141.88 16.850666 z " style="opacity: 0.99; fill: rgb(247, 233, 109);"/>
        </g>
        <g id="text_17">
          <path d="M 164.999 22.451 L 164.999 16.763 L 166.678 16.763 Q 167.592 16.763 168.065 17.14 Q 168.538 17.517 168.538 18.251 Q 168.538 18.693 168.298 19.019 Q 168.057 19.345 167.639 19.486 Q 168.135 19.595 168.438 19.974 Q 168.741 20.353 168.741 20.849 Q 168.741 21.603 168.255 22.027 Q 167.768 22.451 166.901 22.451 Z M 165.479 19.716 L 165.479 22.044 L 166.921 22.044 Q 167.538 22.044 167.899 21.73 Q 168.26 21.416 168.26 20.857 Q 168.26 20.33 167.915 20.023 Q 167.569 19.716 166.96 19.716 Z M 165.479 19.314 L 166.792 19.314 Q 167.393 19.302 167.723 19.031 Q 168.053 18.759 168.053 18.24 Q 168.053 17.693 167.712 17.433 Q 167.37 17.173 166.678 17.173 L 165.479 17.173 Z" style="fill: rgb(255, 255, 255); line-height: normal; white-space: pre;"/>
          <path d="M 171.425 22.529 Q 170.886 22.529 170.45 22.263 Q 170.014 21.998 169.772 21.523 Q 169.53 21.048 169.53 20.459 L 169.53 20.291 Q 169.53 19.681 169.766 19.193 Q 170.003 18.705 170.425 18.425 Q 170.847 18.146 171.339 18.146 Q 172.108 18.146 172.559 18.671 Q 173.011 19.197 173.011 20.107 L 173.011 20.369 L 169.995 20.369 L 169.995 20.459 Q 169.995 21.177 170.407 21.656 Q 170.819 22.134 171.444 22.134 Q 171.819 22.134 172.106 21.998 Q 172.393 21.861 172.628 21.56 L 172.921 21.783 Q 172.405 22.529 171.425 22.529 Z M 171.339 18.544 Q 170.811 18.544 170.45 18.931 Q 170.089 19.318 170.011 19.97 L 172.546 19.97 L 172.546 19.919 Q 172.526 19.31 172.198 18.927 Q 171.87 18.544 171.339 18.544 Z" style="fill: rgb(255, 255, 255); line-height: normal; white-space: pre;"/>
          <path d="M 176.444 21.376 Q 176.444 21.029 176.165 20.818 Q 175.886 20.607 175.323 20.488 Q 174.761 20.369 174.45 20.214 Q 174.14 20.06 173.989 19.837 Q 173.839 19.615 173.839 19.298 Q 173.839 18.798 174.257 18.472 Q 174.675 18.146 175.327 18.146 Q 176.034 18.146 176.462 18.496 Q 176.89 18.845 176.89 19.408 L 176.421 19.408 Q 176.421 19.037 176.11 18.791 Q 175.8 18.544 175.327 18.544 Q 174.866 18.544 174.587 18.75 Q 174.308 18.955 174.308 19.283 Q 174.308 19.599 174.54 19.773 Q 174.772 19.947 175.388 20.091 Q 176.003 20.236 176.31 20.4 Q 176.616 20.564 176.765 20.794 Q 176.913 21.025 176.913 21.353 Q 176.913 21.888 176.481 22.209 Q 176.05 22.529 175.354 22.529 Q 174.616 22.529 174.157 22.171 Q 173.698 21.814 173.698 21.267 L 174.167 21.267 Q 174.194 21.677 174.513 21.906 Q 174.831 22.134 175.354 22.134 Q 175.843 22.134 176.143 21.919 Q 176.444 21.705 176.444 21.376 Z" style="fill: rgb(255, 255, 255); line-height: normal; white-space: pre;"/>
          <path d="M 178.687 17.142 L 178.687 18.224 L 179.562 18.224 L 179.562 18.607 L 178.687 18.607 L 178.687 21.423 Q 178.687 21.775 178.814 21.947 Q 178.94 22.119 179.237 22.119 Q 179.355 22.119 179.616 22.08 L 179.636 22.462 Q 179.452 22.529 179.136 22.529 Q 178.655 22.529 178.437 22.25 Q 178.218 21.97 178.218 21.427 L 178.218 18.607 L 177.44 18.607 L 177.44 18.224 L 178.218 18.224 L 178.218 17.142 Z" style="fill: rgb(255, 255, 255); line-height: normal; white-space: pre;"/>
          <path d="M 182.218 20.275 Q 182.218 19.666 182.454 19.177 Q 182.691 18.689 183.122 18.417 Q 183.554 18.146 184.101 18.146 Q 184.944 18.146 185.468 18.738 Q 185.991 19.33 185.991 20.306 L 185.991 20.404 Q 185.991 21.017 185.755 21.507 Q 185.519 21.998 185.089 22.263 Q 184.659 22.529 184.109 22.529 Q 183.269 22.529 182.743 21.937 Q 182.218 21.345 182.218 20.369 Z M 182.687 20.404 Q 182.687 21.162 183.079 21.648 Q 183.472 22.134 184.109 22.134 Q 184.741 22.134 185.134 21.648 Q 185.527 21.162 185.527 20.365 L 185.527 20.275 Q 185.527 19.791 185.347 19.388 Q 185.167 18.986 184.843 18.765 Q 184.519 18.544 184.101 18.544 Q 183.476 18.544 183.081 19.035 Q 182.687 19.525 182.687 20.318 Z" style="fill: rgb(255, 255, 255); line-height: normal; white-space: pre;"/>
          <path d="M 187.288 22.451 L 187.288 18.607 L 186.589 18.607 L 186.589 18.224 L 187.288 18.224 L 187.288 17.712 Q 187.288 17.064 187.618 16.716 Q 187.948 16.369 188.538 16.369 Q 188.804 16.369 189.034 16.435 L 188.999 16.826 Q 188.804 16.779 188.573 16.779 Q 188.187 16.779 187.972 17.019 Q 187.757 17.259 187.757 17.701 L 187.757 18.224 L 188.765 18.224 L 188.765 18.607 L 187.757 18.607 L 187.757 22.451 Z" style="fill: rgb(255, 255, 255); line-height: normal; white-space: pre;"/>
          <path d="M 194.949 20.38 Q 194.949 21.369 194.511 21.949 Q 194.074 22.529 193.335 22.529 Q 192.452 22.529 191.999 21.873 L 191.98 22.451 L 191.542 22.451 L 191.542 16.451 L 192.007 16.451 L 192.007 18.837 Q 192.452 18.146 193.327 18.146 Q 194.077 18.146 194.513 18.718 Q 194.949 19.291 194.949 20.31 Z M 194.48 20.298 Q 194.48 19.462 194.156 19.007 Q 193.831 18.552 193.242 18.552 Q 192.792 18.552 192.48 18.773 Q 192.167 18.994 192.007 19.419 L 192.007 21.326 Q 192.359 22.123 193.249 22.123 Q 193.827 22.123 194.154 21.666 Q 194.48 21.209 194.48 20.298 Z" style="fill: rgb(255, 255, 255); line-height: normal; white-space: pre;"/>
          <path d="M 195.718 20.275 Q 195.718 19.666 195.955 19.177 Q 196.191 18.689 196.623 18.417 Q 197.054 18.146 197.601 18.146 Q 198.445 18.146 198.968 18.738 Q 199.492 19.33 199.492 20.306 L 199.492 20.404 Q 199.492 21.017 199.255 21.507 Q 199.019 21.998 198.589 22.263 Q 198.16 22.529 197.609 22.529 Q 196.769 22.529 196.244 21.937 Q 195.718 21.345 195.718 20.369 Z M 196.187 20.404 Q 196.187 21.162 196.58 21.648 Q 196.972 22.134 197.609 22.134 Q 198.242 22.134 198.634 21.648 Q 199.027 21.162 199.027 20.365 L 199.027 20.275 Q 199.027 19.791 198.847 19.388 Q 198.667 18.986 198.343 18.765 Q 198.019 18.544 197.601 18.544 Q 196.976 18.544 196.581 19.035 Q 196.187 19.525 196.187 20.318 Z" style="fill: rgb(255, 255, 255); line-height: normal; white-space: pre;"/>
          <path d="M 201.179 17.142 L 201.179 18.224 L 202.054 18.224 L 202.054 18.607 L 201.179 18.607 L 201.179 21.423 Q 201.179 21.775 201.306 21.947 Q 201.433 22.119 201.73 22.119 Q 201.847 22.119 202.109 22.08 L 202.128 22.462 Q 201.945 22.529 201.628 22.529 Q 201.148 22.529 200.929 22.25 Q 200.711 21.97 200.711 21.427 L 200.711 18.607 L 199.933 18.607 L 199.933 18.224 L 200.711 18.224 L 200.711 17.142 Z" style="fill: rgb(255, 255, 255); line-height: normal; white-space: pre;"/>
          <path d="M 203.488 18.939 Q 203.718 18.56 204.078 18.353 Q 204.437 18.146 204.863 18.146 Q 205.543 18.146 205.875 18.529 Q 206.207 18.912 206.211 19.677 L 206.211 22.451 L 205.746 22.451 L 205.746 19.673 Q 205.742 19.107 205.505 18.83 Q 205.269 18.552 204.75 18.552 Q 204.316 18.552 203.982 18.824 Q 203.648 19.095 203.488 19.556 L 203.488 22.451 L 203.023 22.451 L 203.023 16.451 L 203.488 16.451 Z" style="fill: rgb(255, 255, 255); line-height: normal; white-space: pre;"/>
        </g>
      </g>
    </g>
  </g>
</svg>