<?xml version="1.0" encoding="utf-8" standalone="no"?>
<!DOCTYPE svg PUBLIC "-//W3C//DTD SVG 1.1//EN"
  "http://www.w3.org/Graphics/SVG/1.1/DTD/svg11.dtd">
<svg xmlns:xlink="http://www.w3.org/1999/xlink" width="239.886723pt" height="198.188438pt" viewBox="0 0 239.886723 198.188438" xmlns="http://www.w3.org/2000/svg" version="1.1">
 <metadata>
  <rdf:RDF xmlns:dc="http://purl.org/dc/elements/1.1/" xmlns:cc="http://creativecommons.org/ns#" xmlns:rdf="http://www.w3.org/1999/02/22-rdf-syntax-ns#">
   <cc:Work>
    <dc:type rdf:resource="http://purl.org/dc/dcmitype/StillImage"/>
    <dc:format>image/svg+xml</dc:format>
    <dc:creator>
     <cc:Agent>
      <dc:title>Matplotlib v3.6.2, https://matplotlib.org/</dc:title>
     </cc:Agent>
    </dc:creator>
   </cc:Work>
  </rdf:RDF>
 </metadata>
 <defs>
  <style type="text/css">*{stroke-linejoin: round; stroke-linecap: butt}</style>
 </defs>
 <g id="figure_1">
  <g id="patch_1">
   <path d="M 0 198.188438 
L 239.886723 198.188438 
L 239.886723 0 
L 0 0 
L 0 198.188438 
z
" style="fill: none"/>
  </g>
  <g id="axes_1">
   <g id="patch_2">
    <path d="M 26.645938 160.5425 
L 232.686723 160.5425 
L 232.686723 36.18 
L 26.645938 36.18 
L 26.645938 160.5425 
z
" style="fill: none"/>
   </g>
   <g id="PathCollection_1">
    <defs>
     <path id="m6f4d079432" d="M 0 2 
C 0.530406 2 1.03916 1.789267 1.414214 1.414214 
C 1.789267 1.03916 2 0.530406 2 0 
C 2 -0.530406 1.789267 -1.03916 1.414214 -1.414214 
C 1.03916 -1.789267 0.530406 -2 0 -2 
C -0.530406 -2 -1.03916 -1.789267 -1.414214 -1.414214 
C -1.789267 -1.03916 -2 -0.530406 -2 0 
C -2 0.530406 -1.789267 1.03916 -1.414214 1.414214 
C -1.03916 1.789267 -0.530406 2 0 2 
z
" style="stroke: #ffffff"/>
    </defs>
    <g clip-path="url(#p88ab8bcd37)">
     <use xlink:href="#m6f4d079432" x="46.268869" y="60.598157" style="fill: #ffffff; stroke: #ffffff"/>
    </g>
   </g>
   <g id="patch_3">
    <path d="M 113.666543 132.115304 
Q 73.54666 126.239691 55.423528 90.969848 
" clip-path="url(#p88ab8bcd37)" style="fill: none; stroke: #ffffff; stroke-width: 0.8; stroke-linecap: round"/>
    <path d="M 55.472776 95.441713 
L 55.423528 90.969848 
L 59.030568 93.613569 
" clip-path="url(#p88ab8bcd37)" style="fill: none; stroke: #ffffff; stroke-width: 0.8; stroke-linecap: round"/>
   </g>
   <g id="matplotlib.axis_1">
    <g id="xtick_1">
     <g id="line2d_1">
      <defs>
       <path id="m737681bab9" d="M 0 0 
L 0 3.5 
" style="stroke: #ffffff; stroke-width: 0.8"/>
      </defs>
      <g>
       <use xlink:href="#m737681bab9" x="26.645938" y="160.5425" style="fill: #ffffff; stroke: #ffffff; stroke-width: 0.8"/>
      </g>
     </g>
    </g>
    <g id="xtick_2">
     <g id="line2d_2">
      <g>
       <use xlink:href="#m737681bab9" x="65.891801" y="160.5425" style="fill: #ffffff; stroke: #ffffff; stroke-width: 0.8"/>
      </g>
     </g>
    </g>
    <g id="xtick_3">
     <g id="line2d_3">
      <g>
       <use xlink:href="#m737681bab9" x="105.137665" y="160.5425" style="fill: #ffffff; stroke: #ffffff; stroke-width: 0.8"/>
      </g>
     </g>
    </g>
    <g id="xtick_4">
     <g id="line2d_4">
      <g>
       <use xlink:href="#m737681bab9" x="144.383529" y="160.5425" style="fill: #ffffff; stroke: #ffffff; stroke-width: 0.8"/>
      </g>
     </g>
    </g>
    <g id="xtick_5">
     <g id="line2d_5">
      <g>
       <use xlink:href="#m737681bab9" x="183.629393" y="160.5425" style="fill: #ffffff; stroke: #ffffff; stroke-width: 0.8"/>
      </g>
     </g>
    </g>
    <g id="xtick_6">
     <g id="line2d_6">
      <g>
       <use xlink:href="#m737681bab9" x="222.875257" y="160.5425" style="fill: #ffffff; stroke: #ffffff; stroke-width: 0.8"/>
      </g>
     </g>
    </g>
    <g id="text_1">
     <text style="fill: #ffffff; font: 9px 'Arial', sans-serif; text-anchor: middle" x="129.66633" y="189.094219" transform="rotate(-0 129.66633 189.094219)">Iteration Time (seconds)</text>
    </g>
   </g>
   <g id="matplotlib.axis_2">
    <g id="ytick_1">
     <g id="line2d_7">
      <defs>
       <path id="m5d2603d1c7" d="M 0 0 
L -3.5 0 
" style="stroke: #ffffff; stroke-width: 0.8"/>
      </defs>
      <g>
       <use xlink:href="#m5d2603d1c7" x="26.645938" y="160.5425" style="fill: #ffffff; stroke: #ffffff; stroke-width: 0.8"/>
      </g>
     </g>
    </g>
    <g id="ytick_2">
     <g id="line2d_8">
      <g>
       <use xlink:href="#m5d2603d1c7" x="26.645938" y="127.379167" style="fill: #ffffff; stroke: #ffffff; stroke-width: 0.8"/>
      </g>
     </g>
    </g>
    <g id="ytick_3">
     <g id="line2d_9">
      <g>
       <use xlink:href="#m5d2603d1c7" x="26.645938" y="94.215833" style="fill: #ffffff; stroke: #ffffff; stroke-width: 0.8"/>
      </g>
     </g>
    </g>
    <g id="ytick_4">
     <g id="line2d_10">
      <g>
       <use xlink:href="#m5d2603d1c7" x="26.645938" y="61.0525" style="fill: #ffffff; stroke: #ffffff; stroke-width: 0.8"/>
      </g>
     </g>
    </g>
    <g id="text_2">
     <text style="fill: #ffffff; font: 9px 'Arial', sans-serif; text-anchor: middle" x="13.751719" y="98.36125" transform="rotate(-90 13.751719 98.36125)">Iteration Energy (Joules)</text>
    </g>
   </g>
   <g id="line2d_11">
    <path d="M 46.268869 160.5425 
L 46.268869 36.18 
" clip-path="url(#p88ab8bcd37)" style="fill: none; stroke-dasharray: 2.96,1.28; stroke-dashoffset: 0; stroke: #ffffff; stroke-width: 0.8"/>
   </g>
   <g id="line2d_12">
    <path d="M 46.268869 160.5425 
L 46.268869 88.385716 
" clip-path="url(#p88ab8bcd37)" style="fill: none; stroke-dasharray: 2.96,1.28; stroke-dashoffset: 0; stroke: #ffffff; stroke-width: 0.8"/>
   </g>
   <g id="line2d_13">
    <path d="M 134.572063 160.5425 
L 134.572063 142.442314 
" clip-path="url(#p88ab8bcd37)" style="fill: none; stroke-dasharray: 2.96,1.28; stroke-dashoffset: 0; stroke: #ffffff; stroke-width: 0.8"/>
   </g>
   <g id="line2d_14">
    <path d="M 46.268869 88.385716 
L 52.57624 100.986943 
L 58.883611 110.73094 
L 65.190982 118.265561 
L 71.498353 124.091765 
L 77.805724 128.596923 
L 84.113095 132.080571 
L 90.420466 134.774328 
L 96.727837 136.857297 
L 103.035208 138.467969 
L 109.342579 139.713433 
L 115.64995 140.676498 
L 121.957321 141.421196 
L 128.264692 141.997039 
L 134.572063 142.442314 
" clip-path="url(#p88ab8bcd37)" style="fill: none; stroke: #fcba03; stroke-width: 1.5; stroke-linecap: square"/>
    <defs>
     <path id="m9a6731715f" d="M 0 2 
C 0.530406 2 1.03916 1.789267 1.414214 1.414214 
C 1.789267 1.03916 2 0.530406 2 0 
C 2 -0.530406 1.789267 -1.03916 1.414214 -1.414214 
C 1.03916 -1.789267 0.530406 -2 0 -2 
C -0.530406 -2 -1.03916 -1.789267 -1.414214 -1.414214 
C -1.789267 -1.03916 -2 -0.530406 -2 0 
C -2 0.530406 -1.789267 1.03916 -1.414214 1.414214 
C -1.03916 1.789267 -0.530406 2 0 2 
z
" style="stroke: #fcba03"/>
    </defs>
    <g clip-path="url(#p88ab8bcd37)">
     <use xlink:href="#m9a6731715f" x="46.268869" y="88.385716" style="fill: #fcba03; stroke: #fcba03"/>
     <use xlink:href="#m9a6731715f" x="52.57624" y="100.986943" style="fill: #fcba03; stroke: #fcba03"/>
     <use xlink:href="#m9a6731715f" x="58.883611" y="110.73094" style="fill: #fcba03; stroke: #fcba03"/>
     <use xlink:href="#m9a6731715f" x="65.190982" y="118.265561" style="fill: #fcba03; stroke: #fcba03"/>
     <use xlink:href="#m9a6731715f" x="71.498353" y="124.091765" style="fill: #fcba03; stroke: #fcba03"/>
     <use xlink:href="#m9a6731715f" x="77.805724" y="128.596923" style="fill: #fcba03; stroke: #fcba03"/>
     <use xlink:href="#m9a6731715f" x="84.113095" y="132.080571" style="fill: #fcba03; stroke: #fcba03"/>
     <use xlink:href="#m9a6731715f" x="90.420466" y="134.774328" style="fill: #fcba03; stroke: #fcba03"/>
     <use xlink:href="#m9a6731715f" x="96.727837" y="136.857297" style="fill: #fcba03; stroke: #fcba03"/>
     <use xlink:href="#m9a6731715f" x="103.035208" y="138.467969" style="fill: #fcba03; stroke: #fcba03"/>
     <use xlink:href="#m9a6731715f" x="109.342579" y="139.713433" style="fill: #fcba03; stroke: #fcba03"/>
     <use xlink:href="#m9a6731715f" x="115.64995" y="140.676498" style="fill: #fcba03; stroke: #fcba03"/>
     <use xlink:href="#m9a6731715f" x="121.957321" y="141.421196" style="fill: #fcba03; stroke: #fcba03"/>
     <use xlink:href="#m9a6731715f" x="128.264692" y="141.997039" style="fill: #fcba03; stroke: #fcba03"/>
     <use xlink:href="#m9a6731715f" x="134.572063" y="142.442314" style="fill: #fcba03; stroke: #fcba03"/>
    </g>
   </g>
   <g id="patch_4">
    <path d="M 26.645938 160.5425 
L 26.645938 36.18 
" style="fill: none; stroke: #ffffff; stroke-width: 0.8; stroke-linejoin: miter; stroke-linecap: square"/>
   </g>
   <g id="patch_5">
    <path d="M 232.686723 160.5425 
L 232.686723 36.18 
" style="fill: none; stroke: #ffffff; stroke-width: 0.8; stroke-linejoin: miter; stroke-linecap: square"/>
   </g>
   <g id="patch_6">
    <path d="M 26.645938 160.5425 
L 232.686723 160.5425 
" style="fill: none; stroke: #ffffff; stroke-width: 0.8; stroke-linejoin: miter; stroke-linecap: square"/>
   </g>
   <g id="patch_7">
    <path d="M 26.645938 36.18 
L 232.686723 36.18 
" style="fill: none; stroke: #ffffff; stroke-width: 0.8; stroke-linejoin: miter; stroke-linecap: square"/>
   </g>
   <g id="patch_8">
    <path d="M 151.462754 129.915581 
Q 144.352788 134.40222 138.188339 138.292205 
" style="fill: none; stroke: #ffffff; stroke-linecap: round"/>
    <path d="M 142.193442 137.893267 
L 138.188339 138.292205 
L 140.272251 134.84876 
" style="fill: none; stroke: #ffffff; stroke-linecap: round"/>
   </g>
   <g id="text_3">
    <text style="fill: #ffffff; font: 9px 'Arial', sans-serif" transform="translate(120.025944 115.330408)">Running all computations</text>
    <text style="fill: #ffffff; font: 9px 'Arial', sans-serif" transform="translate(128.042976 124.955064)">with minimum energy</text>
   </g>
   <g id="patch_9">
    <path d="M 73.717854 58.323798 
Q 61.971638 59.371996 51.33903 60.320819 
" style="fill: none; stroke: #ffffff; stroke-linecap: round"/>
    <path d="M 55.084773 61.793713 
L 51.33903 60.320819 
L 54.764791 58.207962 
" style="fill: none; stroke: #ffffff; stroke-linecap: round"/>
   </g>
   <g id="text_4">
    <text style="fill: #ffffff; font: 9px 'Arial', sans-serif" transform="translate(77.703897 50.9735)">Running all computations</text>
    <text style="fill: #ffffff; font: 9px 'Arial', sans-serif" transform="translate(85.969131 60.598157)">with maximum speed</text>
   </g>
   <g id="text_5">
    <text style="fill: #ffffff; font: 9px 'Arial', sans-serif" transform="translate(70.463866 86.761957)">Iteratively</text>
    <text style="fill: #ffffff; font: 9px 'Arial', sans-serif" transform="translate(66.210663 96.386613)">reduce time</text>
   </g>
   <g id="text_6">
    <text style="fill: #ffffff; font: 9px 'Arial', sans-serif; text-anchor: middle" x="46.268869" y="175.466" transform="rotate(-0 46.268869 175.466)">10.86</text>
   </g>
   <g id="text_7">
    <text style="fill: #ffffff; font: 9px 'Arial', sans-serif; text-anchor: middle" x="134.572063" y="175.466" transform="rotate(-0 134.572063 175.466)">12.46</text>
   </g>
  </g>
  <g id="legend_1">
   <g id="patch_10">
    <path d="M 30.337031 22.630781 
L 210.879844 22.630781 
Q 212.679844 22.630781 212.679844 20.830781 
L 212.679844 9 
Q 212.679844 7.2 210.879844 7.2 
L 30.337031 7.2 
Q 28.537031 7.2 28.537031 9 
L 28.537031 20.830781 
Q 28.537031 22.630781 30.337031 22.630781 
L 30.337031 22.630781 
z
" style="fill: none; stroke: #ffffff; stroke-width: 0.75; stroke-linejoin: miter"/>
   </g>
   <g id="line2d_15">
    <defs>
     <path id="mf6f47aa109" d="M 0 3 
C 0.795609 3 1.55874 2.683901 2.12132 2.12132 
C 2.683901 1.55874 3 0.795609 3 0 
C 3 -0.795609 2.683901 -1.55874 2.12132 -2.12132 
C 1.55874 -2.683901 0.795609 -3 0 -3 
C -0.795609 -3 -1.55874 -2.683901 -2.12132 -2.12132 
C -2.683901 -1.55874 -3 -0.795609 -3 0 
C -3 0.795609 -2.683901 1.55874 -2.12132 2.12132 
C -1.55874 2.683901 -0.795609 3 0 3 
z
" style="stroke: #ffffff"/>
    </defs>
    <g>
     <use xlink:href="#mf6f47aa109" x="41.137031" y="14.092031" style="fill: #ffffff; stroke: #ffffff"/>
    </g>
   </g>
   <g id="text_8">
    <text style="fill: #ffffff; font: 9px 'Arial', sans-serif; text-anchor: start" x="57.337031" y="17.242031" transform="rotate(-0 57.337031 17.242031)">Unoptimized</text>
   </g>
   <g id="line2d_16">
    <defs>
     <path id="ma97e2a0002" d="M 0 3 
C 0.795609 3 1.55874 2.683901 2.12132 2.12132 
C 2.683901 1.55874 3 0.795609 3 0 
C 3 -0.795609 2.683901 -1.55874 2.12132 -2.12132 
C 1.55874 -2.683901 0.795609 -3 0 -3 
C -0.795609 -3 -1.55874 -2.683901 -2.12132 -2.12132 
C -2.683901 -1.55874 -3 -0.795609 -3 0 
C -3 0.795609 -2.683901 1.55874 -2.12132 2.12132 
C -1.55874 2.683901 -0.795609 3 0 3 
z
" style="stroke: #fcba03"/>
    </defs>
    <g>
     <use xlink:href="#ma97e2a0002" x="134.357344" y="14.092031" style="fill: #fcba03; stroke: #fcba03"/>
    </g>
   </g>
   <g id="text_9">
    <text style="fill: #ffffff; font: 9px 'Arial', sans-serif; text-anchor: start" x="150.557344" y="17.242031" transform="rotate(-0 150.557344 17.242031)">Pareto-optimal</text>
   </g>
  </g>
 </g>
 <defs>
  <clipPath id="p88ab8bcd37">
   <rect x="26.645938" y="36.18" width="206.040786" height="124.3625"/>
  </clipPath>
 </defs>
</svg>
