<?xml version="1.0" encoding="UTF-8"?>
<svg id="Layer_2" data-name="Layer 2" xmlns="http://www.w3.org/2000/svg" viewBox="0 0 233.83 249.25">
  <defs>
    <style>
      .cls-1 {
        fill: #231f20;
      }
    </style>
  </defs>
  <g id="HQ">
    <g>
      <polygon class="cls-1" points="228.48 5.36 116.29 148.73 221.76 148.73 5.36 243.89 45.12 193.09 117.55 100.52 12.08 100.52 228.48 5.36"/>
      <path class="cls-1" d="M232.51,2.22c1.44,1.85,1.43,4.44-.01,6.28L126.77,143.62h94.99c2.41,0,4.5,1.69,4.99,4.06,.5,2.36-.73,4.75-2.94,5.72L7.41,248.56c-.66,.3-1.36,.44-2.05,.44-1.54,0-3.04-.7-4.03-1.98-1.44-1.84-1.43-4.43,0-6.27l39.76-50.81L107.07,105.63H12.08c-2.41,0-4.49-1.7-4.99-4.06s.73-4.75,2.94-5.72L226.43,.68c.66-.29,1.36-.43,2.05-.43,1.54,0,3.04,.7,4.03,1.97ZM116.29,148.73L228.48,5.36,12.08,100.52H117.55L45.12,193.09,5.36,243.89l216.4-95.16H116.29Z"/>
    </g>
  </g>
</svg>