<?xml version="1.0" encoding="utf-8"?>
<svg viewBox="0 0 216 180" xmlns="http://www.w3.org/2000/svg">
  <defs>
    <clipPath id="pbdb1564a42">
      <rect x="35.875" y="12" width="178.125" height="137"/>
    </clipPath>
    <style type="text/css">*{stroke-linejoin: round; stroke-linecap: butt}</style>
  </defs>
  <g id="figure_1">
    <g id="patch_1">
      <path d="M 0 180 L 216 180 L 216 0 L 0 0 L 0 180 z " style="fill: none"/>
    </g>
    <g id="axes_1">
      <g id="patch_2">
        <path d="M 35.875 149 L 214 149 L 214 12 L 35.875 12 z " style="fill: rgba(255, 255, 255, 0);"/>
      </g>
      <g id="PathCollection_1">
        <defs>
          <path id="m24d4146bd7" d="M 0 -3 L -3 3 L 3 3 z " style="stroke: #e41a1c"/>
        </defs>
        <g clip-path="url(#pbdb1564a42)"/>
      </g>
      <g id="matplotlib.axis_1">
        <g id="xtick_1">
          <g id="line2d_1">
            <defs>
              <path id="m861ddc52cb" d="M 0 0 L 0 3.5 " style="stroke: #000000; stroke-width: 0.8"/>
            </defs>
            <g>
              <path d="M 0 0 L 0 3.5 " style="stroke-width: 0.8; stroke: rgb(35, 31, 32);" transform="matrix(1, 0, 0, 1, 80.45683288574219, 149)"/>
            </g>
          </g>
          <g id="text_1">
            <path d="M 70.859 160.868 L 71.968 160.868 L 71.968 161.361 L 70.859 161.361 L 70.859 163.158 L 70.273 163.158 L 70.273 161.361 L 66.928 161.361 L 66.928 161.029 L 70.219 156.049 L 70.859 156.049 Z M 67.646 160.868 L 70.273 160.868 L 70.273 156.805 L 70.014 157.255 Z" style="fill: rgb(35, 31, 32); line-height: normal; white-space: pre;"/>
            <path d="M 77.096 160.194 Q 77.096 161.698 76.545 162.477 Q 75.993 163.256 74.919 163.256 Q 73.864 163.256 73.303 162.492 Q 72.741 161.727 72.726 160.267 L 72.726 158.993 Q 72.726 157.494 73.283 156.722 Q 73.84 155.951 74.909 155.951 Q 75.964 155.951 76.52 156.696 Q 77.077 157.44 77.096 158.89 Z M 76.511 158.92 Q 76.511 157.699 76.113 157.074 Q 75.715 156.449 74.909 156.449 Q 74.118 156.449 73.718 157.059 Q 73.317 157.67 73.307 158.861 L 73.307 160.258 Q 73.307 161.473 73.72 162.118 Q 74.133 162.762 74.919 162.762 Q 75.7 162.762 76.103 162.133 Q 76.506 161.503 76.511 160.287 Z" style="fill: rgb(35, 31, 32); line-height: normal; white-space: pre;"/>
            <path d="M 82.636 160.194 Q 82.636 161.698 82.084 162.477 Q 81.532 163.256 80.458 163.256 Q 79.403 163.256 78.842 162.492 Q 78.28 161.727 78.265 160.267 L 78.265 158.993 Q 78.265 157.494 78.822 156.722 Q 79.379 155.951 80.448 155.951 Q 81.503 155.951 82.059 156.696 Q 82.616 157.44 82.636 158.89 Z M 82.05 158.92 Q 82.05 157.699 81.652 157.074 Q 81.254 156.449 80.448 156.449 Q 79.657 156.449 79.257 157.059 Q 78.856 157.67 78.846 158.861 L 78.846 160.258 Q 78.846 161.473 79.259 162.118 Q 79.672 162.762 80.458 162.762 Q 81.239 162.762 81.642 162.133 Q 82.045 161.503 82.05 160.287 Z" style="fill: rgb(35, 31, 32); line-height: normal; white-space: pre;"/>
            <path d="M 88.182 160.194 Q 88.182 161.698 87.631 162.477 Q 87.079 163.256 86.005 163.256 Q 84.95 163.256 84.388 162.492 Q 83.827 161.727 83.812 160.267 L 83.812 158.993 Q 83.812 157.494 84.369 156.722 Q 84.926 155.951 85.995 155.951 Q 87.05 155.951 87.606 156.696 Q 88.163 157.44 88.182 158.89 Z M 87.596 158.92 Q 87.596 157.699 87.199 157.074 Q 86.801 156.449 85.995 156.449 Q 85.204 156.449 84.803 157.059 Q 84.403 157.67 84.393 158.861 L 84.393 160.258 Q 84.393 161.473 84.806 162.118 Q 85.219 162.762 86.005 162.762 Q 86.786 162.762 87.189 162.133 Q 87.592 161.503 87.596 160.287 Z" style="fill: rgb(35, 31, 32); line-height: normal; white-space: pre;"/>
            <path d="M 93.721 160.194 Q 93.721 161.698 93.17 162.477 Q 92.618 163.256 91.544 163.256 Q 90.489 163.256 89.928 162.492 Q 89.366 161.727 89.351 160.267 L 89.351 158.993 Q 89.351 157.494 89.908 156.722 Q 90.465 155.951 91.534 155.951 Q 92.589 155.951 93.145 156.696 Q 93.702 157.44 93.721 158.89 Z M 93.136 158.92 Q 93.136 157.699 92.738 157.074 Q 92.34 156.449 91.534 156.449 Q 90.743 156.449 90.343 157.059 Q 89.942 157.67 89.932 158.861 L 89.932 160.258 Q 89.932 161.473 90.345 162.118 Q 90.758 162.762 91.544 162.762 Q 92.325 162.762 92.728 162.133 Q 93.131 161.503 93.136 160.287 Z" style="fill: rgb(35, 31, 32); line-height: normal; white-space: pre;"/>
          </g>
        </g>
        <g id="xtick_2">
          <g id="line2d_2">
            <g>
              <path d="M 0 0 L 0 3.5 " style="stroke-width: 0.8; stroke: rgb(35, 31, 32);" transform="matrix(1, 0, 0, 1, 126.47293090820312, 149)"/>
            </g>
          </g>
          <g id="text_2">
            <path d="M 113.682 159.515 L 114.029 156.049 L 117.583 156.049 L 117.583 156.591 L 114.532 156.591 L 114.283 158.993 Q 114.854 158.602 115.62 158.602 Q 116.582 158.602 117.154 159.227 Q 117.725 159.852 117.725 160.892 Q 117.725 162.015 117.168 162.636 Q 116.612 163.256 115.601 163.256 Q 114.673 163.256 114.097 162.738 Q 113.521 162.221 113.438 161.288 L 113.999 161.288 Q 114.082 162.015 114.493 162.389 Q 114.903 162.762 115.601 162.762 Q 116.363 162.762 116.751 162.279 Q 117.139 161.796 117.139 160.902 Q 117.139 160.121 116.704 159.628 Q 116.27 159.135 115.518 159.135 Q 115.103 159.135 114.795 159.24 Q 114.488 159.345 114.146 159.647 Z" style="fill: rgb(35, 31, 32); line-height: normal; white-space: pre;"/>
            <path d="M 123.113 160.194 Q 123.113 161.698 122.561 162.477 Q 122.009 163.256 120.935 163.256 Q 119.88 163.256 119.319 162.492 Q 118.757 161.727 118.743 160.267 L 118.743 158.993 Q 118.743 157.494 119.299 156.722 Q 119.856 155.951 120.925 155.951 Q 121.98 155.951 122.536 156.696 Q 123.093 157.44 123.113 158.89 Z M 122.527 158.92 Q 122.527 157.699 122.129 157.074 Q 121.731 156.449 120.925 156.449 Q 120.134 156.449 119.734 157.059 Q 119.333 157.67 119.324 158.861 L 119.324 160.258 Q 119.324 161.473 119.736 162.118 Q 120.149 162.762 120.935 162.762 Q 121.716 162.762 122.119 162.133 Q 122.522 161.503 122.527 160.287 Z" style="fill: rgb(35, 31, 32); line-height: normal; white-space: pre;"/>
            <path d="M 128.652 160.194 Q 128.652 161.698 128.1 162.477 Q 127.548 163.256 126.474 163.256 Q 125.419 163.256 124.858 162.492 Q 124.296 161.727 124.282 160.267 L 124.282 158.993 Q 124.282 157.494 124.838 156.722 Q 125.395 155.951 126.464 155.951 Q 127.519 155.951 128.076 156.696 Q 128.632 157.44 128.652 158.89 Z M 128.066 158.92 Q 128.066 157.699 127.668 157.074 Q 127.27 156.449 126.464 156.449 Q 125.673 156.449 125.273 157.059 Q 124.872 157.67 124.863 158.861 L 124.863 160.258 Q 124.863 161.473 125.275 162.118 Q 125.688 162.762 126.474 162.762 Q 127.255 162.762 127.658 162.133 Q 128.061 161.503 128.066 160.287 Z" style="fill: rgb(35, 31, 32); line-height: normal; white-space: pre;"/>
            <path d="M 134.199 160.194 Q 134.199 161.698 133.647 162.477 Q 133.095 163.256 132.021 163.256 Q 130.966 163.256 130.405 162.492 Q 129.843 161.727 129.828 160.267 L 129.828 158.993 Q 129.828 157.494 130.385 156.722 Q 130.942 155.951 132.011 155.951 Q 133.066 155.951 133.622 156.696 Q 134.179 157.44 134.199 158.89 Z M 133.613 158.92 Q 133.613 157.699 133.215 157.074 Q 132.817 156.449 132.011 156.449 Q 131.22 156.449 130.82 157.059 Q 130.419 157.67 130.41 158.861 L 130.41 160.258 Q 130.41 161.473 130.822 162.118 Q 131.235 162.762 132.021 162.762 Q 132.802 162.762 133.205 162.133 Q 133.608 161.503 133.613 160.287 Z" style="fill: rgb(35, 31, 32); line-height: normal; white-space: pre;"/>
            <path d="M 139.738 160.194 Q 139.738 161.698 139.186 162.477 Q 138.634 163.256 137.56 163.256 Q 136.505 163.256 135.944 162.492 Q 135.382 161.727 135.368 160.267 L 135.368 158.993 Q 135.368 157.494 135.924 156.722 Q 136.481 155.951 137.55 155.951 Q 138.605 155.951 139.161 156.696 Q 139.718 157.44 139.738 158.89 Z M 139.152 158.92 Q 139.152 157.699 138.754 157.074 Q 138.356 156.449 137.55 156.449 Q 136.759 156.449 136.359 157.059 Q 135.958 157.67 135.949 158.861 L 135.949 160.258 Q 135.949 161.473 136.361 162.118 Q 136.774 162.762 137.56 162.762 Q 138.341 162.762 138.744 162.133 Q 139.147 161.503 139.152 160.287 Z" style="fill: rgb(35, 31, 32); line-height: normal; white-space: pre;"/>
          </g>
        </g>
        <g id="xtick_3">
          <g id="line2d_3">
            <g>
              <path d="M 0 0 L 0 3.5 " style="stroke-width: 0.8; stroke: rgb(35, 31, 32);" transform="matrix(1, 0, 0, 1, 172.48902893066406, 149)"/>
            </g>
          </g>
          <g id="text_3">
            <path d="M 162.75 155.995 L 162.75 156.508 L 162.681 156.508 Q 161.407 156.508 160.675 157.257 Q 159.942 158.007 159.864 159.34 Q 160.157 158.934 160.611 158.712 Q 161.065 158.49 161.627 158.49 Q 162.564 158.49 163.118 159.137 Q 163.673 159.784 163.673 160.829 Q 163.673 161.522 163.414 162.079 Q 163.155 162.636 162.672 162.946 Q 162.188 163.256 161.568 163.256 Q 160.548 163.256 159.908 162.516 Q 159.268 161.776 159.268 160.604 L 159.268 160.018 Q 159.268 158.109 160.137 157.062 Q 161.007 156.014 162.603 155.995 Z M 161.534 158.993 Q 160.977 158.993 160.496 159.323 Q 160.015 159.652 159.854 160.16 L 159.854 160.658 Q 159.854 161.586 160.33 162.172 Q 160.806 162.758 161.568 162.758 Q 162.252 162.758 162.674 162.216 Q 163.096 161.674 163.096 160.848 Q 163.096 160.009 162.674 159.501 Q 162.252 158.993 161.534 158.993 Z" style="fill: rgb(35, 31, 32); line-height: normal; white-space: pre;"/>
            <path d="M 169.129 160.194 Q 169.129 161.698 168.577 162.477 Q 168.025 163.256 166.951 163.256 Q 165.896 163.256 165.335 162.492 Q 164.773 161.727 164.759 160.267 L 164.759 158.993 Q 164.759 157.494 165.315 156.722 Q 165.872 155.951 166.941 155.951 Q 167.996 155.951 168.552 156.696 Q 169.109 157.44 169.129 158.89 Z M 168.543 158.92 Q 168.543 157.699 168.145 157.074 Q 167.747 156.449 166.941 156.449 Q 166.15 156.449 165.75 157.059 Q 165.349 157.67 165.34 158.861 L 165.34 160.258 Q 165.34 161.473 165.752 162.118 Q 166.165 162.762 166.951 162.762 Q 167.732 162.762 168.135 162.133 Q 168.538 161.503 168.543 160.287 Z" style="fill: rgb(35, 31, 32); line-height: normal; white-space: pre;"/>
            <path d="M 174.668 160.194 Q 174.668 161.698 174.116 162.477 Q 173.564 163.256 172.49 163.256 Q 171.435 163.256 170.874 162.492 Q 170.312 161.727 170.298 160.267 L 170.298 158.993 Q 170.298 157.494 170.854 156.722 Q 171.411 155.951 172.48 155.951 Q 173.535 155.951 174.092 156.696 Q 174.648 157.44 174.668 158.89 Z M 174.082 158.92 Q 174.082 157.699 173.684 157.074 Q 173.286 156.449 172.48 156.449 Q 171.689 156.449 171.289 157.059 Q 170.888 157.67 170.879 158.861 L 170.879 160.258 Q 170.879 161.473 171.291 162.118 Q 171.704 162.762 172.49 162.762 Q 173.271 162.762 173.674 162.133 Q 174.077 161.503 174.082 160.287 Z" style="fill: rgb(35, 31, 32); line-height: normal; white-space: pre;"/>
            <path d="M 180.215 160.194 Q 180.215 161.698 179.663 162.477 Q 179.111 163.256 178.037 163.256 Q 176.982 163.256 176.421 162.492 Q 175.859 161.727 175.844 160.267 L 175.844 158.993 Q 175.844 157.494 176.401 156.722 Q 176.958 155.951 178.027 155.951 Q 179.082 155.951 179.638 156.696 Q 180.195 157.44 180.215 158.89 Z M 179.629 158.92 Q 179.629 157.699 179.231 157.074 Q 178.833 156.449 178.027 156.449 Q 177.236 156.449 176.836 157.059 Q 176.435 157.67 176.426 158.861 L 176.426 160.258 Q 176.426 161.473 176.838 162.118 Q 177.251 162.762 178.037 162.762 Q 178.818 162.762 179.221 162.133 Q 179.624 161.503 179.629 160.287 Z" style="fill: rgb(35, 31, 32); line-height: normal; white-space: pre;"/>
            <path d="M 185.754 160.194 Q 185.754 161.698 185.202 162.477 Q 184.65 163.256 183.576 163.256 Q 182.521 163.256 181.96 162.492 Q 181.398 161.727 181.384 160.267 L 181.384 158.993 Q 181.384 157.494 181.94 156.722 Q 182.497 155.951 183.566 155.951 Q 184.621 155.951 185.177 156.696 Q 185.734 157.44 185.754 158.89 Z M 185.168 158.92 Q 185.168 157.699 184.77 157.074 Q 184.372 156.449 183.566 156.449 Q 182.775 156.449 182.375 157.059 Q 181.974 157.67 181.965 158.861 L 181.965 160.258 Q 181.965 161.473 182.377 162.118 Q 182.79 162.762 183.576 162.762 Q 184.357 162.762 184.76 162.133 Q 185.163 161.503 185.168 160.287 Z" style="fill: rgb(35, 31, 32); line-height: normal; white-space: pre;"/>
          </g>
        </g>
        <g id="text_4">
          <path d="M 93.876 169.828 L 91.439 169.828 L 91.439 176.425 L 90.838 176.425 L 90.838 169.828 L 88.407 169.828 L 88.407 169.316 L 93.876 169.316 Z" style="fill: rgb(35, 31, 32); line-height: normal; white-space: pre;"/>
          <path d="M 96.958 171.64 Q 96.772 171.606 96.562 171.606 Q 96.015 171.606 95.637 171.911 Q 95.258 172.216 95.097 172.797 L 95.097 176.425 L 94.516 176.425 L 94.516 171.142 L 95.087 171.142 L 95.097 171.982 Q 95.561 171.044 96.586 171.044 Q 96.831 171.044 96.972 171.108 Z" style="fill: rgb(35, 31, 32); line-height: normal; white-space: pre;"/>
          <path d="M 101.023 176.425 Q 100.935 176.176 100.911 175.688 Q 100.603 176.088 100.127 176.305 Q 99.651 176.523 99.119 176.523 Q 98.357 176.523 97.886 176.098 Q 97.415 175.673 97.415 175.024 Q 97.415 174.252 98.057 173.803 Q 98.699 173.354 99.846 173.354 L 100.906 173.354 L 100.906 172.753 Q 100.906 172.187 100.557 171.862 Q 100.208 171.537 99.539 171.537 Q 98.928 171.537 98.528 171.85 Q 98.127 172.162 98.127 172.602 L 97.542 172.597 Q 97.542 171.967 98.127 171.506 Q 98.713 171.044 99.568 171.044 Q 100.452 171.044 100.962 171.486 Q 101.472 171.928 101.487 172.719 L 101.487 175.219 Q 101.487 175.986 101.648 176.366 L 101.648 176.425 Z M 99.187 176.005 Q 99.773 176.005 100.234 175.722 Q 100.696 175.439 100.906 174.965 L 100.906 173.803 L 99.861 173.803 Q 98.987 173.813 98.494 174.123 Q 98.001 174.433 98.001 174.975 Q 98.001 175.419 98.33 175.712 Q 98.66 176.005 99.187 176.005 Z" style="fill: rgb(35, 31, 32); line-height: normal; white-space: pre;"/>
          <path d="M 103.694 176.425 L 103.108 176.425 L 103.108 171.142 L 103.694 171.142 Z M 103.005 169.613 Q 103.005 169.447 103.113 169.333 Q 103.22 169.218 103.406 169.218 Q 103.591 169.218 103.701 169.333 Q 103.811 169.447 103.811 169.613 Q 103.811 169.779 103.701 169.892 Q 103.591 170.004 103.406 170.004 Q 103.22 170.004 103.113 169.892 Q 103.005 169.779 103.005 169.613 Z" style="fill: rgb(35, 31, 32); line-height: normal; white-space: pre;"/>
          <path d="M 105.838 171.142 L 105.858 172.045 Q 106.156 171.557 106.6 171.3 Q 107.044 171.044 107.582 171.044 Q 108.431 171.044 108.846 171.523 Q 109.261 172.001 109.266 172.958 L 109.266 176.425 L 108.685 176.425 L 108.685 172.953 Q 108.68 172.245 108.385 171.899 Q 108.089 171.552 107.44 171.552 Q 106.898 171.552 106.48 171.891 Q 106.063 172.231 105.863 172.807 L 105.863 176.425 L 105.282 176.425 L 105.282 171.142 Z" style="fill: rgb(35, 31, 32); line-height: normal; white-space: pre;"/>
          <path d="M 111.428 176.425 L 110.842 176.425 L 110.842 171.142 L 111.428 171.142 Z M 110.74 169.613 Q 110.74 169.447 110.847 169.333 Q 110.955 169.218 111.14 169.218 Q 111.326 169.218 111.436 169.333 Q 111.545 169.447 111.545 169.613 Q 111.545 169.779 111.436 169.892 Q 111.326 170.004 111.14 170.004 Q 110.955 170.004 110.847 169.892 Q 110.74 169.779 110.74 169.613 Z" style="fill: rgb(35, 31, 32); line-height: normal; white-space: pre;"/>
          <path d="M 113.573 171.142 L 113.592 172.045 Q 113.89 171.557 114.334 171.3 Q 114.779 171.044 115.316 171.044 Q 116.166 171.044 116.581 171.523 Q 116.996 172.001 117.001 172.958 L 117.001 176.425 L 116.419 176.425 L 116.419 172.953 Q 116.415 172.245 116.119 171.899 Q 115.824 171.552 115.174 171.552 Q 114.632 171.552 114.215 171.891 Q 113.797 172.231 113.597 172.807 L 113.597 176.425 L 113.016 176.425 L 113.016 171.142 Z" style="fill: rgb(35, 31, 32); line-height: normal; white-space: pre;"/>
          <path d="M 118.274 173.735 Q 118.274 172.494 118.823 171.769 Q 119.373 171.044 120.315 171.044 Q 121.394 171.044 121.956 171.904 L 121.985 171.142 L 122.532 171.142 L 122.532 176.318 Q 122.532 177.338 121.96 177.934 Q 121.389 178.529 120.413 178.529 Q 119.861 178.529 119.36 178.283 Q 118.86 178.036 118.572 177.626 L 118.899 177.275 Q 119.519 178.036 120.374 178.036 Q 121.106 178.036 121.516 177.604 Q 121.926 177.172 121.941 176.405 L 121.941 175.741 Q 121.379 176.523 120.305 176.523 Q 119.387 176.523 118.831 175.79 Q 118.274 175.058 118.274 173.813 Z M 118.865 173.837 Q 118.865 174.848 119.27 175.431 Q 119.675 176.015 120.413 176.015 Q 121.492 176.015 121.941 175.048 L 121.941 172.592 Q 121.736 172.084 121.35 171.818 Q 120.964 171.552 120.422 171.552 Q 119.685 171.552 119.275 172.131 Q 118.865 172.709 118.865 173.837 Z" style="fill: rgb(35, 31, 32); line-height: normal; white-space: pre;"/>
          <path d="M 131.258 169.828 L 128.822 169.828 L 128.822 176.425 L 128.221 176.425 L 128.221 169.828 L 125.79 169.828 L 125.79 169.316 L 131.258 169.316 Z" style="fill: rgb(35, 31, 32); line-height: normal; white-space: pre;"/>
          <path d="M 132.92 176.425 L 132.334 176.425 L 132.334 171.142 L 132.92 171.142 Z M 132.232 169.613 Q 132.232 169.447 132.339 169.333 Q 132.447 169.218 132.632 169.218 Q 132.818 169.218 132.928 169.333 Q 133.038 169.447 133.038 169.613 Q 133.038 169.779 132.928 169.892 Q 132.818 170.004 132.632 170.004 Q 132.447 170.004 132.339 169.892 Q 132.232 169.779 132.232 169.613 Z" style="fill: rgb(35, 31, 32); line-height: normal; white-space: pre;"/>
          <path d="M 135.041 171.142 L 135.06 172.001 Q 135.353 171.523 135.792 171.283 Q 136.232 171.044 136.769 171.044 Q 138.019 171.044 138.356 172.07 Q 138.639 171.576 139.113 171.31 Q 139.586 171.044 140.158 171.044 Q 141.857 171.044 141.891 172.9 L 141.891 176.425 L 141.305 176.425 L 141.305 172.944 Q 141.3 172.236 141 171.894 Q 140.7 171.552 140.021 171.552 Q 139.391 171.562 138.957 171.96 Q 138.522 172.358 138.473 172.929 L 138.473 176.425 L 137.887 176.425 L 137.887 172.9 Q 137.882 172.221 137.567 171.886 Q 137.252 171.552 136.598 171.552 Q 136.046 171.552 135.651 171.867 Q 135.255 172.182 135.065 172.802 L 135.065 176.425 L 134.479 176.425 L 134.479 171.142 Z" style="fill: rgb(35, 31, 32); line-height: normal; white-space: pre;"/>
          <path d="M 145.414 176.523 Q 144.74 176.523 144.195 176.191 Q 143.651 175.859 143.348 175.265 Q 143.045 174.672 143.045 173.935 L 143.045 173.725 Q 143.045 172.963 143.341 172.353 Q 143.636 171.742 144.164 171.393 Q 144.691 171.044 145.306 171.044 Q 146.268 171.044 146.832 171.701 Q 147.396 172.358 147.396 173.495 L 147.396 173.822 L 143.626 173.822 L 143.626 173.935 Q 143.626 174.833 144.142 175.431 Q 144.657 176.029 145.438 176.029 Q 145.907 176.029 146.266 175.859 Q 146.625 175.688 146.917 175.312 L 147.284 175.59 Q 146.639 176.523 145.414 176.523 Z M 145.306 171.542 Q 144.647 171.542 144.195 172.026 Q 143.744 172.509 143.646 173.324 L 146.815 173.324 L 146.815 173.261 Q 146.791 172.499 146.38 172.021 Q 145.97 171.542 145.306 171.542 Z" style="fill: rgb(35, 31, 32); line-height: normal; white-space: pre;"/>
          <path d="M 150.891 173.554 Q 150.891 172.489 151.165 171.486 Q 151.438 170.483 151.965 169.65 Q 152.493 168.818 153.098 168.456 L 153.24 168.852 Q 152.917 169.081 152.6 169.521 Q 152.283 169.96 152.034 170.566 Q 151.785 171.171 151.631 171.925 Q 151.477 172.68 151.477 173.637 Q 151.477 174.657 151.709 175.6 Q 151.941 176.542 152.346 177.262 Q 152.751 177.983 153.24 178.344 L 153.098 178.72 Q 152.478 178.349 151.951 177.521 Q 151.423 176.694 151.157 175.7 Q 150.891 174.706 150.891 173.554 Z" style="fill: rgb(35, 31, 32); line-height: normal; white-space: pre;"/>
          <path d="M 157.321 175.082 Q 157.321 174.648 156.972 174.384 Q 156.623 174.12 155.919 173.971 Q 155.216 173.822 154.828 173.63 Q 154.44 173.437 154.252 173.158 Q 154.064 172.88 154.064 172.485 Q 154.064 171.86 154.586 171.452 Q 155.109 171.044 155.924 171.044 Q 156.808 171.044 157.343 171.481 Q 157.877 171.918 157.877 172.621 L 157.292 172.621 Q 157.292 172.157 156.903 171.85 Q 156.515 171.542 155.924 171.542 Q 155.348 171.542 154.999 171.799 Q 154.65 172.055 154.65 172.465 Q 154.65 172.861 154.94 173.078 Q 155.231 173.295 156 173.476 Q 156.769 173.656 157.152 173.862 Q 157.536 174.067 157.721 174.355 Q 157.907 174.643 157.907 175.053 Q 157.907 175.722 157.367 176.122 Q 156.828 176.523 155.959 176.523 Q 155.036 176.523 154.462 176.076 Q 153.888 175.629 153.888 174.946 L 154.474 174.946 Q 154.508 175.458 154.906 175.744 Q 155.304 176.029 155.959 176.029 Q 156.569 176.029 156.945 175.761 Q 157.321 175.492 157.321 175.082 Z" style="fill: rgb(35, 31, 32); line-height: normal; white-space: pre;"/>
          <path d="M 160.967 173.627 Q 160.967 174.701 160.701 175.695 Q 160.435 176.689 159.913 177.514 Q 159.39 178.339 158.76 178.72 L 158.619 178.344 Q 159.097 178.002 159.505 177.284 Q 159.913 176.567 160.147 175.612 Q 160.381 174.657 160.381 173.539 Q 160.381 172.529 160.147 171.589 Q 159.913 170.649 159.5 169.909 Q 159.087 169.169 158.619 168.832 L 158.76 168.456 Q 159.376 168.832 159.898 169.657 Q 160.42 170.483 160.694 171.488 Q 160.967 172.494 160.967 173.627 Z" style="fill: rgb(35, 31, 32); line-height: normal; white-space: pre;"/>
        </g>
      </g>
      <g id="matplotlib.axis_2">
        <g id="ytick_1">
          <g id="line2d_4">
            <defs>
              <path id="m25261d5440" d="M 0 0 L -3.5 0 " style="stroke: #000000; stroke-width: 0.8"/>
            </defs>
            <g>
              <path d="M 0 0 L -3.5 0 " style="stroke-width: 0.8; stroke: rgb(35, 31, 32);" transform="matrix(1, 0, 0, 1, 35.875, 140.2576141357422)"/>
            </g>
          </g>
          <g id="text_5">
            <path d="M 20.354 140.873 Q 20.354 142.377 19.803 143.156 Q 19.251 143.935 18.177 143.935 Q 17.122 143.935 16.561 143.171 Q 15.999 142.406 15.984 140.946 L 15.984 139.672 Q 15.984 138.173 16.541 137.401 Q 17.098 136.63 18.167 136.63 Q 19.222 136.63 19.778 137.375 Q 20.335 138.119 20.354 139.569 Z M 19.769 139.599 Q 19.769 138.378 19.371 137.753 Q 18.973 137.128 18.167 137.128 Q 17.376 137.128 16.976 137.738 Q 16.575 138.349 16.565 139.54 L 16.565 140.937 Q 16.565 142.152 16.978 142.797 Q 17.391 143.441 18.177 143.441 Q 18.958 143.441 19.361 142.812 Q 19.764 142.182 19.769 140.966 Z" style="fill: rgb(35, 31, 32); line-height: normal; white-space: pre;"/>
            <path d="M 21.646 143.485 Q 21.646 143.315 21.755 143.195 Q 21.865 143.075 22.061 143.075 Q 22.256 143.075 22.368 143.195 Q 22.48 143.315 22.48 143.485 Q 22.48 143.656 22.368 143.766 Q 22.256 143.876 22.061 143.876 Q 21.865 143.876 21.755 143.766 Q 21.646 143.656 21.646 143.485 Z" style="fill: rgb(35, 31, 32); line-height: normal; white-space: pre;"/>
            <path d="M 24.393 140.194 L 24.739 136.728 L 28.294 136.728 L 28.294 137.27 L 25.242 137.27 L 24.993 139.672 Q 25.564 139.281 26.331 139.281 Q 27.293 139.281 27.864 139.906 Q 28.436 140.531 28.436 141.571 Q 28.436 142.694 27.879 143.315 Q 27.322 143.935 26.312 143.935 Q 25.384 143.935 24.808 143.417 Q 24.231 142.9 24.148 141.967 L 24.71 141.967 Q 24.793 142.694 25.203 143.068 Q 25.613 143.441 26.312 143.441 Q 27.073 143.441 27.461 142.958 Q 27.85 142.475 27.85 141.581 Q 27.85 140.8 27.415 140.307 Q 26.98 139.814 26.229 139.814 Q 25.813 139.814 25.506 139.919 Q 25.198 140.024 24.856 140.326 Z" style="fill: rgb(35, 31, 32); line-height: normal; white-space: pre;"/>
          </g>
        </g>
        <g id="ytick_2">
          <g id="line2d_5">
            <g>
              <path d="M 0 0 L -3.5 0 " style="stroke-width: 0.8; stroke: rgb(35, 31, 32);" transform="matrix(1, 0, 0, 1, 35.875, 116.255126953125)"/>
            </g>
          </g>
          <g id="text_6">
            <path d="M 20.354 116.87 Q 20.354 118.374 19.803 119.153 Q 19.251 119.932 18.177 119.932 Q 17.122 119.932 16.561 119.167 Q 15.999 118.403 15.984 116.943 L 15.984 115.669 Q 15.984 114.17 16.541 113.398 Q 17.098 112.627 18.167 112.627 Q 19.222 112.627 19.778 113.372 Q 20.335 114.116 20.354 115.566 Z M 19.769 115.596 Q 19.769 114.375 19.371 113.75 Q 18.973 113.125 18.167 113.125 Q 17.376 113.125 16.976 113.735 Q 16.575 114.346 16.565 115.537 L 16.565 116.934 Q 16.565 118.149 16.978 118.794 Q 17.391 119.438 18.177 119.438 Q 18.958 119.438 19.361 118.809 Q 19.764 118.179 19.769 116.963 Z" style="fill: rgb(35, 31, 32); line-height: normal; white-space: pre;"/>
            <path d="M 21.646 119.482 Q 21.646 119.312 21.755 119.192 Q 21.865 119.072 22.061 119.072 Q 22.256 119.072 22.368 119.192 Q 22.48 119.312 22.48 119.482 Q 22.48 119.653 22.368 119.763 Q 22.256 119.873 22.061 119.873 Q 21.865 119.873 21.755 119.763 Q 21.646 119.653 21.646 119.482 Z" style="fill: rgb(35, 31, 32); line-height: normal; white-space: pre;"/>
            <path d="M 27.444 112.671 L 27.444 113.184 L 27.376 113.184 Q 26.102 113.184 25.369 113.933 Q 24.637 114.683 24.559 116.016 Q 24.852 115.61 25.306 115.388 Q 25.76 115.166 26.321 115.166 Q 27.259 115.166 27.813 115.813 Q 28.367 116.46 28.367 117.505 Q 28.367 118.198 28.108 118.755 Q 27.85 119.312 27.366 119.622 Q 26.883 119.932 26.263 119.932 Q 25.242 119.932 24.603 119.192 Q 23.963 118.452 23.963 117.28 L 23.963 116.694 Q 23.963 114.785 24.832 113.738 Q 25.701 112.69 27.298 112.671 Z M 26.229 115.669 Q 25.672 115.669 25.191 115.999 Q 24.71 116.328 24.549 116.836 L 24.549 117.334 Q 24.549 118.262 25.025 118.848 Q 25.501 119.434 26.263 119.434 Q 26.946 119.434 27.369 118.892 Q 27.791 118.35 27.791 117.524 Q 27.791 116.685 27.369 116.177 Q 26.946 115.669 26.229 115.669 Z" style="fill: rgb(35, 31, 32); line-height: normal; white-space: pre;"/>
          </g>
        </g>
        <g id="ytick_3">
          <g id="line2d_6">
            <g>
              <path d="M 0 0 L -3.5 0 " style="stroke-width: 0.8; stroke: rgb(35, 31, 32);" transform="matrix(1, 0, 0, 1, 35.875, 92.25263977050781)"/>
            </g>
          </g>
          <g id="text_7">
            <path d="M 20.354 92.868 Q 20.354 94.372 19.803 95.15 Q 19.251 95.929 18.177 95.929 Q 17.122 95.929 16.561 95.165 Q 15.999 94.401 15.984 92.941 L 15.984 91.666 Q 15.984 90.167 16.541 89.396 Q 17.098 88.624 18.167 88.624 Q 19.222 88.624 19.778 89.369 Q 20.335 90.114 20.354 91.564 Z M 19.769 91.593 Q 19.769 90.373 19.371 89.748 Q 18.973 89.123 18.167 89.123 Q 17.376 89.123 16.976 89.733 Q 16.575 90.343 16.565 91.535 L 16.565 92.931 Q 16.565 94.147 16.978 94.791 Q 17.391 95.436 18.177 95.436 Q 18.958 95.436 19.361 94.806 Q 19.764 94.176 19.769 92.96 Z" style="fill: rgb(35, 31, 32); line-height: normal; white-space: pre;"/>
            <path d="M 21.646 95.48 Q 21.646 95.309 21.755 95.189 Q 21.865 95.07 22.061 95.07 Q 22.256 95.07 22.368 95.189 Q 22.48 95.309 22.48 95.48 Q 22.48 95.651 22.368 95.761 Q 22.256 95.871 22.061 95.871 Q 21.865 95.871 21.755 95.761 Q 21.646 95.651 21.646 95.48 Z" style="fill: rgb(35, 31, 32); line-height: normal; white-space: pre;"/>
            <path d="M 28.377 89.059 L 25.34 95.831 L 24.729 95.831 L 27.747 89.22 L 23.704 89.22 L 23.704 88.722 L 28.377 88.722 Z" style="fill: rgb(35, 31, 32); line-height: normal; white-space: pre;"/>
          </g>
        </g>
        <g id="ytick_4">
          <g id="line2d_7">
            <g>
              <path d="M 0 0 L -3.5 0 " style="stroke-width: 0.8; stroke: rgb(35, 31, 32);" transform="matrix(1, 0, 0, 1, 35.875, 68.25015258789062)"/>
            </g>
          </g>
          <g id="text_8">
            <path d="M 20.354 68.865 Q 20.354 70.369 19.803 71.148 Q 19.251 71.927 18.177 71.927 Q 17.122 71.927 16.561 71.163 Q 15.999 70.398 15.984 68.938 L 15.984 67.664 Q 15.984 66.165 16.541 65.394 Q 17.098 64.622 18.167 64.622 Q 19.222 64.622 19.778 65.367 Q 20.335 66.111 20.354 67.562 Z M 19.769 67.591 Q 19.769 66.37 19.371 65.745 Q 18.973 65.12 18.167 65.12 Q 17.376 65.12 16.976 65.73 Q 16.575 66.341 16.565 67.532 L 16.565 68.929 Q 16.565 70.145 16.978 70.789 Q 17.391 71.434 18.177 71.434 Q 18.958 71.434 19.361 70.804 Q 19.764 70.174 19.769 68.958 Z" style="fill: rgb(35, 31, 32); line-height: normal; white-space: pre;"/>
            <path d="M 21.646 71.478 Q 21.646 71.307 21.755 71.187 Q 21.865 71.067 22.061 71.067 Q 22.256 71.067 22.368 71.187 Q 22.48 71.307 22.48 71.478 Q 22.48 71.648 22.368 71.758 Q 22.256 71.868 22.061 71.868 Q 21.865 71.868 21.755 71.758 Q 21.646 71.648 21.646 71.478 Z" style="fill: rgb(35, 31, 32); line-height: normal; white-space: pre;"/>
            <path d="M 28.187 66.551 Q 28.187 67.103 27.864 67.54 Q 27.542 67.977 27.015 68.182 Q 27.63 68.392 28.001 68.86 Q 28.372 69.329 28.372 69.944 Q 28.372 70.857 27.752 71.392 Q 27.132 71.927 26.111 71.927 Q 25.081 71.927 24.463 71.395 Q 23.846 70.862 23.846 69.944 Q 23.846 69.339 24.202 68.865 Q 24.559 68.392 25.179 68.182 Q 24.651 67.977 24.339 67.54 Q 24.026 67.103 24.026 66.551 Q 24.026 65.667 24.595 65.145 Q 25.164 64.622 26.102 64.622 Q 27.039 64.622 27.613 65.149 Q 28.187 65.677 28.187 66.551 Z M 27.786 69.949 Q 27.786 69.285 27.313 68.858 Q 26.839 68.431 26.102 68.431 Q 25.364 68.431 24.896 68.851 Q 24.427 69.271 24.427 69.949 Q 24.427 70.628 24.881 71.031 Q 25.335 71.434 26.111 71.434 Q 26.868 71.434 27.327 71.033 Q 27.786 70.633 27.786 69.949 Z M 27.601 66.546 Q 27.601 65.936 27.178 65.528 Q 26.756 65.12 26.102 65.12 Q 25.438 65.12 25.025 65.513 Q 24.612 65.906 24.612 66.546 Q 24.612 67.171 25.025 67.552 Q 25.438 67.933 26.106 67.933 Q 26.766 67.933 27.183 67.549 Q 27.601 67.166 27.601 66.546 Z" style="fill: rgb(35, 31, 32); line-height: normal; white-space: pre;"/>
          </g>
        </g>
        <g id="ytick_5">
          <g id="line2d_8">
            <g>
              <path d="M 0 0 L -3.5 0 " style="stroke-width: 0.8; stroke: rgb(35, 31, 32);" transform="matrix(1, 0, 0, 1, 35.875, 44.24766159057617)"/>
            </g>
          </g>
          <g id="text_9">
            <path d="M 20.354 44.863 Q 20.354 46.367 19.803 47.145 Q 19.251 47.924 18.177 47.924 Q 17.122 47.924 16.561 47.16 Q 15.999 46.396 15.984 44.936 L 15.984 43.662 Q 15.984 42.163 16.541 41.391 Q 17.098 40.62 18.167 40.62 Q 19.222 40.62 19.778 41.364 Q 20.335 42.109 20.354 43.559 Z M 19.769 43.588 Q 19.769 42.368 19.371 41.743 Q 18.973 41.118 18.167 41.118 Q 17.376 41.118 16.976 41.728 Q 16.575 42.338 16.565 43.53 L 16.565 44.926 Q 16.565 46.142 16.978 46.787 Q 17.391 47.431 18.177 47.431 Q 18.958 47.431 19.361 46.801 Q 19.764 46.171 19.769 44.956 Z" style="fill: rgb(35, 31, 32); line-height: normal; white-space: pre;"/>
            <path d="M 21.646 47.475 Q 21.646 47.304 21.755 47.185 Q 21.865 47.065 22.061 47.065 Q 22.256 47.065 22.368 47.185 Q 22.48 47.304 22.48 47.475 Q 22.48 47.646 22.368 47.756 Q 22.256 47.866 22.061 47.866 Q 21.865 47.866 21.755 47.756 Q 21.646 47.646 21.646 47.475 Z" style="fill: rgb(35, 31, 32); line-height: normal; white-space: pre;"/>
            <path d="M 27.645 44.536 Q 27.332 44.995 26.868 45.246 Q 26.404 45.497 25.862 45.497 Q 25.257 45.497 24.793 45.185 Q 24.329 44.872 24.075 44.321 Q 23.821 43.769 23.821 43.115 Q 23.821 42.412 24.092 41.835 Q 24.363 41.259 24.849 40.939 Q 25.335 40.62 25.97 40.62 Q 27.039 40.62 27.635 41.369 Q 28.23 42.119 28.23 43.496 L 28.23 44.023 Q 28.23 45.947 27.41 46.914 Q 26.59 47.88 24.905 47.88 L 24.798 47.88 L 24.803 47.372 L 25.008 47.372 Q 26.282 47.353 26.946 46.65 Q 27.61 45.947 27.645 44.536 Z M 25.936 44.995 Q 26.521 44.995 26.988 44.645 Q 27.454 44.296 27.649 43.74 L 27.649 43.403 Q 27.649 42.319 27.198 41.721 Q 26.746 41.122 25.979 41.122 Q 25.286 41.122 24.842 41.682 Q 24.397 42.241 24.397 43.09 Q 24.397 43.906 24.825 44.45 Q 25.252 44.995 25.936 44.995 Z" style="fill: rgb(35, 31, 32); line-height: normal; white-space: pre;"/>
          </g>
        </g>
        <g id="ytick_6">
          <g id="line2d_9">
            <g>
              <path d="M 0 0 L -3.5 0 " style="stroke-width: 0.8; stroke: rgb(35, 31, 32);" transform="matrix(1, 0, 0, 1, 35.875, 20.245176315307617)"/>
            </g>
          </g>
          <g id="text_10">
            <path d="M 18.787 23.824 L 18.201 23.824 L 18.201 17.418 L 16.268 18.136 L 16.268 17.589 L 18.689 16.69 L 18.787 16.69 Z" style="fill: rgb(35, 31, 32); line-height: normal; white-space: pre;"/>
            <path d="M 21.646 23.473 Q 21.646 23.302 21.755 23.182 Q 21.865 23.062 22.061 23.062 Q 22.256 23.062 22.368 23.182 Q 22.48 23.302 22.48 23.473 Q 22.48 23.643 22.368 23.753 Q 22.256 23.863 22.061 23.863 Q 21.865 23.863 21.755 23.753 Q 21.646 23.643 21.646 23.473 Z" style="fill: rgb(35, 31, 32); line-height: normal; white-space: pre;"/>
            <path d="M 28.284 20.86 Q 28.284 22.364 27.732 23.143 Q 27.181 23.922 26.106 23.922 Q 25.052 23.922 24.49 23.158 Q 23.929 22.393 23.914 20.933 L 23.914 19.659 Q 23.914 18.16 24.471 17.389 Q 25.027 16.617 26.097 16.617 Q 27.151 16.617 27.708 17.362 Q 28.265 18.106 28.284 19.557 Z M 27.698 19.586 Q 27.698 18.365 27.3 17.74 Q 26.902 17.115 26.097 17.115 Q 25.306 17.115 24.905 17.725 Q 24.505 18.336 24.495 19.527 L 24.495 20.924 Q 24.495 22.14 24.908 22.784 Q 25.32 23.429 26.106 23.429 Q 26.888 23.429 27.291 22.799 Q 27.693 22.169 27.698 20.953 Z" style="fill: rgb(35, 31, 32); line-height: normal; white-space: pre;"/>
          </g>
        </g>
        <g id="text_11">
          <path d="M -39.22 77.092 L -42.545 77.092 L -42.545 79.992 L -38.721 79.992 L -38.721 80.5 L -43.145 80.5 L -43.145 73.391 L -38.746 73.391 L -38.746 73.903 L -42.545 73.903 L -42.545 76.584 L -39.22 76.584 Z" transform="matrix(0, -1, 1, 0, -71.629687, 89.370313)" style="fill: rgb(35, 31, 32); line-height: normal; white-space: pre;"/>
          <path d="M -37.038 75.217 L -37.018 76.12 Q -36.721 75.632 -36.276 75.375 Q -35.832 75.119 -35.295 75.119 Q -34.445 75.119 -34.03 75.598 Q -33.615 76.076 -33.61 77.033 L -33.61 80.5 L -34.191 80.5 L -34.191 77.028 Q -34.196 76.32 -34.492 75.974 Q -34.787 75.627 -35.436 75.627 Q -35.978 75.627 -36.396 75.966 Q -36.813 76.306 -37.013 76.882 L -37.013 80.5 L -37.595 80.5 L -37.595 75.217 Z" transform="matrix(0, -1, 1, 0, -71.629687, 89.370313)" style="fill: rgb(35, 31, 32); line-height: normal; white-space: pre;"/>
          <path d="M -30.056 80.598 Q -30.73 80.598 -31.275 80.266 Q -31.819 79.934 -32.122 79.34 Q -32.425 78.747 -32.425 78.01 L -32.425 77.8 Q -32.425 77.038 -32.129 76.428 Q -31.834 75.817 -31.306 75.468 Q -30.779 75.119 -30.164 75.119 Q -29.202 75.119 -28.638 75.776 Q -28.074 76.433 -28.074 77.57 L -28.074 77.897 L -31.844 77.897 L -31.844 78.01 Q -31.844 78.908 -31.328 79.506 Q -30.813 80.104 -30.032 80.104 Q -29.563 80.104 -29.204 79.934 Q -28.846 79.763 -28.553 79.387 L -28.186 79.665 Q -28.831 80.598 -30.056 80.598 Z M -30.164 75.617 Q -30.823 75.617 -31.275 76.101 Q -31.726 76.584 -31.824 77.399 L -28.655 77.399 L -28.655 77.336 Q -28.679 76.574 -29.09 76.096 Q -29.5 75.617 -30.164 75.617 Z" transform="matrix(0, -1, 1, 0, -71.629687, 89.370313)" style="fill: rgb(35, 31, 32); line-height: normal; white-space: pre;"/>
          <path d="M -24.497 75.715 Q -24.682 75.681 -24.892 75.681 Q -25.439 75.681 -25.818 75.986 Q -26.196 76.291 -26.357 76.872 L -26.357 80.5 L -26.938 80.5 L -26.938 75.217 L -26.367 75.217 L -26.357 76.057 Q -25.893 75.119 -24.868 75.119 Q -24.624 75.119 -24.482 75.183 Z" transform="matrix(0, -1, 1, 0, -71.629687, 89.370313)" style="fill: rgb(35, 31, 32); line-height: normal; white-space: pre;"/>
          <path d="M -23.899 77.81 Q -23.899 76.569 -23.35 75.844 Q -22.801 75.119 -21.858 75.119 Q -20.779 75.119 -20.218 75.979 L -20.188 75.217 L -19.641 75.217 L -19.641 80.393 Q -19.641 81.413 -20.213 82.009 Q -20.784 82.604 -21.761 82.604 Q -22.312 82.604 -22.813 82.358 Q -23.313 82.111 -23.601 81.701 L -23.274 81.35 Q -22.654 82.111 -21.8 82.111 Q -21.067 82.111 -20.657 81.679 Q -20.247 81.247 -20.232 80.48 L -20.232 79.816 Q -20.794 80.598 -21.868 80.598 Q -22.786 80.598 -23.343 79.865 Q -23.899 79.133 -23.899 77.888 Z M -23.308 77.912 Q -23.308 78.923 -22.903 79.506 Q -22.498 80.09 -21.761 80.09 Q -20.681 80.09 -20.232 79.123 L -20.232 76.667 Q -20.437 76.159 -20.823 75.893 Q -21.209 75.627 -21.751 75.627 Q -22.488 75.627 -22.898 76.206 Q -23.308 76.784 -23.308 77.912 Z" transform="matrix(0, -1, 1, 0, -71.629687, 89.370313)" style="fill: rgb(35, 31, 32); line-height: normal; white-space: pre;"/>
          <path d="M -16.443 79.66 L -14.9 75.217 L -14.27 75.217 L -16.526 81.398 L -16.643 81.672 Q -17.078 82.634 -17.986 82.634 Q -18.196 82.634 -18.435 82.565 L -18.44 82.082 L -18.138 82.111 Q -17.708 82.111 -17.442 81.899 Q -17.176 81.687 -16.99 81.169 L -16.731 80.456 L -18.723 75.217 L -18.084 75.217 Z" transform="matrix(0, -1, 1, 0, -71.629687, 89.370313)" style="fill: rgb(35, 31, 32); line-height: normal; white-space: pre;"/>
          <path d="M -5.767 78.283 Q -5.889 79.406 -6.571 80.002 Q -7.252 80.598 -8.385 80.598 Q -9.176 80.598 -9.784 80.202 Q -10.391 79.807 -10.723 79.082 Q -11.055 78.356 -11.06 77.424 L -11.06 76.501 Q -11.06 75.554 -10.728 74.821 Q -10.396 74.089 -9.774 73.691 Q -9.151 73.293 -8.341 73.293 Q -7.198 73.293 -6.536 73.911 Q -5.875 74.528 -5.767 75.617 L -6.373 75.617 Q -6.597 73.806 -8.341 73.806 Q -9.307 73.806 -9.881 74.528 Q -10.455 75.251 -10.455 76.525 L -10.455 77.395 Q -10.455 78.625 -9.896 79.357 Q -9.337 80.09 -8.385 80.09 Q -7.442 80.09 -6.964 79.638 Q -6.485 79.187 -6.373 78.283 Z" transform="matrix(0, -1, 1, 0, -71.629687, 89.370313)" style="fill: rgb(35, 31, 32); line-height: normal; white-space: pre;"/>
          <path d="M -4.768 77.78 Q -4.768 77.019 -4.473 76.408 Q -4.178 75.798 -3.638 75.458 Q -3.098 75.119 -2.415 75.119 Q -1.36 75.119 -0.706 75.859 Q -0.052 76.599 -0.052 77.819 L -0.052 77.941 Q -0.052 78.708 -0.347 79.321 Q -0.642 79.934 -1.179 80.266 Q -1.717 80.598 -2.405 80.598 Q -3.455 80.598 -4.112 79.858 Q -4.768 79.118 -4.768 77.897 Z M -4.182 77.941 Q -4.182 78.889 -3.692 79.497 Q -3.201 80.104 -2.405 80.104 Q -1.614 80.104 -1.123 79.497 Q -0.633 78.889 -0.633 77.893 L -0.633 77.78 Q -0.633 77.175 -0.857 76.672 Q -1.082 76.169 -1.487 75.893 Q -1.892 75.617 -2.415 75.617 Q -3.196 75.617 -3.689 76.23 Q -4.182 76.843 -4.182 77.834 Z" transform="matrix(0, -1, 1, 0, -71.629687, 89.370313)" style="fill: rgb(35, 31, 32); line-height: normal; white-space: pre;"/>
          <path d="M 1.712 75.217 L 1.732 76.12 Q 2.029 75.632 2.474 75.375 Q 2.918 75.119 3.455 75.119 Q 4.305 75.119 4.72 75.598 Q 5.135 76.076 5.14 77.033 L 5.14 80.5 L 4.559 80.5 L 4.559 77.028 Q 4.554 76.32 4.258 75.974 Q 3.963 75.627 3.314 75.627 Q 2.772 75.627 2.354 75.966 Q 1.937 76.306 1.737 76.882 L 1.737 80.5 L 1.155 80.5 L 1.155 75.217 Z" transform="matrix(0, -1, 1, 0, -71.629687, 89.370313)" style="fill: rgb(35, 31, 32); line-height: normal; white-space: pre;"/>
          <path d="M 9.812 79.157 Q 9.812 78.723 9.463 78.459 Q 9.113 78.195 8.41 78.046 Q 7.707 77.897 7.319 77.705 Q 6.931 77.512 6.743 77.233 Q 6.555 76.955 6.555 76.56 Q 6.555 75.935 7.077 75.527 Q 7.6 75.119 8.415 75.119 Q 9.299 75.119 9.834 75.556 Q 10.368 75.993 10.368 76.696 L 9.782 76.696 Q 9.782 76.232 9.394 75.925 Q 9.006 75.617 8.415 75.617 Q 7.839 75.617 7.49 75.874 Q 7.141 76.13 7.141 76.54 Q 7.141 76.936 7.431 77.153 Q 7.722 77.37 8.491 77.551 Q 9.26 77.731 9.643 77.937 Q 10.027 78.142 10.212 78.43 Q 10.398 78.718 10.398 79.128 Q 10.398 79.797 9.858 80.197 Q 9.319 80.598 8.449 80.598 Q 7.527 80.598 6.953 80.151 Q 6.379 79.704 6.379 79.021 L 6.965 79.021 Q 6.999 79.533 7.397 79.819 Q 7.795 80.104 8.449 80.104 Q 9.06 80.104 9.436 79.836 Q 9.812 79.567 9.812 79.157 Z" transform="matrix(0, -1, 1, 0, -71.629687, 89.370313)" style="fill: rgb(35, 31, 32); line-height: normal; white-space: pre;"/>
          <path d="M 15.116 79.831 Q 14.589 80.598 13.432 80.598 Q 12.587 80.598 12.148 80.107 Q 11.708 79.616 11.698 78.654 L 11.698 75.217 L 12.279 75.217 L 12.279 78.581 Q 12.279 80.09 13.5 80.09 Q 14.77 80.09 15.107 79.04 L 15.107 75.217 L 15.693 75.217 L 15.693 80.5 L 15.126 80.5 Z" transform="matrix(0, -1, 1, 0, -71.629687, 89.370313)" style="fill: rgb(35, 31, 32); line-height: normal; white-space: pre;"/>
          <path d="M 17.742 75.217 L 17.762 76.076 Q 18.055 75.598 18.494 75.358 Q 18.934 75.119 19.471 75.119 Q 20.721 75.119 21.058 76.145 Q 21.341 75.651 21.815 75.385 Q 22.288 75.119 22.86 75.119 Q 24.559 75.119 24.593 76.975 L 24.593 80.5 L 24.007 80.5 L 24.007 77.019 Q 24.002 76.311 23.702 75.969 Q 23.402 75.627 22.723 75.627 Q 22.093 75.637 21.658 76.035 Q 21.224 76.433 21.175 77.004 L 21.175 80.5 L 20.589 80.5 L 20.589 76.975 Q 20.584 76.296 20.269 75.961 Q 19.954 75.627 19.3 75.627 Q 18.748 75.627 18.353 75.942 Q 17.957 76.257 17.767 76.877 L 17.767 80.5 L 17.181 80.5 L 17.181 75.217 Z" transform="matrix(0, -1, 1, 0, -71.629687, 89.370313)" style="fill: rgb(35, 31, 32); line-height: normal; white-space: pre;"/>
          <path d="M 30.318 77.912 Q 30.318 79.147 29.771 79.873 Q 29.224 80.598 28.306 80.598 Q 27.222 80.598 26.646 79.836 L 26.646 82.531 L 26.065 82.531 L 26.065 75.217 L 26.607 75.217 L 26.636 75.964 Q 27.207 75.119 28.291 75.119 Q 29.238 75.119 29.778 75.837 Q 30.318 76.555 30.318 77.829 Z M 29.732 77.81 Q 29.732 76.799 29.317 76.213 Q 28.902 75.627 28.159 75.627 Q 27.622 75.627 27.237 75.886 Q 26.851 76.145 26.646 76.638 L 26.646 79.172 Q 26.856 79.626 27.246 79.865 Q 27.637 80.104 28.169 80.104 Q 28.906 80.104 29.319 79.516 Q 29.732 78.928 29.732 77.81 Z" transform="matrix(0, -1, 1, 0, -71.629687, 89.370313)" style="fill: rgb(35, 31, 32); line-height: normal; white-space: pre;"/>
          <path d="M 32.517 73.864 L 32.517 75.217 L 33.611 75.217 L 33.611 75.695 L 32.517 75.695 L 32.517 79.216 Q 32.517 79.655 32.675 79.87 Q 32.834 80.085 33.205 80.085 Q 33.352 80.085 33.679 80.036 L 33.703 80.515 Q 33.474 80.598 33.078 80.598 Q 32.478 80.598 32.204 80.249 Q 31.931 79.899 31.931 79.221 L 31.931 75.695 L 30.959 75.695 L 30.959 75.217 L 31.931 75.217 L 31.931 73.864 Z" transform="matrix(0, -1, 1, 0, -71.629687, 89.370313)" style="fill: rgb(35, 31, 32); line-height: normal; white-space: pre;"/>
          <path d="M 35.482 80.5 L 34.896 80.5 L 34.896 75.217 L 35.482 75.217 Z M 34.793 73.688 Q 34.793 73.522 34.901 73.408 Q 35.008 73.293 35.194 73.293 Q 35.379 73.293 35.489 73.408 Q 35.599 73.522 35.599 73.688 Q 35.599 73.854 35.489 73.967 Q 35.379 74.079 35.194 74.079 Q 35.008 74.079 34.901 73.967 Q 34.793 73.854 34.793 73.688 Z" transform="matrix(0, -1, 1, 0, -71.629687, 89.370313)" style="fill: rgb(35, 31, 32); line-height: normal; white-space: pre;"/>
          <path d="M 36.747 77.78 Q 36.747 77.019 37.043 76.408 Q 37.338 75.798 37.878 75.458 Q 38.417 75.119 39.101 75.119 Q 40.155 75.119 40.81 75.859 Q 41.464 76.599 41.464 77.819 L 41.464 77.941 Q 41.464 78.708 41.169 79.321 Q 40.873 79.934 40.336 80.266 Q 39.799 80.598 39.111 80.598 Q 38.061 80.598 37.404 79.858 Q 36.747 79.118 36.747 77.897 Z M 37.333 77.941 Q 37.333 78.889 37.824 79.497 Q 38.315 80.104 39.111 80.104 Q 39.902 80.104 40.392 79.497 Q 40.883 78.889 40.883 77.893 L 40.883 77.78 Q 40.883 77.175 40.658 76.672 Q 40.434 76.169 40.029 75.893 Q 39.623 75.617 39.101 75.617 Q 38.32 75.617 37.826 76.23 Q 37.333 76.843 37.333 77.834 Z" transform="matrix(0, -1, 1, 0, -71.629687, 89.370313)" style="fill: rgb(35, 31, 32); line-height: normal; white-space: pre;"/>
          <path d="M 43.22 75.217 L 43.239 76.12 Q 43.537 75.632 43.982 75.375 Q 44.426 75.119 44.963 75.119 Q 45.813 75.119 46.228 75.598 Q 46.643 76.076 46.648 77.033 L 46.648 80.5 L 46.067 80.5 L 46.067 77.028 Q 46.062 76.32 45.766 75.974 Q 45.471 75.627 44.821 75.627 Q 44.279 75.627 43.862 75.966 Q 43.445 76.306 43.244 76.882 L 43.244 80.5 L 42.663 80.5 L 42.663 75.217 Z" transform="matrix(0, -1, 1, 0, -71.629687, 89.370313)" style="fill: rgb(35, 31, 32); line-height: normal; white-space: pre;"/>
          <path d="M 50.515 77.629 Q 50.515 76.564 50.788 75.561 Q 51.062 74.558 51.589 73.725 Q 52.116 72.893 52.722 72.531 L 52.863 72.927 Q 52.541 73.156 52.224 73.596 Q 51.906 74.035 51.657 74.641 Q 51.408 75.246 51.255 76 Q 51.101 76.755 51.101 77.712 Q 51.101 78.732 51.333 79.675 Q 51.565 80.617 51.97 81.337 Q 52.375 82.058 52.863 82.419 L 52.722 82.795 Q 52.102 82.424 51.574 81.596 Q 51.047 80.769 50.781 79.775 Q 50.515 78.781 50.515 77.629 Z" transform="matrix(0, -1, 1, 0, -71.629687, 89.370313)" style="fill: rgb(35, 31, 32); line-height: normal; white-space: pre;"/>
          <path d="M 57.057 73.391 L 57.662 73.391 L 57.662 78.386 Q 57.662 79.396 57.079 79.997 Q 56.495 80.598 55.514 80.598 Q 54.479 80.598 53.922 80.056 Q 53.365 79.514 53.365 78.542 L 53.966 78.542 Q 53.966 79.313 54.371 79.702 Q 54.777 80.09 55.514 80.09 Q 56.193 80.09 56.62 79.641 Q 57.047 79.191 57.057 78.42 Z" transform="matrix(0, -1, 1, 0, -71.629687, 89.370313)" style="fill: rgb(35, 31, 32); line-height: normal; white-space: pre;"/>
          <path d="M 61.029 77.702 Q 61.029 78.776 60.762 79.77 Q 60.496 80.764 59.974 81.589 Q 59.451 82.414 58.821 82.795 L 58.68 82.419 Q 59.158 82.077 59.566 81.359 Q 59.974 80.642 60.208 79.687 Q 60.443 78.732 60.443 77.614 Q 60.443 76.604 60.208 75.664 Q 59.974 74.724 59.561 73.984 Q 59.149 73.244 58.68 72.907 L 58.821 72.531 Q 59.437 72.907 59.959 73.732 Q 60.482 74.558 60.755 75.563 Q 61.029 76.569 61.029 77.702 Z" transform="matrix(0, -1, 1, 0, -71.629687, 89.370313)" style="fill: rgb(35, 31, 32); line-height: normal; white-space: pre;"/>
        </g>
        <g id="text_12">
          <path d="M 39.264 9 L 38.678 9 L 38.678 2.594 L 36.744 3.312 L 36.744 2.765 L 39.166 1.866 L 39.264 1.866 Z" style="fill: rgb(35, 31, 32); line-height: normal; white-space: pre;"/>
          <path d="M 44.222 9.098 Q 43.548 9.098 43.003 8.766 Q 42.459 8.434 42.156 7.84 Q 41.854 7.247 41.854 6.51 L 41.854 6.3 Q 41.854 5.538 42.149 4.928 Q 42.444 4.317 42.972 3.968 Q 43.499 3.619 44.114 3.619 Q 45.076 3.619 45.64 4.276 Q 46.204 4.933 46.204 6.07 L 46.204 6.397 L 42.435 6.397 L 42.435 6.51 Q 42.435 7.408 42.95 8.006 Q 43.465 8.604 44.246 8.604 Q 44.715 8.604 45.074 8.434 Q 45.433 8.263 45.726 7.887 L 46.092 8.165 Q 45.447 9.098 44.222 9.098 Z M 44.114 4.117 Q 43.455 4.117 43.003 4.601 Q 42.552 5.084 42.454 5.899 L 45.623 5.899 L 45.623 5.836 Q 45.599 5.074 45.188 4.596 Q 44.778 4.117 44.114 4.117 Z" style="fill: rgb(35, 31, 32); line-height: normal; white-space: pre;"/>
          <path d="M 51.627 2.228 L 48.59 9 L 47.979 9 L 50.997 2.389 L 46.954 2.389 L 46.954 1.891 L 51.627 1.891 Z" style="fill: rgb(35, 31, 32); line-height: normal; white-space: pre;"/>
        </g>
      </g>
      <g id="line2d_10">
        <path d="M 161.347838 129.428571 L 125.923781 124.949355 L 107.041315 119.930672 L 101.662475 110.119257 L 92.571296 96.380955 L 87.161432 81.96903 L 80.40625 72.736704 " clip-path="url(#pbdb1564a42)" style="fill: none; stroke-width: 1.5; stroke-linecap: square; stroke: rgb(235, 188, 0);"/>
        <defs>
          <path id="md04c87fcfd" d="M 0 3 C 0.795609 3 1.55874 2.683901 2.12132 2.12132 C 2.683901 1.55874 3 0.795609 3 0 C 3 -0.795609 2.683901 -1.55874 2.12132 -2.12132 C 1.55874 -2.683901 0.795609 -3 0 -3 C -0.795609 -3 -1.55874 -2.683901 -2.12132 -2.12132 C -2.683901 -1.55874 -3 -0.795609 -3 0 C -3 0.795609 -2.683901 1.55874 -2.12132 2.12132 C -1.55874 2.683901 -0.795609 3 0 3 z " style="stroke: #4daf4a"/>
        </defs>
        <g clip-path="url(#pbdb1564a42)">
          <path d="M 0 3 C 0.795609 3 1.55874 2.683901 2.12132 2.12132 C 2.683901 1.55874 3 0.795609 3 0 C 3 -0.795609 2.683901 -1.55874 2.12132 -2.12132 C 1.55874 -2.683901 0.795609 -3 0 -3 C -0.795609 -3 -1.55874 -2.683901 -2.12132 -2.12132 C -2.683901 -1.55874 -3 -0.795609 -3 0 C -3 0.795609 -2.683901 1.55874 -2.12132 2.12132 C -1.55874 2.683901 -0.795609 3 0 3 z " style="stroke: rgb(235, 188, 0); fill: rgb(235, 188, 0);" transform="matrix(1, 0, 0, 1, 161.34783935546875, 129.42857360839844)"/>
          <path d="M 0 3 C 0.795609 3 1.55874 2.683901 2.12132 2.12132 C 2.683901 1.55874 3 0.795609 3 0 C 3 -0.795609 2.683901 -1.55874 2.12132 -2.12132 C 1.55874 -2.683901 0.795609 -3 0 -3 C -0.795609 -3 -1.55874 -2.683901 -2.12132 -2.12132 C -2.683901 -1.55874 -3 -0.795609 -3 0 C -3 0.795609 -2.683901 1.55874 -2.12132 2.12132 C -1.55874 2.683901 -0.795609 3 0 3 z " style="stroke: rgb(235, 188, 0); fill: rgb(235, 188, 0);" transform="matrix(1, 0, 0, 1, 125.92378234863281, 124.94935607910156)"/>
          <path d="M 0 3 C 0.795609 3 1.55874 2.683901 2.12132 2.12132 C 2.683901 1.55874 3 0.795609 3 0 C 3 -0.795609 2.683901 -1.55874 2.12132 -2.12132 C 1.55874 -2.683901 0.795609 -3 0 -3 C -0.795609 -3 -1.55874 -2.683901 -2.12132 -2.12132 C -2.683901 -1.55874 -3 -0.795609 -3 0 C -3 0.795609 -2.683901 1.55874 -2.12132 2.12132 C -1.55874 2.683901 -0.795609 3 0 3 z " style="stroke: rgb(235, 188, 0); fill: rgb(235, 188, 0);" transform="matrix(1, 0, 0, 1, 107.04131317138672, 119.93067169189453)"/>
          <path d="M 0 3 C 0.795609 3 1.55874 2.683901 2.12132 2.12132 C 2.683901 1.55874 3 0.795609 3 0 C 3 -0.795609 2.683901 -1.55874 2.12132 -2.12132 C 1.55874 -2.683901 0.795609 -3 0 -3 C -0.795609 -3 -1.55874 -2.683901 -2.12132 -2.12132 C -2.683901 -1.55874 -3 -0.795609 -3 0 C -3 0.795609 -2.683901 1.55874 -2.12132 2.12132 C -1.55874 2.683901 -0.795609 3 0 3 z " style="stroke: rgb(235, 188, 0); fill: rgb(235, 188, 0);" transform="matrix(1, 0, 0, 1, 101.6624755859375, 110.11925506591797)"/>
          <path d="M 0 3 C 0.795609 3 1.55874 2.683901 2.12132 2.12132 C 2.683901 1.55874 3 0.795609 3 0 C 3 -0.795609 2.683901 -1.55874 2.12132 -2.12132 C 1.55874 -2.683901 0.795609 -3 0 -3 C -0.795609 -3 -1.55874 -2.683901 -2.12132 -2.12132 C -2.683901 -1.55874 -3 -0.795609 -3 0 C -3 0.795609 -2.683901 1.55874 -2.12132 2.12132 C -1.55874 2.683901 -0.795609 3 0 3 z " style="stroke: rgb(235, 188, 0); fill: rgb(235, 188, 0);" transform="matrix(1, 0, 0, 1, 92.57129669189453, 96.3809585571289)"/>
          <path d="M 0 3 C 0.795609 3 1.55874 2.683901 2.12132 2.12132 C 2.683901 1.55874 3 0.795609 3 0 C 3 -0.795609 2.683901 -1.55874 2.12132 -2.12132 C 1.55874 -2.683901 0.795609 -3 0 -3 C -0.795609 -3 -1.55874 -2.683901 -2.12132 -2.12132 C -2.683901 -1.55874 -3 -0.795609 -3 0 C -3 0.795609 -2.683901 1.55874 -2.12132 2.12132 C -1.55874 2.683901 -0.795609 3 0 3 z " style="stroke: rgb(235, 188, 0); fill: rgb(235, 188, 0);" transform="matrix(1, 0, 0, 1, 87.16143035888672, 81.96903228759766)"/>
          <path d="M 0 3 C 0.795609 3 1.55874 2.683901 2.12132 2.12132 C 2.683901 1.55874 3 0.795609 3 0 C 3 -0.795609 2.683901 -1.55874 2.12132 -2.12132 C 1.55874 -2.683901 0.795609 -3 0 -3 C -0.795609 -3 -1.55874 -2.683901 -2.12132 -2.12132 C -2.683901 -1.55874 -3 -0.795609 -3 0 C -3 0.795609 -2.683901 1.55874 -2.12132 2.12132 C -1.55874 2.683901 -0.795609 3 0 3 z " style="stroke: rgb(235, 188, 0); fill: rgb(235, 188, 0);" transform="matrix(1, 0, 0, 1, 80.40625, 72.73670196533203)"/>
        </g>
      </g>
      <g id="patch_3">
        <path d="M 35.875 149 L 35.875 12 " style="fill: none; stroke-width: 0.8; stroke-linejoin: miter; stroke-linecap: square; stroke: rgb(35, 31, 32);"/>
      </g>
      <g id="patch_4">
        <path d="M 214 149 L 214 12 " style="fill: none; stroke-width: 0.8; stroke-linejoin: miter; stroke-linecap: square; stroke: rgb(35, 31, 32);"/>
      </g>
      <g id="patch_5">
        <path d="M 35.875 149 L 214 149 " style="fill: none; stroke-width: 0.8; stroke-linejoin: miter; stroke-linecap: square; stroke: rgb(35, 31, 32);"/>
      </g>
      <g id="patch_6">
        <path d="M 35.875 12 L 214 12 " style="fill: none; stroke-width: 0.8; stroke-linejoin: miter; stroke-linecap: square; stroke: rgb(35, 31, 32);"/>
      </g>
      <g id="text_13"/>
      <g id="text_14">
        <path d="M 167.922 123.331 L 168.407 123.331 Q 168.809 123.331 169.11 123.189 Q 169.411 123.046 169.569 122.798 Q 169.727 122.55 169.727 122.226 Q 169.727 121.679 169.418 121.37 Q 169.11 121.062 168.532 121.062 Q 167.985 121.062 167.635 121.384 Q 167.286 121.706 167.286 122.234 L 166.817 122.234 Q 166.817 121.792 167.039 121.427 Q 167.262 121.062 167.657 120.863 Q 168.051 120.663 168.532 120.663 Q 169.305 120.663 169.75 121.085 Q 170.196 121.507 170.196 122.242 Q 170.196 122.652 169.936 122.997 Q 169.676 123.343 169.223 123.515 Q 169.754 123.663 170.028 124.025 Q 170.301 124.386 170.301 124.886 Q 170.301 125.617 169.825 126.062 Q 169.348 126.507 168.551 126.507 Q 168.043 126.507 167.619 126.304 Q 167.196 126.101 166.963 125.736 Q 166.731 125.37 166.731 124.886 L 167.2 124.886 Q 167.2 125.429 167.578 125.771 Q 167.957 126.113 168.551 126.113 Q 169.157 126.113 169.494 125.802 Q 169.832 125.492 169.832 124.902 Q 169.832 124.331 169.467 124.031 Q 169.102 123.73 168.391 123.73 L 167.922 123.73 Z" style="fill: rgb(35, 31, 32); line-height: normal; white-space: pre;"/>
        <path d="M 174.875 126.429 L 171.313 126.429 L 171.313 126.07 L 173.262 123.859 Q 173.746 123.3 173.934 122.937 Q 174.121 122.574 174.121 122.23 Q 174.121 121.691 173.805 121.376 Q 173.489 121.062 172.934 121.062 Q 172.36 121.062 172.006 121.429 Q 171.653 121.796 171.653 122.382 L 171.188 122.382 Q 171.188 121.902 171.405 121.507 Q 171.621 121.113 172.022 120.888 Q 172.422 120.663 172.934 120.663 Q 173.715 120.663 174.155 121.074 Q 174.594 121.484 174.594 122.191 Q 174.594 122.589 174.346 123.062 Q 174.098 123.534 173.473 124.242 L 171.887 126.034 L 174.875 126.034 Z" style="fill: rgb(35, 31, 32); line-height: normal; white-space: pre;"/>
        <path d="M 175.727 127.492 L 175.45 127.288 Q 175.805 126.812 175.817 126.3 L 175.817 125.695 L 176.274 125.695 L 176.274 126.183 Q 176.274 126.995 175.727 127.492 Z" style="fill: rgb(35, 31, 32); line-height: normal; white-space: pre;"/>
        <path d="M 181.403 126.429 L 180.934 126.429 L 180.934 121.304 L 179.387 121.878 L 179.387 121.441 L 181.325 120.722 L 181.403 120.722 Z" style="fill: rgb(35, 31, 32); line-height: normal; white-space: pre;"/>
        <path d="M 187.086 124.058 Q 187.086 125.261 186.645 125.884 Q 186.203 126.507 185.344 126.507 Q 184.5 126.507 184.051 125.896 Q 183.602 125.284 183.59 124.117 L 183.59 123.097 Q 183.59 121.898 184.036 121.281 Q 184.481 120.663 185.336 120.663 Q 186.18 120.663 186.625 121.259 Q 187.071 121.855 187.086 123.015 Z M 186.618 123.038 Q 186.618 122.062 186.299 121.562 Q 185.981 121.062 185.336 121.062 Q 184.703 121.062 184.383 121.55 Q 184.063 122.038 184.055 122.992 L 184.055 124.109 Q 184.055 125.081 184.385 125.597 Q 184.715 126.113 185.344 126.113 Q 185.969 126.113 186.291 125.609 Q 186.614 125.105 186.618 124.132 Z" style="fill: rgb(35, 31, 32); line-height: normal; white-space: pre;"/>
        <path d="M 191.524 124.058 Q 191.524 125.261 191.082 125.884 Q 190.641 126.507 189.782 126.507 Q 188.938 126.507 188.489 125.896 Q 188.039 125.284 188.028 124.117 L 188.028 123.097 Q 188.028 121.898 188.473 121.281 Q 188.918 120.663 189.774 120.663 Q 190.618 120.663 191.063 121.259 Q 191.508 121.855 191.524 123.015 Z M 191.055 123.038 Q 191.055 122.062 190.737 121.562 Q 190.418 121.062 189.774 121.062 Q 189.141 121.062 188.821 121.55 Q 188.5 122.038 188.493 122.992 L 188.493 124.109 Q 188.493 125.081 188.823 125.597 Q 189.153 126.113 189.782 126.113 Q 190.407 126.113 190.729 125.609 Q 191.051 125.105 191.055 124.132 Z" style="fill: rgb(35, 31, 32); line-height: normal; white-space: pre;"/>
        <path d="M 193.758 124.894 L 193.934 125.777 L 194.149 124.933 L 195.383 120.742 L 195.817 120.742 L 197.036 124.933 L 197.246 125.784 L 197.434 124.894 L 198.461 120.742 L 198.953 120.742 L 197.496 126.429 L 197.036 126.429 L 195.746 121.98 L 195.602 121.417 L 195.461 121.98 L 194.141 126.429 L 193.68 126.429 L 192.227 120.742 L 192.719 120.742 Z" style="fill: rgb(35, 31, 32); line-height: normal; white-space: pre;"/>
      </g>
      <g id="text_15" transform="matrix(1, 0, 0, 1, 0.660093, 0.754276)">
        <path d="M 134.33 120.117 L 135.217 120.117 L 135.217 120.511 L 134.33 120.511 L 134.33 121.949 L 133.861 121.949 L 133.861 120.511 L 131.186 120.511 L 131.186 120.246 L 133.819 116.261 L 134.33 116.261 Z M 131.76 120.117 L 133.861 120.117 L 133.861 116.867 L 133.654 117.226 Z" style="fill: rgb(35, 31, 32); line-height: normal; white-space: pre;"/>
        <path d="M 139.24 117.726 Q 139.24 118.168 138.983 118.517 Q 138.725 118.867 138.303 119.031 Q 138.795 119.199 139.092 119.574 Q 139.389 119.949 139.389 120.441 Q 139.389 121.172 138.893 121.599 Q 138.397 122.027 137.58 122.027 Q 136.756 122.027 136.262 121.601 Q 135.768 121.176 135.768 120.441 Q 135.768 119.957 136.053 119.578 Q 136.338 119.199 136.834 119.031 Q 136.412 118.867 136.162 118.517 Q 135.912 118.168 135.912 117.726 Q 135.912 117.019 136.367 116.601 Q 136.822 116.183 137.572 116.183 Q 138.322 116.183 138.781 116.605 Q 139.24 117.027 139.24 117.726 Z M 138.92 120.445 Q 138.92 119.914 138.541 119.572 Q 138.162 119.23 137.572 119.23 Q 136.983 119.23 136.608 119.566 Q 136.233 119.902 136.233 120.445 Q 136.233 120.988 136.596 121.31 Q 136.959 121.633 137.58 121.633 Q 138.186 121.633 138.553 121.312 Q 138.92 120.992 138.92 120.445 Z M 138.772 117.722 Q 138.772 117.234 138.434 116.908 Q 138.096 116.582 137.572 116.582 Q 137.041 116.582 136.711 116.896 Q 136.381 117.211 136.381 117.722 Q 136.381 118.222 136.711 118.527 Q 137.041 118.832 137.576 118.832 Q 138.104 118.832 138.438 118.525 Q 138.772 118.219 138.772 117.722 Z" style="fill: rgb(35, 31, 32); line-height: normal; white-space: pre;"/>
        <path d="M 140.303 123.011 L 140.026 122.808 Q 140.381 122.332 140.393 121.82 L 140.393 121.215 L 140.85 121.215 L 140.85 121.703 Q 140.85 122.515 140.303 123.011 Z" style="fill: rgb(35, 31, 32); line-height: normal; white-space: pre;"/>
        <path d="M 145.979 121.949 L 145.51 121.949 L 145.51 116.824 L 143.963 117.398 L 143.963 116.961 L 145.901 116.242 L 145.979 116.242 Z" style="fill: rgb(35, 31, 32); line-height: normal; white-space: pre;"/>
        <path d="M 151.795 121.949 L 148.233 121.949 L 148.233 121.59 L 150.182 119.379 Q 150.666 118.82 150.854 118.457 Q 151.041 118.094 151.041 117.75 Q 151.041 117.211 150.725 116.896 Q 150.408 116.582 149.854 116.582 Q 149.279 116.582 148.926 116.949 Q 148.572 117.316 148.572 117.902 L 148.108 117.902 Q 148.108 117.422 148.324 117.027 Q 148.541 116.633 148.942 116.408 Q 149.342 116.183 149.854 116.183 Q 150.635 116.183 151.074 116.594 Q 151.514 117.004 151.514 117.711 Q 151.514 118.109 151.266 118.582 Q 151.018 119.054 150.393 119.761 L 148.807 121.554 L 151.795 121.554 Z" style="fill: rgb(35, 31, 32); line-height: normal; white-space: pre;"/>
        <path d="M 152.986 119.035 L 153.264 116.261 L 156.108 116.261 L 156.108 116.695 L 153.666 116.695 L 153.467 118.617 Q 153.924 118.304 154.537 118.304 Q 155.307 118.304 155.764 118.804 Q 156.221 119.304 156.221 120.136 Q 156.221 121.035 155.776 121.531 Q 155.33 122.027 154.522 122.027 Q 153.779 122.027 153.319 121.613 Q 152.858 121.199 152.791 120.453 L 153.24 120.453 Q 153.307 121.035 153.635 121.334 Q 153.963 121.633 154.522 121.633 Q 155.131 121.633 155.442 121.246 Q 155.752 120.859 155.752 120.144 Q 155.752 119.519 155.404 119.125 Q 155.057 118.73 154.455 118.73 Q 154.123 118.73 153.877 118.814 Q 153.631 118.898 153.358 119.14 Z" style="fill: rgb(35, 31, 32); line-height: normal; white-space: pre;"/>
        <path d="M 158.334 120.414 L 158.51 121.297 L 158.725 120.453 L 159.959 116.261 L 160.393 116.261 L 161.611 120.453 L 161.822 121.304 L 162.01 120.414 L 163.037 116.261 L 163.529 116.261 L 162.072 121.949 L 161.611 121.949 L 160.322 117.5 L 160.178 116.937 L 160.037 117.5 L 158.717 121.949 L 158.256 121.949 L 156.803 116.261 L 157.295 116.261 Z" style="fill: rgb(35, 31, 32); line-height: normal; white-space: pre;"/>
      </g>
      <g id="text_16" transform="matrix(1, 0, 0, 1, -1.296641, -1.968912)">
        <path d="M 115.447 115.099 L 116.334 115.099 L 116.334 115.493 L 115.447 115.493 L 115.447 116.931 L 114.979 116.931 L 114.979 115.493 L 112.303 115.493 L 112.303 115.228 L 114.936 111.243 L 115.447 111.243 Z M 112.877 115.099 L 114.979 115.099 L 114.979 111.849 L 114.771 112.208 Z" style="fill: rgb(35, 31, 32); line-height: normal; white-space: pre;"/>
        <path d="M 120.357 112.708 Q 120.357 113.15 120.1 113.499 Q 119.842 113.849 119.42 114.013 Q 119.912 114.181 120.209 114.556 Q 120.506 114.931 120.506 115.423 Q 120.506 116.154 120.01 116.581 Q 119.514 117.009 118.697 117.009 Q 117.873 117.009 117.379 116.583 Q 116.885 116.158 116.885 115.423 Q 116.885 114.939 117.17 114.56 Q 117.455 114.181 117.951 114.013 Q 117.529 113.849 117.279 113.499 Q 117.029 113.15 117.029 112.708 Q 117.029 112.001 117.484 111.583 Q 117.939 111.165 118.689 111.165 Q 119.439 111.165 119.898 111.587 Q 120.357 112.009 120.357 112.708 Z M 120.037 115.427 Q 120.037 114.896 119.658 114.554 Q 119.279 114.212 118.689 114.212 Q 118.1 114.212 117.725 114.548 Q 117.35 114.884 117.35 115.427 Q 117.35 115.97 117.713 116.292 Q 118.076 116.615 118.697 116.615 Q 119.303 116.615 119.67 116.294 Q 120.037 115.974 120.037 115.427 Z M 119.889 112.704 Q 119.889 112.216 119.551 111.89 Q 119.213 111.564 118.689 111.564 Q 118.158 111.564 117.828 111.878 Q 117.498 112.193 117.498 112.704 Q 117.498 113.204 117.828 113.509 Q 118.158 113.814 118.693 113.814 Q 119.221 113.814 119.555 113.507 Q 119.889 113.201 119.889 112.704 Z" style="fill: rgb(35, 31, 32); line-height: normal; white-space: pre;"/>
        <path d="M 121.42 117.993 L 121.143 117.79 Q 121.498 117.314 121.51 116.802 L 121.51 116.197 L 121.967 116.197 L 121.967 116.685 Q 121.967 117.497 121.42 117.993 Z" style="fill: rgb(35, 31, 32); line-height: normal; white-space: pre;"/>
        <path d="M 127.096 116.931 L 126.627 116.931 L 126.627 111.806 L 125.08 112.38 L 125.08 111.943 L 127.018 111.224 L 127.096 111.224 Z" style="fill: rgb(35, 31, 32); line-height: normal; white-space: pre;"/>
        <path d="M 129.666 114.017 L 129.943 111.243 L 132.787 111.243 L 132.787 111.677 L 130.346 111.677 L 130.146 113.599 Q 130.604 113.286 131.217 113.286 Q 131.986 113.286 132.443 113.786 Q 132.9 114.286 132.9 115.118 Q 132.9 116.017 132.455 116.513 Q 132.01 117.009 131.201 117.009 Q 130.459 117.009 129.998 116.595 Q 129.537 116.181 129.471 115.435 L 129.92 115.435 Q 129.986 116.017 130.314 116.316 Q 130.643 116.615 131.201 116.615 Q 131.811 116.615 132.121 116.228 Q 132.432 115.841 132.432 115.126 Q 132.432 114.501 132.084 114.107 Q 131.736 113.712 131.135 113.712 Q 130.803 113.712 130.557 113.796 Q 130.311 113.88 130.037 114.122 Z" style="fill: rgb(35, 31, 32); line-height: normal; white-space: pre;"/>
        <path d="M 137.217 114.56 Q 137.217 115.763 136.775 116.386 Q 136.334 117.009 135.475 117.009 Q 134.631 117.009 134.182 116.398 Q 133.732 115.786 133.721 114.618 L 133.721 113.599 Q 133.721 112.4 134.166 111.783 Q 134.611 111.165 135.467 111.165 Q 136.311 111.165 136.756 111.761 Q 137.201 112.357 137.217 113.517 Z M 136.748 113.54 Q 136.748 112.564 136.43 112.064 Q 136.111 111.564 135.467 111.564 Q 134.834 111.564 134.514 112.052 Q 134.193 112.54 134.186 113.493 L 134.186 114.611 Q 134.186 115.583 134.516 116.099 Q 134.846 116.615 135.475 116.615 Q 136.1 116.615 136.422 116.111 Q 136.744 115.607 136.748 114.634 Z" style="fill: rgb(35, 31, 32); line-height: normal; white-space: pre;"/>
        <path d="M 139.451 115.396 L 139.627 116.279 L 139.842 115.435 L 141.076 111.243 L 141.51 111.243 L 142.729 115.435 L 142.939 116.286 L 143.127 115.396 L 144.154 111.243 L 144.646 111.243 L 143.189 116.931 L 142.729 116.931 L 141.439 112.482 L 141.295 111.919 L 141.154 112.482 L 139.834 116.931 L 139.373 116.931 L 137.92 111.243 L 138.412 111.243 Z" style="fill: rgb(35, 31, 32); line-height: normal; white-space: pre;"/>
      </g>
      <g id="text_17" transform="matrix(1, 0, 0, 1, -1.820331, -2.586786)">
        <path d="M 110.068 105.287 L 110.955 105.287 L 110.955 105.682 L 110.068 105.682 L 110.068 107.119 L 109.6 107.119 L 109.6 105.682 L 106.924 105.682 L 106.924 105.416 L 109.557 101.432 L 110.068 101.432 Z M 107.498 105.287 L 109.6 105.287 L 109.6 102.037 L 109.392 102.396 Z" style="fill: rgb(35, 31, 32); line-height: normal; white-space: pre;"/>
        <path d="M 114.978 102.896 Q 114.978 103.338 114.721 103.687 Q 114.463 104.037 114.041 104.201 Q 114.533 104.369 114.83 104.744 Q 115.127 105.119 115.127 105.611 Q 115.127 106.342 114.631 106.769 Q 114.135 107.197 113.318 107.197 Q 112.494 107.197 112 106.771 Q 111.506 106.346 111.506 105.611 Q 111.506 105.127 111.791 104.748 Q 112.076 104.369 112.572 104.201 Q 112.15 104.037 111.9 103.687 Q 111.65 103.338 111.65 102.896 Q 111.65 102.189 112.105 101.771 Q 112.56 101.353 113.31 101.353 Q 114.06 101.353 114.519 101.775 Q 114.978 102.197 114.978 102.896 Z M 114.658 105.615 Q 114.658 105.084 114.279 104.742 Q 113.9 104.4 113.31 104.4 Q 112.721 104.4 112.346 104.736 Q 111.971 105.072 111.971 105.615 Q 111.971 106.158 112.334 106.48 Q 112.697 106.803 113.318 106.803 Q 113.924 106.803 114.291 106.482 Q 114.658 106.162 114.658 105.615 Z M 114.51 102.892 Q 114.51 102.404 114.172 102.078 Q 113.834 101.752 113.31 101.752 Q 112.779 101.752 112.449 102.066 Q 112.119 102.381 112.119 102.892 Q 112.119 103.392 112.449 103.697 Q 112.779 104.002 113.314 104.002 Q 113.842 104.002 114.176 103.695 Q 114.51 103.389 114.51 102.892 Z" style="fill: rgb(35, 31, 32); line-height: normal; white-space: pre;"/>
        <path d="M 116.041 108.182 L 115.764 107.978 Q 116.119 107.502 116.131 106.99 L 116.131 106.385 L 116.588 106.385 L 116.588 106.873 Q 116.588 107.685 116.041 108.182 Z" style="fill: rgb(35, 31, 32); line-height: normal; white-space: pre;"/>
        <path d="M 121.717 107.119 L 121.248 107.119 L 121.248 101.994 L 119.701 102.568 L 119.701 102.131 L 121.639 101.412 L 121.717 101.412 Z" style="fill: rgb(35, 31, 32); line-height: normal; white-space: pre;"/>
        <path d="M 127.475 101.701 L 125.045 107.119 L 124.557 107.119 L 126.971 101.83 L 123.736 101.83 L 123.736 101.432 L 127.475 101.432 Z" style="fill: rgb(35, 31, 32); line-height: normal; white-space: pre;"/>
        <path d="M 128.725 104.205 L 129.002 101.432 L 131.846 101.432 L 131.846 101.865 L 129.404 101.865 L 129.205 103.787 Q 129.662 103.474 130.275 103.474 Q 131.045 103.474 131.502 103.974 Q 131.959 104.474 131.959 105.307 Q 131.959 106.205 131.514 106.701 Q 131.068 107.197 130.26 107.197 Q 129.517 107.197 129.057 106.783 Q 128.596 106.369 128.529 105.623 L 128.978 105.623 Q 129.045 106.205 129.373 106.504 Q 129.701 106.803 130.26 106.803 Q 130.869 106.803 131.18 106.416 Q 131.49 106.029 131.49 105.314 Q 131.49 104.689 131.142 104.295 Q 130.795 103.9 130.193 103.9 Q 129.861 103.9 129.615 103.984 Q 129.369 104.068 129.096 104.31 Z" style="fill: rgb(35, 31, 32); line-height: normal; white-space: pre;"/>
        <path d="M 134.072 105.584 L 134.248 106.467 L 134.463 105.623 L 135.697 101.432 L 136.131 101.432 L 137.35 105.623 L 137.56 106.474 L 137.748 105.584 L 138.775 101.432 L 139.267 101.432 L 137.81 107.119 L 137.35 107.119 L 136.06 102.67 L 135.916 102.107 L 135.775 102.67 L 134.455 107.119 L 133.994 107.119 L 132.541 101.432 L 133.033 101.432 Z" style="fill: rgb(35, 31, 32); line-height: normal; white-space: pre;"/>
      </g>
      <g id="text_18" transform="matrix(1, 0, 0, 1, -0.48147, -0.958069)">
        <path d="M 100.978 91.549 L 101.864 91.549 L 101.864 91.943 L 100.978 91.943 L 100.978 93.381 L 100.509 93.381 L 100.509 91.943 L 97.833 91.943 L 97.833 91.678 L 100.466 87.693 L 100.978 87.693 Z M 98.407 91.549 L 100.509 91.549 L 100.509 88.299 L 100.302 88.658 Z" style="fill: rgb(35, 31, 32); line-height: normal; white-space: pre;"/>
        <path d="M 105.888 89.158 Q 105.888 89.6 105.63 89.949 Q 105.372 90.299 104.95 90.463 Q 105.442 90.631 105.739 91.006 Q 106.036 91.381 106.036 91.873 Q 106.036 92.604 105.54 93.031 Q 105.044 93.459 104.228 93.459 Q 103.403 93.459 102.909 93.033 Q 102.415 92.608 102.415 91.873 Q 102.415 91.389 102.7 91.01 Q 102.985 90.631 103.481 90.463 Q 103.06 90.299 102.81 89.949 Q 102.56 89.6 102.56 89.158 Q 102.56 88.451 103.015 88.033 Q 103.47 87.615 104.22 87.615 Q 104.97 87.615 105.429 88.037 Q 105.888 88.459 105.888 89.158 Z M 105.567 91.877 Q 105.567 91.346 105.188 91.004 Q 104.81 90.662 104.22 90.662 Q 103.63 90.662 103.255 90.998 Q 102.88 91.334 102.88 91.877 Q 102.88 92.42 103.243 92.742 Q 103.606 93.065 104.228 93.065 Q 104.833 93.065 105.2 92.744 Q 105.567 92.424 105.567 91.877 Z M 105.419 89.154 Q 105.419 88.666 105.081 88.34 Q 104.743 88.014 104.22 88.014 Q 103.688 88.014 103.358 88.328 Q 103.028 88.643 103.028 89.154 Q 103.028 89.654 103.358 89.959 Q 103.688 90.264 104.224 90.264 Q 104.751 90.264 105.085 89.957 Q 105.419 89.651 105.419 89.154 Z" style="fill: rgb(35, 31, 32); line-height: normal; white-space: pre;"/>
        <path d="M 106.95 94.443 L 106.673 94.24 Q 107.028 93.764 107.04 93.252 L 107.04 92.647 L 107.497 92.647 L 107.497 93.135 Q 107.497 93.947 106.95 94.443 Z" style="fill: rgb(35, 31, 32); line-height: normal; white-space: pre;"/>
        <path d="M 114.013 93.381 L 110.45 93.381 L 110.45 93.022 L 112.399 90.811 Q 112.884 90.252 113.071 89.889 Q 113.259 89.526 113.259 89.182 Q 113.259 88.643 112.942 88.328 Q 112.626 88.014 112.071 88.014 Q 111.497 88.014 111.144 88.381 Q 110.79 88.748 110.79 89.334 L 110.325 89.334 Q 110.325 88.854 110.542 88.459 Q 110.759 88.065 111.159 87.84 Q 111.56 87.615 112.071 87.615 Q 112.853 87.615 113.292 88.026 Q 113.731 88.436 113.731 89.143 Q 113.731 89.541 113.483 90.014 Q 113.235 90.486 112.61 91.193 L 111.024 92.986 L 114.013 92.986 Z" style="fill: rgb(35, 31, 32); line-height: normal; white-space: pre;"/>
        <path d="M 118.31 91.01 Q 118.31 92.213 117.868 92.836 Q 117.427 93.459 116.567 93.459 Q 115.724 93.459 115.274 92.848 Q 114.825 92.236 114.813 91.068 L 114.813 90.049 Q 114.813 88.85 115.259 88.233 Q 115.704 87.615 116.56 87.615 Q 117.403 87.615 117.849 88.211 Q 118.294 88.807 118.31 89.967 Z M 117.841 89.99 Q 117.841 89.014 117.522 88.514 Q 117.204 88.014 116.56 88.014 Q 115.927 88.014 115.606 88.502 Q 115.286 88.99 115.278 89.943 L 115.278 91.061 Q 115.278 92.033 115.608 92.549 Q 115.938 93.065 116.567 93.065 Q 117.192 93.065 117.515 92.561 Q 117.837 92.057 117.841 91.084 Z" style="fill: rgb(35, 31, 32); line-height: normal; white-space: pre;"/>
        <path d="M 122.747 91.01 Q 122.747 92.213 122.306 92.836 Q 121.864 93.459 121.005 93.459 Q 120.161 93.459 119.712 92.848 Q 119.263 92.236 119.251 91.068 L 119.251 90.049 Q 119.251 88.85 119.696 88.233 Q 120.142 87.615 120.997 87.615 Q 121.841 87.615 122.286 88.211 Q 122.731 88.807 122.747 89.967 Z M 122.278 89.99 Q 122.278 89.014 121.96 88.514 Q 121.642 88.014 120.997 88.014 Q 120.364 88.014 120.044 88.502 Q 119.724 88.99 119.716 89.943 L 119.716 91.061 Q 119.716 92.033 120.046 92.549 Q 120.376 93.065 121.005 93.065 Q 121.63 93.065 121.952 92.561 Q 122.274 92.057 122.278 91.084 Z" style="fill: rgb(35, 31, 32); line-height: normal; white-space: pre;"/>
        <path d="M 124.981 91.846 L 125.157 92.729 L 125.372 91.885 L 126.606 87.693 L 127.04 87.693 L 128.259 91.885 L 128.47 92.736 L 128.657 91.846 L 129.685 87.693 L 130.177 87.693 L 128.72 93.381 L 128.259 93.381 L 126.97 88.932 L 126.825 88.369 L 126.685 88.932 L 125.364 93.381 L 124.903 93.381 L 123.45 87.693 L 123.942 87.693 Z" style="fill: rgb(35, 31, 32); line-height: normal; white-space: pre;"/>
      </g>
      <g id="text_19">
        <path d="M 93.013 76.055 L 93.29 73.282 L 96.134 73.282 L 96.134 73.715 L 93.693 73.715 L 93.493 75.637 Q 93.95 75.324 94.564 75.324 Q 95.333 75.324 95.79 75.824 Q 96.247 76.324 96.247 77.157 Q 96.247 78.055 95.802 78.551 Q 95.357 79.047 94.548 79.047 Q 93.806 79.047 93.345 78.633 Q 92.884 78.219 92.818 77.473 L 93.267 77.473 Q 93.333 78.055 93.661 78.354 Q 93.99 78.653 94.548 78.653 Q 95.157 78.653 95.468 78.266 Q 95.779 77.879 95.779 77.164 Q 95.779 76.539 95.431 76.145 Q 95.083 75.75 94.482 75.75 Q 94.15 75.75 93.904 75.834 Q 93.657 75.918 93.384 76.16 Z" style="fill: rgb(35, 31, 32); line-height: normal; white-space: pre;"/>
        <path d="M 99.884 73.239 L 99.884 73.649 L 99.829 73.649 Q 98.81 73.649 98.224 74.248 Q 97.638 74.848 97.575 75.914 Q 97.81 75.59 98.173 75.412 Q 98.536 75.235 98.986 75.235 Q 99.736 75.235 100.179 75.752 Q 100.622 76.27 100.622 77.106 Q 100.622 77.66 100.415 78.106 Q 100.208 78.551 99.822 78.799 Q 99.435 79.047 98.939 79.047 Q 98.122 79.047 97.611 78.455 Q 97.099 77.864 97.099 76.926 L 97.099 76.457 Q 97.099 74.93 97.794 74.092 Q 98.49 73.254 99.767 73.239 Z M 98.911 75.637 Q 98.466 75.637 98.081 75.901 Q 97.697 76.164 97.568 76.571 L 97.568 76.969 Q 97.568 77.711 97.949 78.18 Q 98.329 78.649 98.939 78.649 Q 99.486 78.649 99.824 78.215 Q 100.161 77.782 100.161 77.121 Q 100.161 76.449 99.824 76.043 Q 99.486 75.637 98.911 75.637 Z" style="fill: rgb(35, 31, 32); line-height: normal; white-space: pre;"/>
        <path d="M 101.54 80.032 L 101.263 79.828 Q 101.618 79.352 101.63 78.84 L 101.63 78.235 L 102.087 78.235 L 102.087 78.723 Q 102.087 79.535 101.54 80.032 Z" style="fill: rgb(35, 31, 32); line-height: normal; white-space: pre;"/>
        <path d="M 108.603 78.969 L 105.04 78.969 L 105.04 78.61 L 106.99 76.399 Q 107.474 75.84 107.661 75.477 Q 107.849 75.114 107.849 74.77 Q 107.849 74.231 107.532 73.916 Q 107.216 73.602 106.661 73.602 Q 106.087 73.602 105.734 73.969 Q 105.38 74.336 105.38 74.922 L 104.915 74.922 Q 104.915 74.442 105.132 74.047 Q 105.349 73.653 105.749 73.428 Q 106.15 73.203 106.661 73.203 Q 107.443 73.203 107.882 73.614 Q 108.322 74.024 108.322 74.731 Q 108.322 75.129 108.074 75.602 Q 107.825 76.074 107.2 76.782 L 105.615 78.574 L 108.603 78.574 Z" style="fill: rgb(35, 31, 32); line-height: normal; white-space: pre;"/>
        <path d="M 113.032 78.969 L 109.47 78.969 L 109.47 78.61 L 111.419 76.399 Q 111.904 75.84 112.091 75.477 Q 112.279 75.114 112.279 74.77 Q 112.279 74.231 111.962 73.916 Q 111.646 73.602 111.091 73.602 Q 110.517 73.602 110.163 73.969 Q 109.81 74.336 109.81 74.922 L 109.345 74.922 Q 109.345 74.442 109.562 74.047 Q 109.779 73.653 110.179 73.428 Q 110.579 73.203 111.091 73.203 Q 111.872 73.203 112.312 73.614 Q 112.751 74.024 112.751 74.731 Q 112.751 75.129 112.503 75.602 Q 112.255 76.074 111.63 76.782 L 110.044 78.574 L 113.032 78.574 Z" style="fill: rgb(35, 31, 32); line-height: normal; white-space: pre;"/>
        <path d="M 114.224 76.055 L 114.501 73.282 L 117.345 73.282 L 117.345 73.715 L 114.904 73.715 L 114.704 75.637 Q 115.161 75.324 115.775 75.324 Q 116.544 75.324 117.001 75.824 Q 117.458 76.324 117.458 77.157 Q 117.458 78.055 117.013 78.551 Q 116.568 79.047 115.759 79.047 Q 115.017 79.047 114.556 78.633 Q 114.095 78.219 114.029 77.473 L 114.478 77.473 Q 114.544 78.055 114.872 78.354 Q 115.2 78.653 115.759 78.653 Q 116.368 78.653 116.679 78.266 Q 116.99 77.879 116.99 77.164 Q 116.99 76.539 116.642 76.145 Q 116.294 75.75 115.693 75.75 Q 115.361 75.75 115.115 75.834 Q 114.868 75.918 114.595 76.16 Z" style="fill: rgb(35, 31, 32); line-height: normal; white-space: pre;"/>
        <path d="M 119.572 77.434 L 119.747 78.317 L 119.962 77.473 L 121.197 73.282 L 121.63 73.282 L 122.849 77.473 L 123.06 78.324 L 123.247 77.434 L 124.275 73.282 L 124.767 73.282 L 123.31 78.969 L 122.849 78.969 L 121.56 74.52 L 121.415 73.957 L 121.275 74.52 L 119.954 78.969 L 119.493 78.969 L 118.04 73.282 L 118.532 73.282 Z" style="fill: rgb(35, 31, 32); line-height: normal; white-space: pre;"/>
      </g>
      <g id="text_20">
        <path d="M 88.812 67.905 L 89.699 67.905 L 89.699 68.299 L 88.812 68.299 L 88.812 69.737 L 88.344 69.737 L 88.344 68.299 L 85.668 68.299 L 85.668 68.034 L 88.301 64.049 L 88.812 64.049 Z M 86.242 67.905 L 88.344 67.905 L 88.344 64.655 L 88.137 65.014 Z" style="fill: rgb(35, 31, 32); line-height: normal; white-space: pre;"/>
        <path d="M 93.723 65.514 Q 93.723 65.955 93.465 66.305 Q 93.207 66.655 92.785 66.819 Q 93.277 66.987 93.574 67.362 Q 93.871 67.737 93.871 68.229 Q 93.871 68.959 93.375 69.387 Q 92.879 69.815 92.062 69.815 Q 91.238 69.815 90.744 69.389 Q 90.25 68.963 90.25 68.229 Q 90.25 67.745 90.535 67.366 Q 90.82 66.987 91.316 66.819 Q 90.894 66.655 90.644 66.305 Q 90.394 65.955 90.394 65.514 Q 90.394 64.807 90.85 64.389 Q 91.305 63.971 92.055 63.971 Q 92.805 63.971 93.264 64.393 Q 93.723 64.815 93.723 65.514 Z M 93.402 68.233 Q 93.402 67.702 93.023 67.36 Q 92.644 67.018 92.055 67.018 Q 91.465 67.018 91.09 67.354 Q 90.715 67.69 90.715 68.233 Q 90.715 68.776 91.078 69.098 Q 91.441 69.42 92.062 69.42 Q 92.668 69.42 93.035 69.1 Q 93.402 68.78 93.402 68.233 Z M 93.254 65.51 Q 93.254 65.022 92.916 64.696 Q 92.578 64.37 92.055 64.37 Q 91.523 64.37 91.193 64.684 Q 90.863 64.998 90.863 65.51 Q 90.863 66.01 91.193 66.315 Q 91.523 66.62 92.059 66.62 Q 92.586 66.62 92.92 66.313 Q 93.254 66.006 93.254 65.51 Z" style="fill: rgb(35, 31, 32); line-height: normal; white-space: pre;"/>
        <path d="M 94.785 70.799 L 94.508 70.596 Q 94.863 70.12 94.875 69.608 L 94.875 69.002 L 95.332 69.002 L 95.332 69.491 Q 95.332 70.303 94.785 70.799 Z" style="fill: rgb(35, 31, 32); line-height: normal; white-space: pre;"/>
        <path d="M 101.848 69.737 L 98.285 69.737 L 98.285 69.377 L 100.234 67.166 Q 100.719 66.608 100.906 66.245 Q 101.094 65.881 101.094 65.537 Q 101.094 64.998 100.777 64.684 Q 100.461 64.37 99.906 64.37 Q 99.332 64.37 98.978 64.737 Q 98.625 65.104 98.625 65.69 L 98.16 65.69 Q 98.16 65.209 98.377 64.815 Q 98.594 64.42 98.994 64.196 Q 99.394 63.971 99.906 63.971 Q 100.687 63.971 101.127 64.381 Q 101.566 64.791 101.566 65.498 Q 101.566 65.897 101.318 66.37 Q 101.07 66.842 100.445 67.549 L 98.859 69.342 L 101.848 69.342 Z" style="fill: rgb(35, 31, 32); line-height: normal; white-space: pre;"/>
        <path d="M 103.031 66.823 L 103.309 64.049 L 106.152 64.049 L 106.152 64.483 L 103.711 64.483 L 103.512 66.405 Q 103.969 66.092 104.582 66.092 Q 105.352 66.092 105.809 66.592 Q 106.266 67.092 106.266 67.924 Q 106.266 68.823 105.82 69.319 Q 105.375 69.815 104.566 69.815 Q 103.824 69.815 103.363 69.401 Q 102.902 68.987 102.836 68.241 L 103.285 68.241 Q 103.352 68.823 103.68 69.121 Q 104.008 69.42 104.566 69.42 Q 105.176 69.42 105.486 69.034 Q 105.797 68.647 105.797 67.932 Q 105.797 67.307 105.449 66.912 Q 105.102 66.518 104.5 66.518 Q 104.168 66.518 103.922 66.602 Q 103.676 66.686 103.402 66.928 Z" style="fill: rgb(35, 31, 32); line-height: normal; white-space: pre;"/>
        <path d="M 110.582 67.366 Q 110.582 68.569 110.141 69.192 Q 109.699 69.815 108.84 69.815 Q 107.996 69.815 107.547 69.203 Q 107.098 68.592 107.086 67.424 L 107.086 66.405 Q 107.086 65.205 107.531 64.588 Q 107.977 63.971 108.832 63.971 Q 109.676 63.971 110.121 64.567 Q 110.566 65.162 110.582 66.323 Z M 110.113 66.346 Q 110.113 65.37 109.795 64.87 Q 109.477 64.37 108.832 64.37 Q 108.199 64.37 107.879 64.858 Q 107.559 65.346 107.551 66.299 L 107.551 67.416 Q 107.551 68.389 107.881 68.905 Q 108.211 69.42 108.84 69.42 Q 109.465 69.42 109.787 68.916 Q 110.109 68.412 110.113 67.44 Z" style="fill: rgb(35, 31, 32); line-height: normal; white-space: pre;"/>
        <path d="M 112.816 68.202 L 112.992 69.084 L 113.207 68.241 L 114.441 64.049 L 114.875 64.049 L 116.094 68.241 L 116.305 69.092 L 116.492 68.202 L 117.519 64.049 L 118.012 64.049 L 116.555 69.737 L 116.094 69.737 L 114.805 65.287 L 114.66 64.725 L 114.519 65.287 L 113.199 69.737 L 112.738 69.737 L 111.285 64.049 L 111.777 64.049 Z" style="fill: rgb(35, 31, 32); line-height: normal; white-space: pre;"/>
      </g>
      <g id="legend_1">
        <g id="patch_7" style="" transform="matrix(1, 0, 0, 0.606469, 0, 6.296491)">
          <path d="M 41.475 41.0325 L 111.53625 41.0325 Q 113.13625 41.0325 113.13625 39.4325 L 113.13625 17.6 Q 113.13625 16 111.53625 16 L 41.475 16 Q 39.875 16 39.875 17.6 L 39.875 39.4325 Q 39.875 41.0325 41.475 41.0325 z " style="opacity: 0.8; stroke: rgb(204, 204, 204); stroke-linejoin: miter; fill: rgba(255, 255, 255, 0);"/>
        </g>
        <g id="PathCollection_2">
          <g/>
        </g>
        <g id="text_21"/>
        <g id="line2d_11">
          <path d="M 43.075 23.443 L 51.075 23.443 L 59.075 23.443" style="fill: none; stroke-width: 1.5; stroke-linecap: square; stroke: rgb(235, 188, 0);"/>
          <g>
            <path d="M 51.075 26.443 C 51.871 26.443 52.634 26.126 53.196 25.564 C 53.759 25.001 54.075 24.238 54.075 23.443 C 54.075 22.647 53.759 21.884 53.196 21.321 C 52.634 20.759 51.871 20.443 51.075 20.443 C 50.279 20.443 49.516 20.759 48.954 21.321 C 48.391 21.884 48.075 22.647 48.075 23.443 C 48.075 24.238 48.391 25.001 48.954 25.564 C 49.516 26.126 50.279 26.443 51.075 26.443 Z" style="stroke: rgb(235, 188, 0); fill: rgb(235, 188, 0);"/>
          </g>
        </g>
        <g id="text_22">
          <path d="M 66.674 23.927 L 66.674 26.243 L 66.194 26.243 L 66.194 20.556 L 68.131 20.556 Q 69.018 20.556 69.532 21.009 Q 70.045 21.462 70.045 22.255 Q 70.045 23.056 69.551 23.491 Q 69.057 23.927 68.12 23.927 Z M 66.674 23.52 L 68.131 23.52 Q 68.83 23.52 69.198 23.188 Q 69.565 22.856 69.565 22.263 Q 69.565 21.673 69.2 21.323 Q 68.834 20.973 68.162 20.966 L 66.674 20.966 Z" style="fill: rgb(35, 31, 32); line-height: normal; white-space: pre;"/>
          <path d="M 73.635 26.243 Q 73.565 26.044 73.545 25.653 Q 73.299 25.973 72.918 26.147 Q 72.537 26.321 72.112 26.321 Q 71.502 26.321 71.125 25.981 Q 70.748 25.641 70.748 25.122 Q 70.748 24.505 71.262 24.145 Q 71.776 23.786 72.694 23.786 L 73.541 23.786 L 73.541 23.306 Q 73.541 22.852 73.262 22.593 Q 72.983 22.333 72.448 22.333 Q 71.959 22.333 71.639 22.583 Q 71.319 22.833 71.319 23.184 L 70.85 23.181 Q 70.85 22.677 71.319 22.307 Q 71.787 21.938 72.471 21.938 Q 73.178 21.938 73.586 22.292 Q 73.995 22.645 74.006 23.278 L 74.006 25.278 Q 74.006 25.891 74.135 26.196 L 74.135 26.243 Z M 72.166 25.907 Q 72.635 25.907 73.004 25.681 Q 73.373 25.454 73.541 25.075 L 73.541 24.145 L 72.705 24.145 Q 72.006 24.153 71.612 24.401 Q 71.217 24.649 71.217 25.083 Q 71.217 25.438 71.481 25.673 Q 71.745 25.907 72.166 25.907 Z" style="fill: rgb(35, 31, 32); line-height: normal; white-space: pre;"/>
          <path d="M 77.202 22.415 Q 77.053 22.388 76.885 22.388 Q 76.448 22.388 76.145 22.632 Q 75.842 22.876 75.713 23.341 L 75.713 26.243 L 75.248 26.243 L 75.248 22.016 L 75.705 22.016 L 75.713 22.688 Q 76.084 21.938 76.905 21.938 Q 77.1 21.938 77.213 21.989 Z" style="fill: rgb(35, 31, 32); line-height: normal; white-space: pre;"/>
          <path d="M 79.502 26.321 Q 78.963 26.321 78.528 26.056 Q 78.092 25.79 77.85 25.315 Q 77.608 24.841 77.608 24.251 L 77.608 24.083 Q 77.608 23.473 77.844 22.985 Q 78.08 22.497 78.502 22.218 Q 78.924 21.938 79.416 21.938 Q 80.186 21.938 80.637 22.464 Q 81.088 22.989 81.088 23.899 L 81.088 24.161 L 78.073 24.161 L 78.073 24.251 Q 78.073 24.97 78.485 25.448 Q 78.897 25.927 79.522 25.927 Q 79.897 25.927 80.184 25.79 Q 80.471 25.653 80.705 25.352 L 80.998 25.575 Q 80.483 26.321 79.502 26.321 Z M 79.416 22.337 Q 78.889 22.337 78.528 22.723 Q 78.166 23.11 78.088 23.763 L 80.623 23.763 L 80.623 23.712 Q 80.604 23.102 80.276 22.72 Q 79.948 22.337 79.416 22.337 Z" style="fill: rgb(35, 31, 32); line-height: normal; white-space: pre;"/>
          <path d="M 82.725 20.934 L 82.725 22.016 L 83.6 22.016 L 83.6 22.399 L 82.725 22.399 L 82.725 25.216 Q 82.725 25.567 82.852 25.739 Q 82.979 25.911 83.276 25.911 Q 83.393 25.911 83.655 25.872 L 83.674 26.255 Q 83.491 26.321 83.174 26.321 Q 82.694 26.321 82.475 26.042 Q 82.256 25.763 82.256 25.22 L 82.256 22.399 L 81.479 22.399 L 81.479 22.016 L 82.256 22.016 L 82.256 20.934 Z" style="fill: rgb(35, 31, 32); line-height: normal; white-space: pre;"/>
          <path d="M 84.233 24.067 Q 84.233 23.458 84.469 22.97 Q 84.705 22.481 85.137 22.21 Q 85.569 21.938 86.116 21.938 Q 86.959 21.938 87.483 22.53 Q 88.006 23.122 88.006 24.098 L 88.006 24.196 Q 88.006 24.809 87.77 25.3 Q 87.534 25.79 87.104 26.056 Q 86.674 26.321 86.123 26.321 Q 85.284 26.321 84.758 25.729 Q 84.233 25.138 84.233 24.161 Z M 84.702 24.196 Q 84.702 24.954 85.094 25.44 Q 85.487 25.927 86.123 25.927 Q 86.756 25.927 87.149 25.44 Q 87.541 24.954 87.541 24.157 L 87.541 24.067 Q 87.541 23.583 87.362 23.181 Q 87.182 22.778 86.858 22.557 Q 86.534 22.337 86.116 22.337 Q 85.491 22.337 85.096 22.827 Q 84.702 23.317 84.702 24.11 Z" style="fill: rgb(35, 31, 32); line-height: normal; white-space: pre;"/>
          <path d="M 94.162 23.587 L 91.51 23.587 L 91.51 26.243 L 91.03 26.243 L 91.03 20.556 L 94.553 20.556 L 94.553 20.966 L 91.51 20.966 L 91.51 23.177 L 94.162 23.177 Z" style="fill: rgb(35, 31, 32); line-height: normal; white-space: pre;"/>
          <path d="M 97.272 22.415 Q 97.123 22.388 96.955 22.388 Q 96.518 22.388 96.215 22.632 Q 95.912 22.876 95.784 23.341 L 95.784 26.243 L 95.319 26.243 L 95.319 22.016 L 95.776 22.016 L 95.784 22.688 Q 96.155 21.938 96.975 21.938 Q 97.17 21.938 97.284 21.989 Z" style="fill: rgb(35, 31, 32); line-height: normal; white-space: pre;"/>
          <path d="M 97.67 24.067 Q 97.67 23.458 97.907 22.97 Q 98.143 22.481 98.575 22.21 Q 99.006 21.938 99.553 21.938 Q 100.397 21.938 100.92 22.53 Q 101.444 23.122 101.444 24.098 L 101.444 24.196 Q 101.444 24.809 101.207 25.3 Q 100.971 25.79 100.541 26.056 Q 100.112 26.321 99.561 26.321 Q 98.721 26.321 98.196 25.729 Q 97.67 25.138 97.67 24.161 Z M 98.139 24.196 Q 98.139 24.954 98.532 25.44 Q 98.924 25.927 99.561 25.927 Q 100.194 25.927 100.586 25.44 Q 100.979 24.954 100.979 24.157 L 100.979 24.067 Q 100.979 23.583 100.799 23.181 Q 100.62 22.778 100.295 22.557 Q 99.971 22.337 99.553 22.337 Q 98.928 22.337 98.534 22.827 Q 98.139 23.317 98.139 24.11 Z" style="fill: rgb(35, 31, 32); line-height: normal; white-space: pre;"/>
          <path d="M 102.858 22.016 L 102.873 22.739 Q 103.112 22.348 103.467 22.143 Q 103.823 21.938 104.252 21.938 Q 104.932 21.938 105.264 22.321 Q 105.596 22.704 105.6 23.47 L 105.6 26.243 L 105.135 26.243 L 105.135 23.466 Q 105.131 22.899 104.895 22.622 Q 104.659 22.345 104.139 22.345 Q 103.705 22.345 103.371 22.616 Q 103.037 22.888 102.877 23.348 L 102.877 26.243 L 102.412 26.243 L 102.412 22.016 Z" style="fill: rgb(35, 31, 32); line-height: normal; white-space: pre;"/>
          <path d="M 107.53 20.934 L 107.53 22.016 L 108.405 22.016 L 108.405 22.399 L 107.53 22.399 L 107.53 25.216 Q 107.53 25.567 107.657 25.739 Q 107.784 25.911 108.08 25.911 Q 108.198 25.911 108.459 25.872 L 108.479 26.255 Q 108.295 26.321 107.979 26.321 Q 107.498 26.321 107.28 26.042 Q 107.061 25.763 107.061 25.22 L 107.061 22.399 L 106.284 22.399 L 106.284 22.016 L 107.061 22.016 L 107.061 20.934 Z" style="fill: rgb(35, 31, 32); line-height: normal; white-space: pre;"/>
        </g>
      </g>
    </g>
  </g>
</svg>