<?xml version="1.0" encoding="UTF-8"?>
<svg id="Layer_2" data-name="Layer 2" xmlns="http://www.w3.org/2000/svg" viewBox="0 0 754.68 258.58">
  <defs>
    <style>
      .cls-1 {
        fill: #f7e96d;
      }

      .cls-2 {
        fill: #ebbc00;
      }

      .cls-3 {
        fill: #fff;
      }

      .cls-4 {
        fill: #e79613;
      }
    </style>
  </defs>
  <g id="HQ">
    <g>
      <g>
        <path class="cls-3" d="M233.44,11.09L121.25,154.46h105.46L10.31,249.62l39.76-50.8L122.5,106.25H17.04L233.44,11.09m0-5.1c-.69,0-1.39,.14-2.05,.43L14.98,101.58c-2.21,.97-3.44,3.36-2.94,5.72,.5,2.36,2.58,4.05,5,4.05H112.03L46.05,195.67,6.29,246.48c-1.44,1.84-1.45,4.43-.01,6.28,.99,1.28,2.49,1.97,4.03,1.97,.69,0,1.39-.14,2.05-.43l216.4-95.17c2.21-.97,3.44-3.36,2.94-5.72-.5-2.36-2.58-4.05-5-4.05h-94.99L237.46,14.23c1.44-1.84,1.45-4.43,.01-6.28-.99-1.28-2.49-1.97-4.03-1.97h0Z"/>
        <polygon class="cls-3" points="72.57 109.22 71.31 108.09 90.38 86.86 119.72 58.18 157.57 73.69 156.92 75.26 120.11 60.18 91.6 88.04 72.57 109.22"/>
        <path class="cls-3" d="M161.26,109.55l-43.97-1.99,.9-24.58-27.02,5.28L13.43,107.58l-.41-1.65,77.78-19.32,27.45-5.37,.81-22.08,1.7,.06-.79,21.69,38.04-7.44,3.25,36.09Zm-42.21-3.61l40.34,1.82-2.91-32.27-36.58,7.15-.85,23.29Z"/>
        <path class="cls-3" d="M154.58,75.58l1.9-1.58,9.43-38.02,13.25,19.15L232.89,10.43l1.09,1.31-53.84,44.8,10.77,15.57-36.32,3.47Zm24.24-17.95l-18.91,15.73,27.95-2.67-9.03-13.06Zm-12.16-17.58l-7.96,32.11,19.15-15.94-11.19-16.18Z"/>
        <rect class="cls-3" x="187.9" y="18.34" width="1.7" height="45.31" transform="translate(123.28 222.71) rotate(-82.44)"/>
        <polygon class="cls-3" points="124.8 200.4 86.95 184.89 87.6 183.32 124.41 198.4 152.92 170.54 171.95 149.35 173.22 150.49 154.15 171.72 124.8 200.4"/>
        <path class="cls-3" d="M125.46,199.43l-1.7-.06,.79-21.69-38.04,7.44-3.25-36.09,43.97,1.99-.9,24.58,27.02-5.28,77.74-19.31,.41,1.65-77.78,19.32-27.45,5.37-.81,22.08Zm-40.33-48.61l2.91,32.27,36.58-7.15,.85-23.29-40.34-1.82Z"/>
        <path class="cls-3" d="M11.63,248.15l-1.09-1.31,53.84-44.8-10.77-15.57,36.32-3.47-1.9,1.59-9.43,38.02-13.25-19.15L11.63,248.15Zm55.04-45.8l11.19,16.18,7.96-32.11-19.15,15.94Zm-10.01-14.47l9.03,13.06,18.91-15.73-27.95,2.67Z"/>
        <rect class="cls-3" x="54.92" y="194.93" width="1.7" height="45.31" transform="translate(-167.26 244.25) rotate(-82.44)"/>
        <rect class="cls-3" x="121.41" y="106.38" width="1.7" height="45.81" transform="translate(-21.09 23.87) rotate(-10.27)"/>
        <rect class="cls-3" x="78.96" y="128.44" width="86.6" height="1.7" transform="translate(-46.84 73.88) rotate(-28.46)"/>
        <g>
          <circle class="cls-1" cx="87.27" cy="184.1" r="5.96"/>
          <circle class="cls-1" cx="153.51" cy="171.15" r="5.96"/>
          <circle class="cls-1" cx="47.75" cy="216.82" r="4.1"/>
          <circle class="cls-1" cx="231.29" cy="151.83" r="11.09"/>
          <circle class="cls-1" cx="122.26" cy="129.29" r="4.1"/>
          <circle class="cls-2" cx="126.34" cy="151.83" r="11.09"/>
          <circle class="cls-2" cx="78.23" cy="220.56" r="5.96"/>
          <circle class="cls-2" cx="55.14" cy="187.17" r="5.96"/>
          <circle class="cls-2" cx="124.61" cy="199.4" r="7.8"/>
          <circle class="cls-2" cx="84.19" cy="149.92" r="7.56"/>
          <circle class="cls-2" cx="11.09" cy="247.49" r="11.09"/>
          <circle class="cls-4" cx="33.31" cy="214.6" r="5.96"/>
          <circle class="cls-4" cx="125.21" cy="177.11" r="4.1"/>
          <circle class="cls-4" cx="65.2" cy="202.12" r="4.1"/>
          <circle class="cls-4" cx="172.58" cy="149.92" r="7.8"/>
        </g>
        <g>
          <circle class="cls-1" cx="211.21" cy="43.98" r="5.96"/>
          <circle class="cls-1" cx="119.31" cy="81.47" r="4.1"/>
          <circle class="cls-1" cx="179.32" cy="56.46" r="4.1"/>
          <circle class="cls-1" cx="71.94" cy="108.66" r="7.8"/>
          <circle class="cls-2" cx="157.25" cy="74.48" r="5.96"/>
          <circle class="cls-2" cx="91.01" cy="87.43" r="5.96"/>
          <circle class="cls-2" cx="196.77" cy="41.76" r="4.1"/>
          <circle class="cls-2" cx="160.33" cy="108.66" r="7.56"/>
          <circle class="cls-2" cx="13.23" cy="106.75" r="11.09"/>
          <circle class="cls-4" cx="118.18" cy="106.75" r="11.09"/>
          <circle class="cls-4" cx="166.29" cy="38.02" r="5.96"/>
          <circle class="cls-4" cx="189.38" cy="71.4" r="5.96"/>
          <circle class="cls-4" cx="119.91" cy="59.18" r="7.8"/>
          <circle class="cls-4" cx="233.44" cy="11.09" r="11.09"/>
        </g>
      </g>
      <g>
        <path class="cls-3" d="M402.18,159.06l-24.32,31.45h-117.75V68.19h141.7l-24.5,31.81h-79.17v14.63h96.9l-21.76,27.79h-75.15v16.64h104.03Z"/>
        <path class="cls-3" d="M574.04,137.12c0,36.93-25.41,55.4-76.24,55.4-14.75,0-27.43-1.16-38.03-3.47-10.6-2.31-19.35-5.79-26.24-10.42-6.89-4.63-11.95-10.39-15.18-17.28-3.23-6.89-4.84-14.96-4.84-24.23V68.19h37.66v68.93c0,4.51,.61,8.29,1.83,11.34,1.22,3.05,3.5,5.52,6.86,7.41,3.35,1.89,8.07,3.23,14.17,4.02,6.09,.79,14.01,1.19,23.77,1.19,7.31,0,13.41-.43,18.28-1.28,4.87-.85,8.78-2.25,11.7-4.21,2.93-1.95,5.03-4.45,6.31-7.5,1.28-3.05,1.92-6.7,1.92-10.97V68.19h38.03v68.93Z"/>
        <path class="cls-3" d="M708.79,117.01c14.99,0,26.39,2.77,34.19,8.32,7.8,5.55,11.7,13.93,11.7,25.14,0,6.22-.98,11.82-2.92,16.82-1.95,5-5.06,9.2-9.32,12.62-4.27,3.41-9.72,6.03-16.36,7.86-6.65,1.83-14.6,2.74-23.86,2.74h-113.91l24.32-31.45h92.51c4.51,0,7.8-.7,9.87-2.1,2.07-1.4,3.11-3.68,3.11-6.86s-1.04-5.42-3.11-6.76c-2.07-1.34-5.36-2.01-9.87-2.01h-66.55c-7.93,0-14.75-.85-20.48-2.56-5.73-1.71-10.48-4.08-14.26-7.13-3.78-3.05-6.58-6.73-8.41-11.06-1.83-4.32-2.74-9.11-2.74-14.35,0-5.73,1.01-10.94,3.02-15.63,2.01-4.69,5.12-8.68,9.32-11.98,4.21-3.29,9.63-5.85,16.27-7.68,6.64-1.83,14.6-2.74,23.86-2.74h106.23l-24.32,31.81h-84.83c-4.39,0-7.65,.61-9.78,1.83-2.13,1.22-3.2,3.41-3.2,6.58s1.07,5.39,3.2,6.67c2.13,1.28,5.39,1.92,9.78,1.92h66.55Z"/>
      </g>
    </g>
  </g>
</svg>